<?xml version="1.0" encoding="utf-8" standalone="no"?>
<!DOCTYPE svg PUBLIC "-//W3C//DTD SVG 1.1//EN"
  "http://www.w3.org/Graphics/SVG/1.1/DTD/svg11.dtd">
<!-- Created with matplotlib (https://matplotlib.org/) -->
<svg height="432pt" version="1.1" viewBox="0 0 1008 432" width="1008pt" xmlns="http://www.w3.org/2000/svg" xmlns:xlink="http://www.w3.org/1999/xlink">
 <metadata>
  <rdf:RDF xmlns:cc="http://creativecommons.org/ns#" xmlns:dc="http://purl.org/dc/elements/1.1/" xmlns:rdf="http://www.w3.org/1999/02/22-rdf-syntax-ns#">
   <cc:Work>
    <dc:type rdf:resource="http://purl.org/dc/dcmitype/StillImage"/>
    <dc:date>2021-12-13T16:41:49.214127</dc:date>
    <dc:format>image/svg+xml</dc:format>
    <dc:creator>
     <cc:Agent>
      <dc:title>Matplotlib v3.3.3, https://matplotlib.org/</dc:title>
     </cc:Agent>
    </dc:creator>
   </cc:Work>
  </rdf:RDF>
 </metadata>
 <defs>
  <style type="text/css">*{stroke-linecap:butt;stroke-linejoin:round;}</style>
 </defs>
 <g id="figure_1">
  <g id="patch_1">
   <path d="M 0 432 
L 1008 432 
L 1008 0 
L 0 0 
z
" style="fill:#ffffff;"/>
  </g>
  <g id="axes_1">
   <g id="patch_2">
    <path d="M 126 203.04 
L 907.2 203.04 
L 907.2 51.84 
L 126 51.84 
z
" style="fill:#ffffff;"/>
   </g>
   <g id="matplotlib.axis_1">
    <g id="xtick_1">
     <g id="line2d_1">
      <defs>
       <path d="M 0 0 
L 0 3.5 
" id="m4d2b4a5944" style="stroke:#000000;stroke-width:0.8;"/>
      </defs>
      <g>
       <use style="stroke:#000000;stroke-width:0.8;" x="161.509091" xlink:href="#m4d2b4a5944" y="203.04"/>
      </g>
     </g>
    </g>
    <g id="xtick_2">
     <g id="line2d_2">
      <g>
       <use style="stroke:#000000;stroke-width:0.8;" x="328.610695" xlink:href="#m4d2b4a5944" y="203.04"/>
      </g>
     </g>
    </g>
    <g id="xtick_3">
     <g id="line2d_3">
      <g>
       <use style="stroke:#000000;stroke-width:0.8;" x="495.712299" xlink:href="#m4d2b4a5944" y="203.04"/>
      </g>
     </g>
    </g>
    <g id="xtick_4">
     <g id="line2d_4">
      <g>
       <use style="stroke:#000000;stroke-width:0.8;" x="662.813904" xlink:href="#m4d2b4a5944" y="203.04"/>
      </g>
     </g>
    </g>
    <g id="xtick_5">
     <g id="line2d_5">
      <g>
       <use style="stroke:#000000;stroke-width:0.8;" x="829.915508" xlink:href="#m4d2b4a5944" y="203.04"/>
      </g>
     </g>
    </g>
    <g id="text_1">
     <!-- Frame -->
     <g transform="translate(501.020313 214.638437)scale(0.1 -0.1)">
      <defs>
       <path d="M 9.8125 72.90625 
L 51.703125 72.90625 
L 51.703125 64.59375 
L 19.671875 64.59375 
L 19.671875 43.109375 
L 48.578125 43.109375 
L 48.578125 34.8125 
L 19.671875 34.8125 
L 19.671875 0 
L 9.8125 0 
z
" id="DejaVuSans-70"/>
       <path d="M 41.109375 46.296875 
Q 39.59375 47.171875 37.8125 47.578125 
Q 36.03125 48 33.890625 48 
Q 26.265625 48 22.1875 43.046875 
Q 18.109375 38.09375 18.109375 28.8125 
L 18.109375 0 
L 9.078125 0 
L 9.078125 54.6875 
L 18.109375 54.6875 
L 18.109375 46.1875 
Q 20.953125 51.171875 25.484375 53.578125 
Q 30.03125 56 36.53125 56 
Q 37.453125 56 38.578125 55.875 
Q 39.703125 55.765625 41.0625 55.515625 
z
" id="DejaVuSans-114"/>
       <path d="M 34.28125 27.484375 
Q 23.390625 27.484375 19.1875 25 
Q 14.984375 22.515625 14.984375 16.5 
Q 14.984375 11.71875 18.140625 8.90625 
Q 21.296875 6.109375 26.703125 6.109375 
Q 34.1875 6.109375 38.703125 11.40625 
Q 43.21875 16.703125 43.21875 25.484375 
L 43.21875 27.484375 
z
M 52.203125 31.203125 
L 52.203125 0 
L 43.21875 0 
L 43.21875 8.296875 
Q 40.140625 3.328125 35.546875 0.953125 
Q 30.953125 -1.421875 24.3125 -1.421875 
Q 15.921875 -1.421875 10.953125 3.296875 
Q 6 8.015625 6 15.921875 
Q 6 25.140625 12.171875 29.828125 
Q 18.359375 34.515625 30.609375 34.515625 
L 43.21875 34.515625 
L 43.21875 35.40625 
Q 43.21875 41.609375 39.140625 45 
Q 35.0625 48.390625 27.6875 48.390625 
Q 23 48.390625 18.546875 47.265625 
Q 14.109375 46.140625 10.015625 43.890625 
L 10.015625 52.203125 
Q 14.9375 54.109375 19.578125 55.046875 
Q 24.21875 56 28.609375 56 
Q 40.484375 56 46.34375 49.84375 
Q 52.203125 43.703125 52.203125 31.203125 
z
" id="DejaVuSans-97"/>
       <path d="M 52 44.1875 
Q 55.375 50.25 60.0625 53.125 
Q 64.75 56 71.09375 56 
Q 79.640625 56 84.28125 50.015625 
Q 88.921875 44.046875 88.921875 33.015625 
L 88.921875 0 
L 79.890625 0 
L 79.890625 32.71875 
Q 79.890625 40.578125 77.09375 44.375 
Q 74.3125 48.1875 68.609375 48.1875 
Q 61.625 48.1875 57.5625 43.546875 
Q 53.515625 38.921875 53.515625 30.90625 
L 53.515625 0 
L 44.484375 0 
L 44.484375 32.71875 
Q 44.484375 40.625 41.703125 44.40625 
Q 38.921875 48.1875 33.109375 48.1875 
Q 26.21875 48.1875 22.15625 43.53125 
Q 18.109375 38.875 18.109375 30.90625 
L 18.109375 0 
L 9.078125 0 
L 9.078125 54.6875 
L 18.109375 54.6875 
L 18.109375 46.1875 
Q 21.1875 51.21875 25.484375 53.609375 
Q 29.78125 56 35.6875 56 
Q 41.65625 56 45.828125 52.96875 
Q 50 49.953125 52 44.1875 
z
" id="DejaVuSans-109"/>
       <path d="M 56.203125 29.59375 
L 56.203125 25.203125 
L 14.890625 25.203125 
Q 15.484375 15.921875 20.484375 11.0625 
Q 25.484375 6.203125 34.421875 6.203125 
Q 39.59375 6.203125 44.453125 7.46875 
Q 49.3125 8.734375 54.109375 11.28125 
L 54.109375 2.78125 
Q 49.265625 0.734375 44.1875 -0.34375 
Q 39.109375 -1.421875 33.890625 -1.421875 
Q 20.796875 -1.421875 13.15625 6.1875 
Q 5.515625 13.8125 5.515625 26.8125 
Q 5.515625 40.234375 12.765625 48.109375 
Q 20.015625 56 32.328125 56 
Q 43.359375 56 49.78125 48.890625 
Q 56.203125 41.796875 56.203125 29.59375 
z
M 47.21875 32.234375 
Q 47.125 39.59375 43.09375 43.984375 
Q 39.0625 48.390625 32.421875 48.390625 
Q 24.90625 48.390625 20.390625 44.140625 
Q 15.875 39.890625 15.1875 32.171875 
z
" id="DejaVuSans-101"/>
      </defs>
      <use xlink:href="#DejaVuSans-70"/>
      <use x="50.269531" xlink:href="#DejaVuSans-114"/>
      <use x="91.382812" xlink:href="#DejaVuSans-97"/>
      <use x="152.662109" xlink:href="#DejaVuSans-109"/>
      <use x="250.074219" xlink:href="#DejaVuSans-101"/>
     </g>
    </g>
   </g>
   <g id="matplotlib.axis_2">
    <g id="ytick_1">
     <g id="line2d_6">
      <defs>
       <path d="M 0 0 
L -3.5 0 
" id="m7ee6b0961b" style="stroke:#000000;stroke-width:0.8;"/>
      </defs>
      <g>
       <use style="stroke:#000000;stroke-width:0.8;" x="126" xlink:href="#m7ee6b0961b" y="199.340357"/>
      </g>
     </g>
     <g id="text_2">
      <!-- −0.010 -->
      <g transform="translate(81.992188 203.139575)scale(0.1 -0.1)">
       <defs>
        <path d="M 10.59375 35.5 
L 73.1875 35.5 
L 73.1875 27.203125 
L 10.59375 27.203125 
z
" id="DejaVuSans-8722"/>
        <path d="M 31.78125 66.40625 
Q 24.171875 66.40625 20.328125 58.90625 
Q 16.5 51.421875 16.5 36.375 
Q 16.5 21.390625 20.328125 13.890625 
Q 24.171875 6.390625 31.78125 6.390625 
Q 39.453125 6.390625 43.28125 13.890625 
Q 47.125 21.390625 47.125 36.375 
Q 47.125 51.421875 43.28125 58.90625 
Q 39.453125 66.40625 31.78125 66.40625 
z
M 31.78125 74.21875 
Q 44.046875 74.21875 50.515625 64.515625 
Q 56.984375 54.828125 56.984375 36.375 
Q 56.984375 17.96875 50.515625 8.265625 
Q 44.046875 -1.421875 31.78125 -1.421875 
Q 19.53125 -1.421875 13.0625 8.265625 
Q 6.59375 17.96875 6.59375 36.375 
Q 6.59375 54.828125 13.0625 64.515625 
Q 19.53125 74.21875 31.78125 74.21875 
z
" id="DejaVuSans-48"/>
        <path d="M 10.6875 12.40625 
L 21 12.40625 
L 21 0 
L 10.6875 0 
z
" id="DejaVuSans-46"/>
        <path d="M 12.40625 8.296875 
L 28.515625 8.296875 
L 28.515625 63.921875 
L 10.984375 60.40625 
L 10.984375 69.390625 
L 28.421875 72.90625 
L 38.28125 72.90625 
L 38.28125 8.296875 
L 54.390625 8.296875 
L 54.390625 0 
L 12.40625 0 
z
" id="DejaVuSans-49"/>
       </defs>
       <use xlink:href="#DejaVuSans-8722"/>
       <use x="83.789062" xlink:href="#DejaVuSans-48"/>
       <use x="147.412109" xlink:href="#DejaVuSans-46"/>
       <use x="179.199219" xlink:href="#DejaVuSans-48"/>
       <use x="242.822266" xlink:href="#DejaVuSans-49"/>
       <use x="306.445312" xlink:href="#DejaVuSans-48"/>
      </g>
     </g>
    </g>
    <g id="ytick_2">
     <g id="line2d_7">
      <g>
       <use style="stroke:#000000;stroke-width:0.8;" x="126" xlink:href="#m7ee6b0961b" y="167.502046"/>
      </g>
     </g>
     <g id="text_3">
      <!-- −0.005 -->
      <g transform="translate(81.992188 171.301265)scale(0.1 -0.1)">
       <defs>
        <path d="M 10.796875 72.90625 
L 49.515625 72.90625 
L 49.515625 64.59375 
L 19.828125 64.59375 
L 19.828125 46.734375 
Q 21.96875 47.46875 24.109375 47.828125 
Q 26.265625 48.1875 28.421875 48.1875 
Q 40.625 48.1875 47.75 41.5 
Q 54.890625 34.8125 54.890625 23.390625 
Q 54.890625 11.625 47.5625 5.09375 
Q 40.234375 -1.421875 26.90625 -1.421875 
Q 22.3125 -1.421875 17.546875 -0.640625 
Q 12.796875 0.140625 7.71875 1.703125 
L 7.71875 11.625 
Q 12.109375 9.234375 16.796875 8.0625 
Q 21.484375 6.890625 26.703125 6.890625 
Q 35.15625 6.890625 40.078125 11.328125 
Q 45.015625 15.765625 45.015625 23.390625 
Q 45.015625 31 40.078125 35.4375 
Q 35.15625 39.890625 26.703125 39.890625 
Q 22.75 39.890625 18.8125 39.015625 
Q 14.890625 38.140625 10.796875 36.28125 
z
" id="DejaVuSans-53"/>
       </defs>
       <use xlink:href="#DejaVuSans-8722"/>
       <use x="83.789062" xlink:href="#DejaVuSans-48"/>
       <use x="147.412109" xlink:href="#DejaVuSans-46"/>
       <use x="179.199219" xlink:href="#DejaVuSans-48"/>
       <use x="242.822266" xlink:href="#DejaVuSans-48"/>
       <use x="306.445312" xlink:href="#DejaVuSans-53"/>
      </g>
     </g>
    </g>
    <g id="ytick_3">
     <g id="line2d_8">
      <g>
       <use style="stroke:#000000;stroke-width:0.8;" x="126" xlink:href="#m7ee6b0961b" y="135.663735"/>
      </g>
     </g>
     <g id="text_4">
      <!-- 0.000 -->
      <g transform="translate(90.371875 139.462954)scale(0.1 -0.1)">
       <use xlink:href="#DejaVuSans-48"/>
       <use x="63.623047" xlink:href="#DejaVuSans-46"/>
       <use x="95.410156" xlink:href="#DejaVuSans-48"/>
       <use x="159.033203" xlink:href="#DejaVuSans-48"/>
       <use x="222.65625" xlink:href="#DejaVuSans-48"/>
      </g>
     </g>
    </g>
    <g id="ytick_4">
     <g id="line2d_9">
      <g>
       <use style="stroke:#000000;stroke-width:0.8;" x="126" xlink:href="#m7ee6b0961b" y="103.825425"/>
      </g>
     </g>
     <g id="text_5">
      <!-- 0.005 -->
      <g transform="translate(90.371875 107.624643)scale(0.1 -0.1)">
       <use xlink:href="#DejaVuSans-48"/>
       <use x="63.623047" xlink:href="#DejaVuSans-46"/>
       <use x="95.410156" xlink:href="#DejaVuSans-48"/>
       <use x="159.033203" xlink:href="#DejaVuSans-48"/>
       <use x="222.65625" xlink:href="#DejaVuSans-53"/>
      </g>
     </g>
    </g>
    <g id="ytick_5">
     <g id="line2d_10">
      <g>
       <use style="stroke:#000000;stroke-width:0.8;" x="126" xlink:href="#m7ee6b0961b" y="71.987114"/>
      </g>
     </g>
     <g id="text_6">
      <!-- 0.010 -->
      <g transform="translate(90.371875 75.786333)scale(0.1 -0.1)">
       <use xlink:href="#DejaVuSans-48"/>
       <use x="63.623047" xlink:href="#DejaVuSans-46"/>
       <use x="95.410156" xlink:href="#DejaVuSans-48"/>
       <use x="159.033203" xlink:href="#DejaVuSans-49"/>
       <use x="222.65625" xlink:href="#DejaVuSans-48"/>
      </g>
     </g>
    </g>
    <g id="text_7">
     <!-- Resonance -->
     <g transform="translate(75.9125 154.657188)rotate(-90)scale(0.1 -0.1)">
      <defs>
       <path d="M 44.390625 34.1875 
Q 47.5625 33.109375 50.5625 29.59375 
Q 53.5625 26.078125 56.59375 19.921875 
L 66.609375 0 
L 56 0 
L 46.6875 18.703125 
Q 43.0625 26.03125 39.671875 28.421875 
Q 36.28125 30.8125 30.421875 30.8125 
L 19.671875 30.8125 
L 19.671875 0 
L 9.8125 0 
L 9.8125 72.90625 
L 32.078125 72.90625 
Q 44.578125 72.90625 50.734375 67.671875 
Q 56.890625 62.453125 56.890625 51.90625 
Q 56.890625 45.015625 53.6875 40.46875 
Q 50.484375 35.9375 44.390625 34.1875 
z
M 19.671875 64.796875 
L 19.671875 38.921875 
L 32.078125 38.921875 
Q 39.203125 38.921875 42.84375 42.21875 
Q 46.484375 45.515625 46.484375 51.90625 
Q 46.484375 58.296875 42.84375 61.546875 
Q 39.203125 64.796875 32.078125 64.796875 
z
" id="DejaVuSans-82"/>
       <path d="M 44.28125 53.078125 
L 44.28125 44.578125 
Q 40.484375 46.53125 36.375 47.5 
Q 32.28125 48.484375 27.875 48.484375 
Q 21.1875 48.484375 17.84375 46.4375 
Q 14.5 44.390625 14.5 40.28125 
Q 14.5 37.15625 16.890625 35.375 
Q 19.28125 33.59375 26.515625 31.984375 
L 29.59375 31.296875 
Q 39.15625 29.25 43.1875 25.515625 
Q 47.21875 21.78125 47.21875 15.09375 
Q 47.21875 7.46875 41.1875 3.015625 
Q 35.15625 -1.421875 24.609375 -1.421875 
Q 20.21875 -1.421875 15.453125 -0.5625 
Q 10.6875 0.296875 5.421875 2 
L 5.421875 11.28125 
Q 10.40625 8.6875 15.234375 7.390625 
Q 20.0625 6.109375 24.8125 6.109375 
Q 31.15625 6.109375 34.5625 8.28125 
Q 37.984375 10.453125 37.984375 14.40625 
Q 37.984375 18.0625 35.515625 20.015625 
Q 33.0625 21.96875 24.703125 23.78125 
L 21.578125 24.515625 
Q 13.234375 26.265625 9.515625 29.90625 
Q 5.8125 33.546875 5.8125 39.890625 
Q 5.8125 47.609375 11.28125 51.796875 
Q 16.75 56 26.8125 56 
Q 31.78125 56 36.171875 55.265625 
Q 40.578125 54.546875 44.28125 53.078125 
z
" id="DejaVuSans-115"/>
       <path d="M 30.609375 48.390625 
Q 23.390625 48.390625 19.1875 42.75 
Q 14.984375 37.109375 14.984375 27.296875 
Q 14.984375 17.484375 19.15625 11.84375 
Q 23.34375 6.203125 30.609375 6.203125 
Q 37.796875 6.203125 41.984375 11.859375 
Q 46.1875 17.53125 46.1875 27.296875 
Q 46.1875 37.015625 41.984375 42.703125 
Q 37.796875 48.390625 30.609375 48.390625 
z
M 30.609375 56 
Q 42.328125 56 49.015625 48.375 
Q 55.71875 40.765625 55.71875 27.296875 
Q 55.71875 13.875 49.015625 6.21875 
Q 42.328125 -1.421875 30.609375 -1.421875 
Q 18.84375 -1.421875 12.171875 6.21875 
Q 5.515625 13.875 5.515625 27.296875 
Q 5.515625 40.765625 12.171875 48.375 
Q 18.84375 56 30.609375 56 
z
" id="DejaVuSans-111"/>
       <path d="M 54.890625 33.015625 
L 54.890625 0 
L 45.90625 0 
L 45.90625 32.71875 
Q 45.90625 40.484375 42.875 44.328125 
Q 39.84375 48.1875 33.796875 48.1875 
Q 26.515625 48.1875 22.3125 43.546875 
Q 18.109375 38.921875 18.109375 30.90625 
L 18.109375 0 
L 9.078125 0 
L 9.078125 54.6875 
L 18.109375 54.6875 
L 18.109375 46.1875 
Q 21.34375 51.125 25.703125 53.5625 
Q 30.078125 56 35.796875 56 
Q 45.21875 56 50.046875 50.171875 
Q 54.890625 44.34375 54.890625 33.015625 
z
" id="DejaVuSans-110"/>
       <path d="M 48.78125 52.59375 
L 48.78125 44.1875 
Q 44.96875 46.296875 41.140625 47.34375 
Q 37.3125 48.390625 33.40625 48.390625 
Q 24.65625 48.390625 19.8125 42.84375 
Q 14.984375 37.3125 14.984375 27.296875 
Q 14.984375 17.28125 19.8125 11.734375 
Q 24.65625 6.203125 33.40625 6.203125 
Q 37.3125 6.203125 41.140625 7.25 
Q 44.96875 8.296875 48.78125 10.40625 
L 48.78125 2.09375 
Q 45.015625 0.34375 40.984375 -0.53125 
Q 36.96875 -1.421875 32.421875 -1.421875 
Q 20.0625 -1.421875 12.78125 6.34375 
Q 5.515625 14.109375 5.515625 27.296875 
Q 5.515625 40.671875 12.859375 48.328125 
Q 20.21875 56 33.015625 56 
Q 37.15625 56 41.109375 55.140625 
Q 45.0625 54.296875 48.78125 52.59375 
z
" id="DejaVuSans-99"/>
      </defs>
      <use xlink:href="#DejaVuSans-82"/>
      <use x="64.982422" xlink:href="#DejaVuSans-101"/>
      <use x="126.505859" xlink:href="#DejaVuSans-115"/>
      <use x="178.605469" xlink:href="#DejaVuSans-111"/>
      <use x="239.787109" xlink:href="#DejaVuSans-110"/>
      <use x="303.166016" xlink:href="#DejaVuSans-97"/>
      <use x="364.445312" xlink:href="#DejaVuSans-110"/>
      <use x="427.824219" xlink:href="#DejaVuSans-99"/>
      <use x="482.804688" xlink:href="#DejaVuSans-101"/>
     </g>
    </g>
   </g>
   <g id="line2d_11">
    <path clip-path="url(#pfa92bae0cf)" d="M 161.509091 135.663735 
L 163.180107 135.663735 
L 164.015615 120.532853 
L 164.851123 127.727702 
L 165.686631 142.54634 
L 166.522139 126.210045 
L 167.357647 129.674669 
L 168.193155 135.702242 
L 169.028663 145.151391 
L 169.864171 142.201893 
L 170.699679 131.866587 
L 171.535187 144.417357 
L 172.370695 131.980487 
L 173.206203 129.269687 
L 174.877219 144.297507 
L 175.712727 131.532542 
L 176.548235 129.232228 
L 177.383743 142.296298 
L 178.219251 134.218151 
L 179.054759 127.719924 
L 179.890267 132.37909 
L 180.725775 146.860438 
L 182.396791 134.148549 
L 183.232299 135.730112 
L 184.067807 136.882238 
L 184.903316 122.256562 
L 185.738824 130.239191 
L 186.574332 143.283693 
L 188.245348 134.384907 
L 189.080856 137.484861 
L 189.916364 131.532098 
L 190.751872 128.194084 
L 191.58738 136.748554 
L 192.422888 143.773877 
L 193.258396 143.418302 
L 194.093904 128.604968 
L 194.929412 130.879948 
L 195.76492 134.948299 
L 196.600428 133.244799 
L 197.435936 132.674586 
L 198.271444 137.755032 
L 199.106952 137.268135 
L 199.94246 139.029295 
L 200.777968 137.340532 
L 201.613476 129.884865 
L 202.448984 132.450007 
L 204.12 142.686796 
L 204.955508 138.0444 
L 205.791016 136.455587 
L 206.626524 147.228765 
L 207.462032 135.386609 
L 208.29754 121.277425 
L 209.968556 139.884894 
L 210.804064 137.301944 
L 211.639572 131.974962 
L 212.47508 137.829323 
L 213.310588 131.558059 
L 214.146096 130.11011 
L 215.817112 148.139384 
L 217.488128 134.764167 
L 218.323636 144.653094 
L 219.159144 122.566815 
L 219.994652 123.144617 
L 220.83016 134.656196 
L 221.665668 143.907543 
L 222.501176 136.353498 
L 223.336684 130.002281 
L 224.172193 137.141935 
L 225.007701 131.452844 
L 225.843209 132.998996 
L 227.514225 144.888604 
L 228.349733 136.698042 
L 229.185241 132.931371 
L 230.020749 139.926167 
L 230.856257 130.291708 
L 231.691765 128.036621 
L 232.527273 135.709617 
L 233.362781 140.22183 
L 234.198289 139.666283 
L 235.033797 136.583532 
L 235.869305 139.780858 
L 236.704813 132.30972 
L 237.540321 126.649603 
L 238.375829 132.433663 
L 239.211337 143.033196 
L 240.046845 137.350014 
L 240.882353 135.35245 
L 241.717861 140.449207 
L 242.553369 133.748269 
L 243.388877 131.071869 
L 244.224385 131.763242 
L 245.059893 152.108097 
L 245.895401 153.474064 
L 246.730909 138.485886 
L 247.566417 113.466361 
L 248.401925 136.153427 
L 249.237433 140.791633 
L 250.072941 122.683895 
L 250.908449 127.841001 
L 252.579465 144.214055 
L 253.414973 148.604932 
L 254.250481 150.182636 
L 255.085989 117.461762 
L 256.757005 138.626046 
L 257.592513 146.921508 
L 258.428021 127.966953 
L 259.263529 134.692433 
L 260.099037 134.269721 
L 260.934545 127.821995 
L 261.770053 137.730344 
L 262.605561 143.037078 
L 263.44107 130.756354 
L 264.276578 133.452354 
L 265.112086 135.56995 
L 265.947594 135.889889 
L 266.783102 128.847581 
L 267.61861 133.911998 
L 268.454118 135.802042 
L 269.289626 137.232122 
L 270.125134 134.529775 
L 270.960642 135.913487 
L 271.79615 137.534045 
L 272.631658 133.817128 
L 273.467166 144.968756 
L 274.302674 146.192535 
L 275.138182 136.176645 
L 275.97369 134.381566 
L 276.809198 142.109141 
L 278.480214 116.028749 
L 279.315722 131.297407 
L 280.15123 137.880022 
L 280.986738 139.260419 
L 281.822246 133.875367 
L 282.657754 132.717206 
L 283.493262 136.191464 
L 284.32877 135.40661 
L 285.164278 136.657236 
L 285.999786 137.359094 
L 286.835294 143.706876 
L 287.670802 143.175925 
L 288.50631 136.772837 
L 289.341818 134.496667 
L 290.177326 137.835468 
L 291.012834 126.406964 
L 291.848342 131.427252 
L 292.68385 142.154195 
L 293.519358 132.530214 
L 294.354866 140.248551 
L 295.190374 163.439074 
L 296.025882 145.612571 
L 296.86139 133.963058 
L 297.696898 120.153599 
L 298.532406 151.165521 
L 299.367914 137.807488 
L 300.203422 105.820808 
L 301.03893 116.709264 
L 301.874439 130.94948 
L 302.709947 137.581558 
L 303.545455 146.067595 
L 304.380963 142.379219 
L 305.216471 128.576978 
L 306.051979 138.537845 
L 306.887487 140.379625 
L 307.722995 137.349713 
L 308.558503 129.960269 
L 309.394011 143.666434 
L 310.229519 139.550356 
L 311.065027 124.777174 
L 312.736043 131.366905 
L 313.571551 131.794047 
L 314.407059 133.320872 
L 315.242567 139.38274 
L 316.078075 138.731007 
L 316.913583 134.845531 
L 317.749091 133.868594 
L 318.584599 134.637491 
L 319.420107 138.831951 
L 320.255615 147.121782 
L 321.926631 129.407769 
L 322.762139 129.217876 
L 323.597647 138.150561 
L 324.433155 130.188879 
L 325.268663 132.444478 
L 326.104171 133.023098 
L 326.939679 135.625545 
L 327.775187 135.37815 
L 328.610695 137.473456 
L 329.446203 136.210169 
L 330.281711 138.493636 
L 331.117219 137.837205 
L 331.952727 138.916245 
L 332.788235 135.694576 
L 333.623743 135.791878 
L 334.459251 132.877905 
L 335.294759 132.710038 
L 336.130267 135.042911 
L 336.965775 134.941901 
L 337.801283 135.125632 
L 338.636791 136.99776 
L 339.472299 136.908948 
L 340.307807 137.852053 
L 341.143316 136.116685 
L 341.978824 132.006306 
L 342.814332 130.840154 
L 343.64984 136.327055 
L 344.485348 139.596152 
L 345.320856 137.601035 
L 346.156364 133.093407 
L 346.991872 134.20194 
L 347.82738 134.096386 
L 348.662888 135.048148 
L 349.498396 136.956822 
L 350.333904 137.828298 
L 351.169412 138.324001 
L 352.00492 136.90626 
L 352.840428 142.427013 
L 353.675936 135.481803 
L 354.511444 132.333645 
L 355.346952 138.193726 
L 356.18246 139.741585 
L 357.017968 134.831044 
L 357.853476 128.433073 
L 358.688984 135.720618 
L 359.524492 133.40258 
L 360.36 130.11158 
L 361.195508 142.768804 
L 362.031016 149.770418 
L 362.866524 148.487541 
L 363.702032 132.031228 
L 364.53754 139.628896 
L 365.373048 123.56967 
L 366.208556 123.493717 
L 367.044064 137.218844 
L 367.879572 140.454925 
L 368.71508 147.327125 
L 369.550588 134.998457 
L 370.386096 147.728994 
L 371.221604 122.831446 
L 372.057112 114.600388 
L 372.89262 130.855318 
L 373.728128 140.649643 
L 374.563636 138.882221 
L 375.399144 135.127558 
L 376.234652 143.527184 
L 377.07016 132.008394 
L 377.905668 132.092317 
L 378.741176 135.396472 
L 379.576684 136.866547 
L 380.412193 137.087767 
L 381.247701 130.331192 
L 382.083209 137.340932 
L 382.918717 133.094893 
L 383.754225 129.779095 
L 384.589733 134.325812 
L 385.425241 139.683625 
L 386.260749 140.615548 
L 387.096257 137.072618 
L 387.931765 142.485755 
L 388.767273 131.603421 
L 389.602781 130.821997 
L 390.438289 138.521853 
L 391.273797 141.555354 
L 392.109305 134.542673 
L 392.944813 130.624393 
L 393.780321 142.428177 
L 394.615829 133.97066 
L 395.451337 131.444963 
L 396.286845 140.627554 
L 397.122353 143.54192 
L 397.957861 141.062034 
L 398.793369 125.505524 
L 400.464385 128.135317 
L 401.299893 132.841365 
L 402.135401 136.824247 
L 402.970909 138.802705 
L 403.806417 140.367161 
L 404.641925 142.969614 
L 405.477433 146.972826 
L 406.312941 129.574363 
L 407.148449 127.480562 
L 407.983957 134.720502 
L 408.819465 146.418906 
L 409.654973 137.033524 
L 410.490481 134.327766 
L 411.325989 144.960916 
L 412.161497 134.483485 
L 412.997005 115.182282 
L 413.832513 134.114027 
L 414.668021 140.200504 
L 415.503529 140.458951 
L 416.339037 132.434933 
L 417.174545 138.583615 
L 418.010053 129.785549 
L 418.845561 134.832809 
L 419.68107 135.434137 
L 420.516578 145.741536 
L 421.352086 142.053901 
L 422.187594 130.136294 
L 423.023102 135.447071 
L 423.85861 127.82427 
L 424.694118 126.571007 
L 425.529626 134.046246 
L 426.365134 142.693329 
L 427.200642 139.391201 
L 428.03615 137.799578 
L 428.871658 141.419128 
L 429.707166 125.856916 
L 430.542674 125.749656 
L 431.378182 138.080237 
L 432.21369 145.775089 
L 433.049198 145.038008 
L 433.884706 127.207415 
L 434.720214 137.872267 
L 435.555722 128.148089 
L 436.39123 128.719996 
L 437.226738 133.098833 
L 438.062246 140.955544 
L 438.897754 138.234967 
L 439.733262 139.930814 
L 440.56877 144.626534 
L 441.404278 125.270648 
L 442.239786 126.095824 
L 443.075294 133.341037 
L 443.910802 139.487226 
L 444.74631 141.192419 
L 445.581818 135.008198 
L 446.417326 137.238541 
L 447.252834 136.183543 
L 448.088342 132.025462 
L 448.92385 134.988867 
L 449.759358 144.900098 
L 450.594866 134.613669 
L 451.430374 131.270105 
L 452.265882 138.826552 
L 453.10139 136.136074 
L 453.936898 129.226822 
L 454.772406 133.001901 
L 455.607914 140.040795 
L 456.443422 137.066221 
L 457.27893 182.236637 
L 458.114439 196.167273 
L 458.949947 167.427696 
L 459.785455 117.731599 
L 460.620963 147.734149 
L 461.456471 91.540083 
L 462.291979 58.712727 
L 463.127487 147.35726 
L 463.962995 176.291403 
L 464.798503 157.552198 
L 465.634011 125.328933 
L 466.469519 133.34575 
L 467.305027 96.651122 
L 468.140535 95.889417 
L 468.976043 132.043041 
L 469.811551 138.632126 
L 470.647059 132.71841 
L 471.482567 135.091223 
L 472.318075 138.863794 
L 473.153583 141.514957 
L 473.989091 142.564632 
L 474.824599 136.443 
L 475.660107 142.363272 
L 477.331123 122.454363 
L 478.166631 132.937387 
L 479.002139 135.40983 
L 479.837647 142.925172 
L 481.508663 136.054394 
L 482.344171 130.488626 
L 483.179679 131.321493 
L 484.015187 130.646891 
L 484.850695 138.293441 
L 485.686203 137.370931 
L 486.521711 136.688301 
L 487.357219 134.383362 
L 488.192727 137.926223 
L 489.028235 140.29227 
L 489.863743 138.614347 
L 490.699251 137.411363 
L 491.534759 131.145747 
L 492.370267 131.937899 
L 493.205775 134.374329 
L 494.041283 131.704087 
L 494.876791 132.085148 
L 495.712299 134.835281 
L 496.547807 139.087825 
L 497.383316 138.267865 
L 498.218824 135.653944 
L 499.054332 137.613067 
L 499.88984 138.605986 
L 500.725348 136.308795 
L 501.560856 134.550109 
L 502.396364 133.664541 
L 503.231872 134.71778 
L 504.06738 137.055524 
L 504.902888 136.126051 
L 505.738396 135.778735 
L 506.573904 139.809703 
L 507.409412 137.27833 
L 508.24492 135.417377 
L 509.080428 134.087818 
L 509.915936 132.394224 
L 510.751444 133.053556 
L 511.586952 134.57496 
L 512.42246 135.239878 
L 513.257968 137.149506 
L 514.093476 133.246036 
L 514.928984 137.067098 
L 515.764492 134.345641 
L 516.6 135.205509 
L 517.435508 135.274229 
L 518.271016 134.55925 
L 519.106524 138.585671 
L 519.942032 139.06043 
L 520.77754 133.420602 
L 521.613048 137.174983 
L 522.448556 143.529115 
L 523.284064 139.415703 
L 524.119572 128.308158 
L 524.95508 129.50992 
L 525.790588 132.433033 
L 526.626096 136.521241 
L 527.461604 137.83214 
L 528.297112 133.870253 
L 529.13262 134.944697 
L 529.968128 137.856474 
L 530.803636 136.821404 
L 531.639144 136.313665 
L 532.474652 134.593123 
L 533.31016 130.303411 
L 534.145668 133.83181 
L 535.816684 135.627173 
L 536.652193 137.272283 
L 537.487701 142.502001 
L 538.323209 140.837028 
L 539.158717 134.381432 
L 539.994225 135.224451 
L 540.829733 130.159376 
L 541.665241 133.744859 
L 542.500749 133.066809 
L 543.336257 139.691269 
L 544.171765 140.284946 
L 545.007273 135.628232 
L 545.842781 138.210971 
L 546.678289 133.336227 
L 547.513797 139.339009 
L 548.349305 139.801831 
L 549.184813 128.170434 
L 550.020321 129.889356 
L 551.691337 140.611683 
L 552.526845 138.016342 
L 553.362353 133.535326 
L 554.197861 137.013743 
L 555.033369 132.399683 
L 555.868877 132.953246 
L 556.704385 135.130414 
L 557.539893 135.858015 
L 558.375401 133.822869 
L 559.210909 135.695678 
L 560.046417 138.070866 
L 560.881925 147.214404 
L 561.717433 152.965881 
L 562.552941 137.192431 
L 563.388449 130.376468 
L 564.223957 125.979522 
L 565.059465 129.011932 
L 565.894973 131.004218 
L 566.730481 142.571629 
L 567.565989 137.540626 
L 568.401497 130.226519 
L 569.237005 137.795864 
L 570.072513 136.47162 
L 570.908021 131.258445 
L 571.743529 137.108026 
L 572.579037 150.435961 
L 573.414545 131.057472 
L 574.250053 126.845982 
L 575.085561 134.649108 
L 575.92107 133.549333 
L 576.756578 131.121989 
L 577.592086 141.107869 
L 578.427594 144.702806 
L 579.263102 135.877979 
L 580.09861 130.303391 
L 580.934118 140.634195 
L 581.769626 127.211202 
L 582.605134 132.221921 
L 583.440642 141.951593 
L 585.111658 130.128337 
L 585.947166 134.698517 
L 586.782674 146.022387 
L 587.618182 134.859349 
L 588.45369 126.641032 
L 589.289198 134.667472 
L 590.124706 147.936226 
L 591.795722 125.352581 
L 592.63123 133.351507 
L 593.466738 136.879433 
L 594.302246 132.897441 
L 595.137754 134.326216 
L 595.973262 139.068467 
L 597.644278 133.922307 
L 598.479786 139.852949 
L 599.315294 132.144326 
L 600.150802 131.650708 
L 600.98631 134.883529 
L 601.821818 141.781998 
L 602.657326 140.545215 
L 603.492834 134.247641 
L 604.328342 139.612308 
L 605.16385 131.148133 
L 605.999358 129.681337 
L 606.834866 136.295567 
L 607.670374 138.369603 
L 608.505882 137.914642 
L 609.34139 129.995918 
L 610.176898 137.283613 
L 611.012406 137.049941 
L 612.683422 133.666548 
L 613.51893 137.467234 
L 614.354439 135.821999 
L 615.189947 136.779684 
L 616.025455 135.755274 
L 616.860963 130.097661 
L 617.696471 132.3982 
L 618.531979 137.819626 
L 619.367487 139.498444 
L 620.202995 136.500817 
L 621.038503 131.918138 
L 621.874011 134.339035 
L 622.709519 137.407893 
L 623.545027 133.503901 
L 624.380535 138.778917 
L 625.216043 132.171459 
L 626.051551 137.623198 
L 626.887059 133.83418 
L 627.722567 139.043941 
L 628.558075 137.162754 
L 629.393583 134.454108 
L 630.229091 135.815143 
L 631.064599 140.408965 
L 631.900107 136.878522 
L 633.571123 131.208665 
L 634.406631 134.578449 
L 635.242139 134.258551 
L 636.077647 136.181133 
L 636.913155 137.027741 
L 637.748663 135.904969 
L 638.584171 140.474927 
L 639.419679 133.781269 
L 640.255187 133.315041 
L 641.090695 136.018607 
L 641.926203 137.600239 
L 642.761711 135.117808 
L 643.597219 136.419404 
L 644.432727 134.391421 
L 645.268235 138.736837 
L 646.103743 134.318735 
L 646.939251 133.641108 
L 648.610267 138.790742 
L 649.445775 134.306425 
L 650.281283 132.670796 
L 651.116791 137.767871 
L 651.952299 133.41344 
L 652.787807 132.398915 
L 653.623316 134.690999 
L 654.458824 139.87064 
L 655.294332 139.099646 
L 656.12984 134.696576 
L 656.965348 138.096177 
L 657.800856 133.333727 
L 658.636364 134.958028 
L 659.471872 133.803113 
L 660.30738 134.558723 
L 661.142888 136.320066 
L 661.978396 138.397578 
L 662.813904 144.640756 
L 663.649412 128.021121 
L 664.48492 130.811783 
L 665.320428 136.677068 
L 666.155936 139.620284 
L 666.991444 141.179276 
L 667.826952 135.735823 
L 668.66246 143.779565 
L 669.497968 127.064076 
L 670.333476 126.222501 
L 672.004492 142.047437 
L 672.84 139.981846 
L 673.675508 136.951795 
L 674.511016 138.937473 
L 675.346524 129.828086 
L 676.182032 132.459901 
L 677.01754 141.238371 
L 677.853048 132.970788 
L 678.688556 135.504575 
L 679.524064 133.510741 
L 680.359572 141.366984 
L 681.19508 129.940639 
L 682.030588 131.137289 
L 683.701604 138.823431 
L 684.537112 136.164253 
L 685.37262 131.882969 
L 686.208128 135.905817 
L 687.043636 135.92612 
L 687.879144 136.796014 
L 688.714652 137.497382 
L 689.55016 142.798792 
L 690.385668 138.454902 
L 691.221176 136.015357 
L 692.056684 139.8251 
L 693.727701 121.715611 
L 694.563209 135.306514 
L 695.398717 138.538502 
L 696.234225 137.992376 
L 697.069733 137.952877 
L 697.905241 141.872425 
L 698.740749 143.570194 
L 699.576257 137.996845 
L 700.411765 128.374161 
L 701.247273 130.914763 
L 702.082781 132.36492 
L 702.918289 133.205487 
L 703.753797 131.234598 
L 704.589305 135.690657 
L 705.424813 136.522241 
L 706.260321 135.725708 
L 707.095829 137.972971 
L 707.931337 142.515286 
L 708.766845 136.803395 
L 709.602353 139.60114 
L 710.437861 137.253037 
L 711.273369 128.112098 
L 712.108877 128.819682 
L 712.944385 131.998948 
L 713.779893 136.101304 
L 714.615401 135.266071 
L 715.450909 139.41992 
L 716.286417 134.218008 
L 717.121925 131.774583 
L 717.957433 137.985255 
L 718.792941 139.274882 
L 719.628449 137.212069 
L 720.463957 136.104288 
L 721.299465 146.485903 
L 722.134973 133.217168 
L 722.970481 131.786302 
L 723.805989 126.314259 
L 724.641497 139.949008 
L 726.312513 133.787788 
L 727.148021 136.789914 
L 727.983529 137.821685 
L 728.819037 130.06367 
L 729.654545 136.036809 
L 730.490053 138.358898 
L 731.325561 138.841274 
L 732.16107 132.431217 
L 732.996578 136.023344 
L 733.832086 131.865793 
L 734.667594 132.271922 
L 735.503102 135.937227 
L 736.33861 139.056902 
L 737.174118 140.343369 
L 738.009626 143.153307 
L 738.845134 147.277017 
L 739.680642 124.645171 
L 740.51615 122.636751 
L 741.351658 133.779841 
L 742.187166 139.799021 
L 743.022674 135.10185 
L 743.858182 137.933528 
L 744.69369 147.691756 
L 745.529198 136.22812 
L 746.364706 134.726358 
L 747.200214 127.555558 
L 748.035722 135.275829 
L 748.87123 131.783065 
L 749.706738 134.341427 
L 750.542246 134.798115 
L 751.377754 133.681948 
L 752.213262 135.112934 
L 753.884278 140.755887 
L 754.719786 135.962182 
L 755.555294 133.998317 
L 756.390802 137.480348 
L 757.22631 138.34318 
L 758.061818 133.694581 
L 758.897326 133.013538 
L 759.732834 129.95164 
L 760.568342 136.249661 
L 761.40385 134.272236 
L 762.239358 140.547043 
L 763.074866 169.766754 
L 763.910374 191.088289 
L 764.745882 140.567664 
L 765.58139 112.201042 
L 766.416898 138.509596 
L 767.252406 118.872509 
L 768.087914 91.727515 
L 768.923422 148.845047 
L 769.75893 170.28261 
L 770.594439 167.61607 
L 771.429947 115.083393 
L 772.265455 124.828349 
L 773.100963 108.010326 
L 773.936471 117.938752 
L 774.771979 146.386906 
L 775.607487 139.785197 
L 776.442995 117.749011 
L 777.278503 126.778285 
L 778.114011 134.438288 
L 778.949519 138.54452 
L 779.785027 143.916584 
L 780.620535 125.769414 
L 781.456043 128.023055 
L 782.291551 134.426827 
L 783.127059 146.786865 
L 783.962567 134.930553 
L 784.798075 128.504913 
L 785.633583 134.364365 
L 786.469091 135.038952 
L 787.304599 133.669379 
L 788.140107 134.290964 
L 788.975615 145.566753 
L 789.811123 147.871908 
L 790.646631 138.029696 
L 791.482139 130.089128 
L 792.317647 132.286932 
L 793.153155 132.967977 
L 793.988663 127.320376 
L 794.824171 139.383112 
L 795.659679 136.772663 
L 796.495187 137.965476 
L 797.330695 137.77063 
L 798.166203 129.111742 
L 799.001711 129.461842 
L 800.672727 139.294553 
L 802.343743 134.430099 
L 803.179251 139.142516 
L 804.014759 133.235194 
L 804.850267 134.348887 
L 805.685775 137.010311 
L 806.521283 138.162063 
L 807.356791 136.565134 
L 808.192299 130.635238 
L 809.027807 137.240087 
L 809.863316 133.20277 
L 811.534332 133.93157 
L 812.36984 137.920121 
L 813.205348 137.377497 
L 814.876364 139.185609 
L 815.711872 132.855084 
L 816.54738 131.956932 
L 817.382888 139.582329 
L 819.889412 133.613303 
L 820.72492 137.074338 
L 821.560428 133.120698 
L 822.395936 131.080653 
L 824.066952 140.849899 
L 824.90246 136.914926 
L 825.737968 135.524414 
L 826.573476 139.778559 
L 827.408984 133.471266 
L 828.244492 136.43286 
L 829.08 144.933867 
L 829.915508 141.421556 
L 830.751016 131.45584 
L 831.586524 127.265569 
L 832.422032 135.020692 
L 833.25754 128.907634 
L 834.093048 131.444915 
L 834.928556 137.077798 
L 835.764064 140.42292 
L 836.599572 137.199817 
L 837.43508 137.847259 
L 838.270588 141.510862 
L 839.106096 132.832155 
L 839.941604 129.099607 
L 840.777112 133.555655 
L 842.448128 147.210956 
L 844.119144 156.801467 
L 844.954652 124.130373 
L 845.79016 127.167213 
L 846.625668 127.616779 
L 847.461176 113.726716 
L 848.296684 132.309469 
L 849.967701 139.143628 
L 850.803209 140.670579 
L 851.638717 130.856199 
L 852.474225 130.929668 
L 853.309733 138.674132 
L 854.145241 140.641891 
L 854.980749 133.217114 
L 855.816257 142.39993 
L 856.651765 140.786664 
L 857.487273 131.395702 
L 858.322781 134.1414 
L 859.158289 142.234507 
L 859.993797 133.744697 
L 860.829305 129.054062 
L 861.664813 136.85253 
L 862.500321 127.858992 
L 863.335829 129.752043 
L 864.171337 134.055742 
L 865.006845 134.844425 
L 865.842353 137.636398 
L 866.677861 137.02808 
L 867.513369 139.67741 
L 868.348877 137.168376 
L 869.184385 131.934113 
L 870.019893 135.663735 
L 871.690909 135.663735 
L 871.690909 135.663735 
" style="fill:none;stroke:#1f77b4;stroke-linecap:square;stroke-width:1.5;"/>
   </g>
   <g id="line2d_12">
    <path clip-path="url(#pfa92bae0cf)" d="M 161.509091 135.663735 
L 163.180107 135.663735 
L 164.015615 126.420175 
L 164.851123 137.639353 
L 165.686631 138.802987 
L 166.522139 134.38306 
L 167.357647 130.730419 
L 168.193155 134.82976 
L 169.028663 136.604282 
L 169.864171 137.917455 
L 170.699679 134.444632 
L 171.535187 135.580302 
L 172.370695 134.385836 
L 174.877219 136.580416 
L 175.712727 136.055586 
L 176.548235 136.69923 
L 177.383743 134.487607 
L 178.219251 134.902466 
L 179.054759 137.524596 
L 179.890267 134.61263 
L 180.725775 137.807246 
L 181.561283 135.809398 
L 182.396791 136.081461 
L 183.232299 136.748957 
L 184.067807 135.442635 
L 184.903316 133.40875 
L 185.738824 134.022303 
L 186.574332 139.592138 
L 187.40984 134.644512 
L 188.245348 133.687332 
L 189.080856 135.199332 
L 189.916364 135.030779 
L 190.751872 135.303051 
L 191.58738 136.769116 
L 192.422888 139.531344 
L 193.258396 144.619264 
L 194.093904 132.540627 
L 194.929412 129.735664 
L 195.76492 133.090318 
L 196.600428 135.198399 
L 197.435936 133.138981 
L 198.271444 135.221813 
L 199.94246 136.534909 
L 200.777968 136.40034 
L 201.613476 134.794635 
L 202.448984 135.30595 
L 203.284492 136.577639 
L 204.12 136.393468 
L 204.955508 135.747276 
L 205.791016 137.212285 
L 206.626524 140.812379 
L 207.462032 139.577013 
L 208.29754 128.737642 
L 209.968556 134.154815 
L 210.804064 135.980636 
L 211.639572 135.69633 
L 212.47508 136.944511 
L 213.310588 134.696912 
L 214.146096 136.214592 
L 215.817112 144.222844 
L 216.65262 141.041457 
L 217.488128 131.348188 
L 218.323636 139.935679 
L 219.159144 126.120748 
L 219.994652 129.707921 
L 221.665668 141.609646 
L 222.501176 133.28945 
L 223.336684 130.885264 
L 224.172193 136.204235 
L 225.007701 134.932886 
L 225.843209 136.579119 
L 226.678717 135.608427 
L 227.514225 137.341592 
L 229.185241 133.733977 
L 230.020749 135.665209 
L 230.856257 135.17427 
L 231.691765 134.149365 
L 232.527273 135.455797 
L 233.362781 135.85393 
L 234.198289 137.556775 
L 235.033797 138.637143 
L 235.869305 134.126664 
L 236.704813 134.709456 
L 237.540321 136.517672 
L 238.375829 132.863931 
L 239.211337 134.538171 
L 240.046845 135.376147 
L 240.882353 135.763964 
L 241.717861 137.707789 
L 242.553369 137.044819 
L 243.388877 137.239674 
L 244.224385 133.15368 
L 245.059893 141.401408 
L 246.730909 140.06823 
L 247.566417 128.526543 
L 248.401925 137.82278 
L 249.237433 138.649325 
L 250.072941 128.021934 
L 250.908449 132.710424 
L 251.743957 135.294233 
L 252.579465 136.914014 
L 253.414973 143.066707 
L 254.250481 143.37942 
L 255.085989 125.405479 
L 257.592513 143.799652 
L 258.428021 135.021558 
L 259.263529 141.869908 
L 260.099037 136.556399 
L 260.934545 127.71645 
L 261.770053 129.435686 
L 262.605561 136.32858 
L 263.44107 130.117863 
L 264.276578 134.403925 
L 265.947594 136.964639 
L 266.783102 135.578799 
L 267.61861 134.770952 
L 268.454118 134.623793 
L 269.289626 135.17334 
L 270.125134 135.27281 
L 271.79615 137.009077 
L 272.631658 135.99604 
L 273.467166 135.389716 
L 274.302674 137.342244 
L 275.138182 135.655421 
L 275.97369 135.254592 
L 276.809198 138.688037 
L 277.644706 132.440296 
L 278.480214 133.554285 
L 279.315722 135.590673 
L 280.15123 135.248439 
L 280.986738 135.290006 
L 282.657754 136.592888 
L 283.493262 138.546827 
L 284.32877 134.086153 
L 285.164278 134.113561 
L 285.999786 134.754212 
L 287.670802 139.314155 
L 288.50631 134.841199 
L 289.341818 138.31678 
L 290.177326 145.051003 
L 291.012834 132.421764 
L 291.848342 135.1282 
L 292.68385 141.959978 
L 293.519358 127.341512 
L 294.354866 133.359003 
L 295.190374 147.823742 
L 296.86139 143.294955 
L 297.696898 118.670704 
L 299.367914 146.279298 
L 300.203422 127.782579 
L 301.03893 121.145862 
L 301.874439 129.509179 
L 302.709947 135.970775 
L 303.545455 137.680563 
L 304.380963 138.099157 
L 305.216471 134.370427 
L 306.051979 139.035538 
L 306.887487 144.815603 
L 307.722995 145.298198 
L 308.558503 127.825839 
L 309.394011 136.285481 
L 310.229519 138.790586 
L 311.065027 129.832223 
L 311.900535 127.669649 
L 312.736043 130.514688 
L 313.571551 134.091627 
L 314.407059 133.276104 
L 315.242567 135.896773 
L 316.078075 137.482318 
L 316.913583 136.974432 
L 317.749091 136.024906 
L 318.584599 134.696635 
L 319.420107 138.609569 
L 320.255615 140.75682 
L 321.091123 137.744155 
L 321.926631 130.231752 
L 322.762139 134.32102 
L 323.597647 137.185829 
L 324.433155 130.404224 
L 325.268663 133.93743 
L 326.939679 136.269821 
L 329.446203 135.241565 
L 330.281711 135.425673 
L 331.117219 136.201164 
L 331.952727 135.477186 
L 332.788235 137.698173 
L 333.623743 134.937265 
L 334.459251 135.992813 
L 335.294759 135.037868 
L 336.130267 135.885776 
L 336.965775 136.954135 
L 337.801283 136.48819 
L 338.636791 134.733361 
L 340.307807 137.1734 
L 341.143316 133.590028 
L 341.978824 135.00374 
L 342.814332 135.076135 
L 343.64984 135.625063 
L 344.485348 135.192503 
L 345.320856 136.75159 
L 346.156364 137.747135 
L 346.991872 135.881049 
L 347.82738 133.662749 
L 349.498396 135.127275 
L 350.333904 135.871448 
L 351.169412 136.765668 
L 352.00492 135.755568 
L 352.840428 136.925164 
L 353.675936 137.602377 
L 354.511444 136.664749 
L 355.346952 138.801054 
L 356.18246 133.384074 
L 357.017968 131.386338 
L 357.853476 133.00524 
L 358.688984 135.64893 
L 359.524492 136.21249 
L 360.36 136.080005 
L 361.195508 138.912901 
L 362.031016 141.111084 
L 362.866524 142.334909 
L 363.702032 135.075565 
L 364.53754 135.079706 
L 365.373048 127.645994 
L 366.208556 132.636876 
L 367.044064 136.574411 
L 367.879572 141.372325 
L 368.71508 137.515394 
L 369.550588 132.612441 
L 370.386096 136.994853 
L 371.221604 132.459656 
L 372.057112 130.425801 
L 372.89262 135.831854 
L 373.728128 135.891169 
L 374.563636 135.037562 
L 375.399144 134.745028 
L 376.234652 136.75608 
L 377.07016 135.929386 
L 377.905668 136.869817 
L 378.741176 136.37916 
L 379.576684 133.573563 
L 380.412193 136.616262 
L 381.247701 134.428053 
L 382.083209 134.474899 
L 382.918717 134.726843 
L 383.754225 135.463984 
L 384.589733 135.201485 
L 385.425241 135.839032 
L 386.260749 135.92698 
L 387.096257 136.544156 
L 387.931765 135.053423 
L 388.767273 136.503016 
L 390.438289 135.444472 
L 391.273797 134.89004 
L 392.109305 136.005686 
L 392.944813 135.106813 
L 393.780321 138.455496 
L 394.615829 137.366842 
L 395.451337 138.726813 
L 396.286845 138.034863 
L 397.122353 136.855688 
L 397.957861 137.49508 
L 398.793369 134.433963 
L 399.628877 130.190405 
L 400.464385 131.498049 
L 401.299893 135.791502 
L 402.135401 135.744453 
L 402.970909 134.95843 
L 403.806417 136.283315 
L 404.641925 138.531735 
L 405.477433 134.711569 
L 406.312941 136.200443 
L 407.983957 137.349614 
L 408.819465 133.917458 
L 409.654973 134.388273 
L 410.490481 136.480019 
L 411.325989 137.97947 
L 412.161497 138.255664 
L 412.997005 128.359652 
L 413.832513 134.81192 
L 414.668021 137.788128 
L 415.503529 139.987348 
L 416.339037 132.25544 
L 417.174545 133.62228 
L 418.010053 136.813521 
L 418.845561 138.680417 
L 419.68107 134.049605 
L 420.516578 136.55819 
L 421.352086 137.525107 
L 422.187594 132.22481 
L 423.023102 132.716358 
L 423.85861 134.058814 
L 424.694118 135.970008 
L 425.529626 137.211147 
L 426.365134 136.627171 
L 427.200642 136.564399 
L 428.03615 137.044779 
L 428.871658 139.571405 
L 429.707166 131.631042 
L 430.542674 133.220039 
L 431.378182 137.506093 
L 432.21369 138.791781 
L 433.049198 138.650127 
L 433.884706 130.047231 
L 434.720214 137.289837 
L 435.555722 134.636399 
L 436.39123 134.342943 
L 437.226738 132.690812 
L 438.062246 136.835072 
L 438.897754 136.093175 
L 439.733262 139.988403 
L 440.56877 141.493177 
L 441.404278 132.400895 
L 442.239786 133.121024 
L 443.075294 132.443098 
L 443.910802 133.55083 
L 444.74631 135.701692 
L 445.581818 137.543498 
L 446.417326 134.204812 
L 447.252834 136.243509 
L 448.088342 135.080762 
L 448.92385 135.019498 
L 449.759358 134.094121 
L 450.594866 135.305128 
L 451.430374 135.55496 
L 453.10139 137.23104 
L 453.936898 136.70515 
L 454.772406 135.931921 
L 455.607914 135.9289 
L 456.443422 134.435661 
L 457.27893 168.727658 
L 458.114439 177.356314 
L 458.949947 152.269121 
L 459.785455 134.224686 
L 460.620963 132.89541 
L 462.291979 84.968619 
L 463.127487 169.287433 
L 463.962995 193.391132 
L 464.798503 162.525197 
L 465.634011 111.29738 
L 466.469519 130.128455 
L 467.305027 97.626065 
L 468.140535 82.023273 
L 468.976043 129.871922 
L 469.811551 137.404769 
L 470.647059 132.051197 
L 471.482567 136.013001 
L 472.318075 137.153802 
L 473.989091 140.906498 
L 474.824599 135.752729 
L 475.660107 137.32326 
L 476.495615 131.900356 
L 477.331123 130.03324 
L 478.166631 134.20392 
L 479.002139 134.813526 
L 479.837647 139.820577 
L 480.673155 136.507634 
L 481.508663 134.183536 
L 482.344171 135.060703 
L 483.179679 138.174163 
L 484.015187 132.553749 
L 484.850695 135.054562 
L 485.686203 137.04976 
L 486.521711 136.549787 
L 487.357219 133.685418 
L 488.192727 134.061994 
L 489.028235 140.973787 
L 489.863743 140.112752 
L 490.699251 132.855873 
L 491.534759 133.10173 
L 492.370267 139.031734 
L 493.205775 133.088496 
L 494.041283 133.020466 
L 494.876791 131.691679 
L 495.712299 135.663327 
L 496.547807 135.792804 
L 497.383316 136.079428 
L 498.218824 136.956264 
L 499.054332 136.786003 
L 499.88984 136.095375 
L 500.725348 136.234624 
L 501.560856 133.970459 
L 502.396364 134.450517 
L 503.231872 137.483339 
L 504.06738 137.379475 
L 504.902888 134.40396 
L 505.738396 136.539899 
L 506.573904 147.339306 
L 507.409412 139.608051 
L 508.24492 130.174633 
L 509.080428 132.367496 
L 509.915936 133.585848 
L 510.751444 130.865769 
L 511.586952 133.135725 
L 512.42246 136.582922 
L 513.257968 135.03078 
L 514.093476 135.281092 
L 514.928984 138.200569 
L 515.764492 133.659803 
L 516.6 134.682047 
L 518.271016 135.229275 
L 519.106524 135.825456 
L 519.942032 138.359198 
L 520.77754 141.868884 
L 521.613048 134.661162 
L 522.448556 135.97822 
L 523.284064 135.677759 
L 524.119572 131.719073 
L 524.95508 133.553495 
L 525.790588 136.817595 
L 526.626096 136.491635 
L 527.461604 136.545722 
L 528.297112 132.872813 
L 529.13262 138.182994 
L 529.968128 137.285024 
L 530.803636 132.174244 
L 531.639144 135.110843 
L 532.474652 136.746088 
L 533.31016 134.571278 
L 534.145668 133.811167 
L 534.981176 134.272996 
L 535.816684 135.487834 
L 536.652193 135.929703 
L 537.487701 137.371927 
L 538.323209 137.965948 
L 539.158717 135.384149 
L 539.994225 137.084648 
L 540.829733 133.85726 
L 541.665241 134.076287 
L 542.500749 134.161209 
L 543.336257 136.392795 
L 544.171765 140.160972 
L 545.007273 135.833168 
L 545.842781 135.97411 
L 546.678289 133.417506 
L 547.513797 137.427499 
L 548.349305 136.107768 
L 549.184813 134.08519 
L 550.020321 136.507539 
L 550.855829 132.043661 
L 551.691337 135.549605 
L 552.526845 137.916509 
L 553.362353 137.844113 
L 554.197861 136.488551 
L 555.033369 130.66777 
L 555.868877 133.595829 
L 556.704385 135.944954 
L 557.539893 136.243554 
L 558.375401 135.780865 
L 559.210909 135.713844 
L 560.046417 136.631122 
L 561.717433 147.133878 
L 562.552941 136.488842 
L 563.388449 129.724048 
L 564.223957 130.852264 
L 565.059465 133.867913 
L 565.894973 132.980031 
L 566.730481 137.092621 
L 567.565989 135.9867 
L 568.401497 134.142687 
L 569.237005 138.009257 
L 570.072513 133.364611 
L 571.743529 134.338681 
L 572.579037 140.984106 
L 573.414545 135.763884 
L 574.250053 132.832098 
L 575.92107 134.593709 
L 576.756578 136.412151 
L 577.592086 136.947301 
L 578.427594 138.261989 
L 579.263102 135.372628 
L 580.09861 134.06973 
L 580.934118 136.597347 
L 581.769626 132.087805 
L 583.440642 137.171679 
L 584.27615 138.174755 
L 585.111658 134.453158 
L 585.947166 134.718666 
L 586.782674 136.909755 
L 587.618182 135.378597 
L 588.45369 134.147209 
L 590.124706 140.419383 
L 590.960214 132.736438 
L 591.795722 133.798047 
L 592.63123 134.137074 
L 594.302246 137.356577 
L 595.137754 134.541585 
L 595.973262 136.329233 
L 596.80877 136.797979 
L 597.644278 134.775305 
L 598.479786 137.480724 
L 599.315294 135.383575 
L 600.150802 135.588735 
L 600.98631 132.651743 
L 601.821818 135.814225 
L 602.657326 135.913062 
L 603.492834 135.681204 
L 604.328342 137.959423 
L 605.16385 135.901996 
L 605.999358 135.500128 
L 606.834866 134.170313 
L 607.670374 137.056106 
L 608.505882 138.438673 
L 609.34139 131.472573 
L 610.176898 135.0883 
L 611.012406 135.054174 
L 611.847914 136.300165 
L 612.683422 136.264936 
L 613.51893 133.572775 
L 614.354439 135.300698 
L 615.189947 134.79208 
L 616.025455 135.783022 
L 616.860963 135.47094 
L 617.696471 136.454782 
L 618.531979 136.097707 
L 619.367487 137.177215 
L 620.202995 134.124722 
L 621.038503 135.612255 
L 621.874011 135.975701 
L 622.709519 139.324093 
L 623.545027 134.683561 
L 624.380535 136.846732 
L 625.216043 131.43234 
L 626.051551 135.012025 
L 626.887059 136.478111 
L 627.722567 136.82617 
L 628.558075 135.482693 
L 629.393583 133.837914 
L 630.229091 136.838723 
L 631.064599 138.775915 
L 631.900107 135.932104 
L 632.735615 134.353926 
L 633.571123 134.257778 
L 634.406631 135.967083 
L 635.242139 134.313938 
L 636.077647 135.378047 
L 637.748663 136.18182 
L 638.584171 138.638073 
L 639.419679 134.093917 
L 640.255187 136.007877 
L 641.090695 138.847063 
L 641.926203 135.000115 
L 642.761711 132.457608 
L 643.597219 135.417357 
L 644.432727 137.04372 
L 645.268235 136.402203 
L 646.103743 136.010431 
L 646.939251 136.643307 
L 647.774759 134.36275 
L 648.610267 135.48098 
L 649.445775 134.818254 
L 650.281283 134.637561 
L 651.116791 135.15228 
L 651.952299 136.570489 
L 652.787807 134.926396 
L 653.623316 134.685953 
L 654.458824 136.151379 
L 656.12984 136.176044 
L 656.965348 134.012809 
L 657.800856 137.009682 
L 658.636364 136.313127 
L 659.471872 134.958609 
L 660.30738 134.383554 
L 661.142888 134.974107 
L 661.978396 136.252412 
L 662.813904 136.104468 
L 663.649412 135.634244 
L 664.48492 137.434689 
L 665.320428 136.283329 
L 666.155936 137.696824 
L 666.991444 136.110324 
L 667.826952 136.710766 
L 668.66246 138.955426 
L 669.497968 135.252258 
L 670.333476 129.246328 
L 671.168984 134.201617 
L 672.004492 135.191227 
L 672.84 137.008996 
L 673.675508 138.45002 
L 674.511016 137.025277 
L 675.346524 134.04496 
L 676.182032 137.339759 
L 677.01754 138.628989 
L 677.853048 129.343999 
L 678.688556 133.334818 
L 680.359572 138.607379 
L 681.19508 136.104415 
L 682.030588 135.734289 
L 682.866096 133.05399 
L 683.701604 135.369622 
L 684.537112 134.481439 
L 685.37262 135.130651 
L 686.208128 134.660697 
L 687.043636 135.83474 
L 687.879144 135.413573 
L 688.714652 137.89569 
L 689.55016 139.323824 
L 690.385668 136.447263 
L 691.221176 137.690803 
L 692.056684 139.141568 
L 692.892193 134.772355 
L 693.727701 127.638064 
L 694.563209 134.431817 
L 695.398717 138.900949 
L 696.234225 137.404205 
L 697.069733 134.669825 
L 697.905241 134.131043 
L 698.740749 142.572019 
L 699.576257 140.486466 
L 700.411765 132.793371 
L 701.247273 127.49111 
L 702.082781 136.431684 
L 702.918289 136.804273 
L 703.753797 135.764781 
L 704.589305 133.586466 
L 706.260321 135.140665 
L 707.095829 137.226029 
L 707.931337 138.686817 
L 708.766845 133.001414 
L 709.602353 134.630443 
L 710.437861 137.240015 
L 711.273369 133.098587 
L 712.108877 134.005855 
L 712.944385 136.299068 
L 713.779893 136.390672 
L 714.615401 136.043286 
L 715.450909 137.926861 
L 716.286417 134.57116 
L 717.121925 132.702636 
L 717.957433 134.764787 
L 718.792941 135.361811 
L 719.628449 136.106802 
L 720.463957 137.620533 
L 721.299465 140.204161 
L 722.134973 136.358044 
L 722.970481 135.837499 
L 723.805989 131.521431 
L 724.641497 135.541487 
L 725.477005 135.634632 
L 726.312513 137.966108 
L 727.148021 135.298733 
L 727.983529 137.774873 
L 728.819037 136.025997 
L 729.654545 133.438698 
L 730.490053 134.087375 
L 731.325561 134.351422 
L 732.16107 133.927477 
L 732.996578 134.889006 
L 733.832086 137.237395 
L 734.667594 136.782165 
L 735.503102 137.606917 
L 736.33861 135.625366 
L 737.174118 136.829699 
L 738.009626 139.322565 
L 738.845134 142.902758 
L 739.680642 130.634815 
L 740.51615 128.455463 
L 741.351658 132.690544 
L 742.187166 135.64032 
L 743.022674 135.174394 
L 744.69369 140.525891 
L 745.529198 138.879726 
L 746.364706 134.229644 
L 747.200214 139.045603 
L 748.035722 140.169056 
L 748.87123 131.596896 
L 749.706738 131.698759 
L 750.542246 136.675839 
L 751.377754 129.9076 
L 752.213262 133.842761 
L 753.04877 134.937359 
L 753.884278 134.53809 
L 754.719786 136.899517 
L 755.555294 137.05907 
L 756.390802 135.836171 
L 757.22631 138.90909 
L 758.061818 135.512041 
L 758.897326 135.577629 
L 759.732834 130.954868 
L 760.568342 135.462037 
L 761.40385 135.432709 
L 762.239358 136.276273 
L 763.074866 152.008121 
L 763.910374 164.484562 
L 765.58139 132.578808 
L 766.416898 135.082124 
L 768.087914 105.537993 
L 768.923422 168.744656 
L 769.75893 188.344741 
L 770.594439 179.304734 
L 771.429947 95.586188 
L 772.265455 123.502591 
L 773.100963 101.4255 
L 773.936471 96.852964 
L 774.771979 140.275421 
L 775.607487 136.588693 
L 776.442995 124.96305 
L 777.278503 131.419258 
L 778.114011 132.174628 
L 778.949519 136.59413 
L 779.785027 138.775675 
L 780.620535 130.566332 
L 781.456043 134.989722 
L 782.291551 135.159663 
L 783.127059 137.678972 
L 783.962567 133.15653 
L 784.798075 134.601243 
L 786.469091 135.519772 
L 787.304599 135.788013 
L 788.140107 136.175301 
L 788.975615 142.451627 
L 789.811123 144.836031 
L 790.646631 134.058259 
L 791.482139 128.118977 
L 792.317647 134.291579 
L 793.153155 137.311858 
L 793.988663 130.508916 
L 794.824171 137.07613 
L 795.659679 134.583997 
L 796.495187 138.507304 
L 797.330695 136.103431 
L 798.166203 136.405425 
L 799.001711 132.27588 
L 799.837219 134.933989 
L 800.672727 136.040073 
L 801.508235 134.865542 
L 802.343743 135.803169 
L 803.179251 135.948655 
L 804.014759 134.969085 
L 804.850267 135.895125 
L 805.685775 134.955467 
L 807.356791 137.376704 
L 808.192299 132.797733 
L 809.027807 135.273992 
L 809.863316 135.996632 
L 810.698824 135.50838 
L 811.534332 134.804706 
L 812.36984 135.599607 
L 813.205348 135.980557 
L 814.040856 135.836869 
L 814.876364 137.232206 
L 815.711872 136.657704 
L 816.54738 136.768618 
L 817.382888 140.100055 
L 818.218396 134.13173 
L 819.053904 132.371883 
L 819.889412 134.149986 
L 820.72492 134.616916 
L 821.560428 135.635963 
L 822.395936 135.346552 
L 823.231444 136.666963 
L 824.066952 136.666425 
L 824.90246 135.923525 
L 825.737968 136.500561 
L 827.408984 136.104826 
L 828.244492 134.826388 
L 829.08 135.168316 
L 829.915508 137.360014 
L 830.751016 133.367117 
L 831.586524 135.350183 
L 832.422032 135.858602 
L 833.25754 133.505817 
L 834.093048 135.156843 
L 834.928556 135.98342 
L 835.764064 135.881827 
L 836.599572 136.720275 
L 837.43508 136.176552 
L 838.270588 138.091109 
L 839.106096 133.940882 
L 839.941604 134.688893 
L 840.777112 134.40322 
L 841.61262 136.467496 
L 842.448128 143.189164 
L 843.283636 147.480925 
L 844.119144 149.211126 
L 844.954652 131.793675 
L 845.79016 124.609717 
L 846.625668 128.238438 
L 847.461176 130.980005 
L 848.296684 134.849207 
L 849.132193 132.40016 
L 849.967701 135.497727 
L 850.803209 135.635026 
L 851.638717 133.986515 
L 852.474225 134.4527 
L 853.309733 136.854976 
L 854.145241 139.660268 
L 854.980749 134.151233 
L 855.816257 133.04402 
L 856.651765 134.376704 
L 857.487273 136.118719 
L 859.158289 137.101754 
L 859.993797 136.57926 
L 860.829305 135.48979 
L 861.664813 133.514074 
L 863.335829 135.115319 
L 864.171337 135.687132 
L 865.006845 136.047878 
L 865.842353 136.910665 
L 866.677861 136.407085 
L 868.348877 137.050473 
L 869.184385 134.287786 
L 870.019893 135.663735 
L 871.690909 135.663735 
L 871.690909 135.663735 
" style="fill:none;stroke:#ff7f0e;stroke-linecap:square;stroke-width:1.5;"/>
   </g>
   <g id="patch_3">
    <path d="M 126 203.04 
L 126 51.84 
" style="fill:none;stroke:#000000;stroke-linecap:square;stroke-linejoin:miter;stroke-width:0.8;"/>
   </g>
   <g id="patch_4">
    <path d="M 907.2 203.04 
L 907.2 51.84 
" style="fill:none;stroke:#000000;stroke-linecap:square;stroke-linejoin:miter;stroke-width:0.8;"/>
   </g>
   <g id="patch_5">
    <path d="M 126 203.04 
L 907.2 203.04 
" style="fill:none;stroke:#000000;stroke-linecap:square;stroke-linejoin:miter;stroke-width:0.8;"/>
   </g>
   <g id="patch_6">
    <path d="M 126 51.84 
L 907.2 51.84 
" style="fill:none;stroke:#000000;stroke-linecap:square;stroke-linejoin:miter;stroke-width:0.8;"/>
   </g>
  </g>
  <g id="axes_2">
   <g id="patch_7">
    <path d="M 126 384.48 
L 907.2 384.48 
L 907.2 233.28 
L 126 233.28 
z
" style="fill:#ffffff;"/>
   </g>
   <g id="matplotlib.axis_3">
    <g id="xtick_6">
     <g id="line2d_13">
      <g>
       <use style="stroke:#000000;stroke-width:0.8;" x="161.509091" xlink:href="#m4d2b4a5944" y="384.48"/>
      </g>
     </g>
     <g id="text_8">
      <!-- 0 -->
      <g transform="translate(158.327841 399.078438)scale(0.1 -0.1)">
       <use xlink:href="#DejaVuSans-48"/>
      </g>
     </g>
    </g>
    <g id="xtick_7">
     <g id="line2d_14">
      <g>
       <use style="stroke:#000000;stroke-width:0.8;" x="328.610695" xlink:href="#m4d2b4a5944" y="384.48"/>
      </g>
     </g>
     <g id="text_9">
      <!-- 200 -->
      <g transform="translate(319.066945 399.078438)scale(0.1 -0.1)">
       <defs>
        <path d="M 19.1875 8.296875 
L 53.609375 8.296875 
L 53.609375 0 
L 7.328125 0 
L 7.328125 8.296875 
Q 12.9375 14.109375 22.625 23.890625 
Q 32.328125 33.6875 34.8125 36.53125 
Q 39.546875 41.84375 41.421875 45.53125 
Q 43.3125 49.21875 43.3125 52.78125 
Q 43.3125 58.59375 39.234375 62.25 
Q 35.15625 65.921875 28.609375 65.921875 
Q 23.96875 65.921875 18.8125 64.3125 
Q 13.671875 62.703125 7.8125 59.421875 
L 7.8125 69.390625 
Q 13.765625 71.78125 18.9375 73 
Q 24.125 74.21875 28.421875 74.21875 
Q 39.75 74.21875 46.484375 68.546875 
Q 53.21875 62.890625 53.21875 53.421875 
Q 53.21875 48.921875 51.53125 44.890625 
Q 49.859375 40.875 45.40625 35.40625 
Q 44.1875 33.984375 37.640625 27.21875 
Q 31.109375 20.453125 19.1875 8.296875 
z
" id="DejaVuSans-50"/>
       </defs>
       <use xlink:href="#DejaVuSans-50"/>
       <use x="63.623047" xlink:href="#DejaVuSans-48"/>
       <use x="127.246094" xlink:href="#DejaVuSans-48"/>
      </g>
     </g>
    </g>
    <g id="xtick_8">
     <g id="line2d_15">
      <g>
       <use style="stroke:#000000;stroke-width:0.8;" x="495.712299" xlink:href="#m4d2b4a5944" y="384.48"/>
      </g>
     </g>
     <g id="text_10">
      <!-- 400 -->
      <g transform="translate(486.168549 399.078438)scale(0.1 -0.1)">
       <defs>
        <path d="M 37.796875 64.3125 
L 12.890625 25.390625 
L 37.796875 25.390625 
z
M 35.203125 72.90625 
L 47.609375 72.90625 
L 47.609375 25.390625 
L 58.015625 25.390625 
L 58.015625 17.1875 
L 47.609375 17.1875 
L 47.609375 0 
L 37.796875 0 
L 37.796875 17.1875 
L 4.890625 17.1875 
L 4.890625 26.703125 
z
" id="DejaVuSans-52"/>
       </defs>
       <use xlink:href="#DejaVuSans-52"/>
       <use x="63.623047" xlink:href="#DejaVuSans-48"/>
       <use x="127.246094" xlink:href="#DejaVuSans-48"/>
      </g>
     </g>
    </g>
    <g id="xtick_9">
     <g id="line2d_16">
      <g>
       <use style="stroke:#000000;stroke-width:0.8;" x="662.813904" xlink:href="#m4d2b4a5944" y="384.48"/>
      </g>
     </g>
     <g id="text_11">
      <!-- 600 -->
      <g transform="translate(653.270154 399.078438)scale(0.1 -0.1)">
       <defs>
        <path d="M 33.015625 40.375 
Q 26.375 40.375 22.484375 35.828125 
Q 18.609375 31.296875 18.609375 23.390625 
Q 18.609375 15.53125 22.484375 10.953125 
Q 26.375 6.390625 33.015625 6.390625 
Q 39.65625 6.390625 43.53125 10.953125 
Q 47.40625 15.53125 47.40625 23.390625 
Q 47.40625 31.296875 43.53125 35.828125 
Q 39.65625 40.375 33.015625 40.375 
z
M 52.59375 71.296875 
L 52.59375 62.3125 
Q 48.875 64.0625 45.09375 64.984375 
Q 41.3125 65.921875 37.59375 65.921875 
Q 27.828125 65.921875 22.671875 59.328125 
Q 17.53125 52.734375 16.796875 39.40625 
Q 19.671875 43.65625 24.015625 45.921875 
Q 28.375 48.1875 33.59375 48.1875 
Q 44.578125 48.1875 50.953125 41.515625 
Q 57.328125 34.859375 57.328125 23.390625 
Q 57.328125 12.15625 50.6875 5.359375 
Q 44.046875 -1.421875 33.015625 -1.421875 
Q 20.359375 -1.421875 13.671875 8.265625 
Q 6.984375 17.96875 6.984375 36.375 
Q 6.984375 53.65625 15.1875 63.9375 
Q 23.390625 74.21875 37.203125 74.21875 
Q 40.921875 74.21875 44.703125 73.484375 
Q 48.484375 72.75 52.59375 71.296875 
z
" id="DejaVuSans-54"/>
       </defs>
       <use xlink:href="#DejaVuSans-54"/>
       <use x="63.623047" xlink:href="#DejaVuSans-48"/>
       <use x="127.246094" xlink:href="#DejaVuSans-48"/>
      </g>
     </g>
    </g>
    <g id="xtick_10">
     <g id="line2d_17">
      <g>
       <use style="stroke:#000000;stroke-width:0.8;" x="829.915508" xlink:href="#m4d2b4a5944" y="384.48"/>
      </g>
     </g>
     <g id="text_12">
      <!-- 800 -->
      <g transform="translate(820.371758 399.078438)scale(0.1 -0.1)">
       <defs>
        <path d="M 31.78125 34.625 
Q 24.75 34.625 20.71875 30.859375 
Q 16.703125 27.09375 16.703125 20.515625 
Q 16.703125 13.921875 20.71875 10.15625 
Q 24.75 6.390625 31.78125 6.390625 
Q 38.8125 6.390625 42.859375 10.171875 
Q 46.921875 13.96875 46.921875 20.515625 
Q 46.921875 27.09375 42.890625 30.859375 
Q 38.875 34.625 31.78125 34.625 
z
M 21.921875 38.8125 
Q 15.578125 40.375 12.03125 44.71875 
Q 8.5 49.078125 8.5 55.328125 
Q 8.5 64.0625 14.71875 69.140625 
Q 20.953125 74.21875 31.78125 74.21875 
Q 42.671875 74.21875 48.875 69.140625 
Q 55.078125 64.0625 55.078125 55.328125 
Q 55.078125 49.078125 51.53125 44.71875 
Q 48 40.375 41.703125 38.8125 
Q 48.828125 37.15625 52.796875 32.3125 
Q 56.78125 27.484375 56.78125 20.515625 
Q 56.78125 9.90625 50.3125 4.234375 
Q 43.84375 -1.421875 31.78125 -1.421875 
Q 19.734375 -1.421875 13.25 4.234375 
Q 6.78125 9.90625 6.78125 20.515625 
Q 6.78125 27.484375 10.78125 32.3125 
Q 14.796875 37.15625 21.921875 38.8125 
z
M 18.3125 54.390625 
Q 18.3125 48.734375 21.84375 45.5625 
Q 25.390625 42.390625 31.78125 42.390625 
Q 38.140625 42.390625 41.71875 45.5625 
Q 45.3125 48.734375 45.3125 54.390625 
Q 45.3125 60.0625 41.71875 63.234375 
Q 38.140625 66.40625 31.78125 66.40625 
Q 25.390625 66.40625 21.84375 63.234375 
Q 18.3125 60.0625 18.3125 54.390625 
z
" id="DejaVuSans-56"/>
       </defs>
       <use xlink:href="#DejaVuSans-56"/>
       <use x="63.623047" xlink:href="#DejaVuSans-48"/>
       <use x="127.246094" xlink:href="#DejaVuSans-48"/>
      </g>
     </g>
    </g>
    <g id="text_13">
     <!-- Frame -->
     <g transform="translate(501.020313 412.756563)scale(0.1 -0.1)">
      <use xlink:href="#DejaVuSans-70"/>
      <use x="50.269531" xlink:href="#DejaVuSans-114"/>
      <use x="91.382812" xlink:href="#DejaVuSans-97"/>
      <use x="152.662109" xlink:href="#DejaVuSans-109"/>
      <use x="250.074219" xlink:href="#DejaVuSans-101"/>
     </g>
    </g>
   </g>
   <g id="matplotlib.axis_4">
    <g id="ytick_6">
     <g id="line2d_18">
      <g>
       <use style="stroke:#000000;stroke-width:0.8;" x="126" xlink:href="#m7ee6b0961b" y="377.609489"/>
      </g>
     </g>
     <g id="text_14">
      <!-- −1.0 -->
      <g transform="translate(94.717187 381.408708)scale(0.1 -0.1)">
       <use xlink:href="#DejaVuSans-8722"/>
       <use x="83.789062" xlink:href="#DejaVuSans-49"/>
       <use x="147.412109" xlink:href="#DejaVuSans-46"/>
       <use x="179.199219" xlink:href="#DejaVuSans-48"/>
      </g>
     </g>
    </g>
    <g id="ytick_7">
     <g id="line2d_19">
      <g>
       <use style="stroke:#000000;stroke-width:0.8;" x="126" xlink:href="#m7ee6b0961b" y="343.245299"/>
      </g>
     </g>
     <g id="text_15">
      <!-- −0.5 -->
      <g transform="translate(94.717187 347.044517)scale(0.1 -0.1)">
       <use xlink:href="#DejaVuSans-8722"/>
       <use x="83.789062" xlink:href="#DejaVuSans-48"/>
       <use x="147.412109" xlink:href="#DejaVuSans-46"/>
       <use x="179.199219" xlink:href="#DejaVuSans-53"/>
      </g>
     </g>
    </g>
    <g id="ytick_8">
     <g id="line2d_20">
      <g>
       <use style="stroke:#000000;stroke-width:0.8;" x="126" xlink:href="#m7ee6b0961b" y="308.881108"/>
      </g>
     </g>
     <g id="text_16">
      <!-- 0.0 -->
      <g transform="translate(103.096875 312.680327)scale(0.1 -0.1)">
       <use xlink:href="#DejaVuSans-48"/>
       <use x="63.623047" xlink:href="#DejaVuSans-46"/>
       <use x="95.410156" xlink:href="#DejaVuSans-48"/>
      </g>
     </g>
    </g>
    <g id="ytick_9">
     <g id="line2d_21">
      <g>
       <use style="stroke:#000000;stroke-width:0.8;" x="126" xlink:href="#m7ee6b0961b" y="274.516918"/>
      </g>
     </g>
     <g id="text_17">
      <!-- 0.5 -->
      <g transform="translate(103.096875 278.316137)scale(0.1 -0.1)">
       <use xlink:href="#DejaVuSans-48"/>
       <use x="63.623047" xlink:href="#DejaVuSans-46"/>
       <use x="95.410156" xlink:href="#DejaVuSans-53"/>
      </g>
     </g>
    </g>
    <g id="ytick_10">
     <g id="line2d_22">
      <g>
       <use style="stroke:#000000;stroke-width:0.8;" x="126" xlink:href="#m7ee6b0961b" y="240.152727"/>
      </g>
     </g>
     <g id="text_18">
      <!-- 1.0 -->
      <g transform="translate(103.096875 243.951946)scale(0.1 -0.1)">
       <use xlink:href="#DejaVuSans-49"/>
       <use x="63.623047" xlink:href="#DejaVuSans-46"/>
       <use x="95.410156" xlink:href="#DejaVuSans-48"/>
      </g>
     </g>
    </g>
    <g id="text_19">
     <!-- Pearson r -->
     <g transform="translate(88.6375 332.387031)rotate(-90)scale(0.1 -0.1)">
      <defs>
       <path d="M 19.671875 64.796875 
L 19.671875 37.40625 
L 32.078125 37.40625 
Q 38.96875 37.40625 42.71875 40.96875 
Q 46.484375 44.53125 46.484375 51.125 
Q 46.484375 57.671875 42.71875 61.234375 
Q 38.96875 64.796875 32.078125 64.796875 
z
M 9.8125 72.90625 
L 32.078125 72.90625 
Q 44.34375 72.90625 50.609375 67.359375 
Q 56.890625 61.8125 56.890625 51.125 
Q 56.890625 40.328125 50.609375 34.8125 
Q 44.34375 29.296875 32.078125 29.296875 
L 19.671875 29.296875 
L 19.671875 0 
L 9.8125 0 
z
" id="DejaVuSans-80"/>
       <path id="DejaVuSans-32"/>
      </defs>
      <use xlink:href="#DejaVuSans-80"/>
      <use x="56.677734" xlink:href="#DejaVuSans-101"/>
      <use x="118.201172" xlink:href="#DejaVuSans-97"/>
      <use x="179.480469" xlink:href="#DejaVuSans-114"/>
      <use x="220.59375" xlink:href="#DejaVuSans-115"/>
      <use x="272.693359" xlink:href="#DejaVuSans-111"/>
      <use x="333.875" xlink:href="#DejaVuSans-110"/>
      <use x="397.253906" xlink:href="#DejaVuSans-32"/>
      <use x="429.041016" xlink:href="#DejaVuSans-114"/>
     </g>
    </g>
   </g>
   <g id="line2d_23">
    <path clip-path="url(#pe42c204dc3)" d="M 164.015615 240.152727 
L 164.851123 257.100476 
L 165.686631 253.58078 
L 166.522139 256.592846 
L 167.357647 255.070636 
L 168.193155 291.603134 
L 169.028663 244.357472 
L 169.864171 258.478125 
L 170.699679 252.033084 
L 171.535187 265.455825 
L 172.370695 240.244104 
L 173.206203 261.401353 
L 174.041711 268.730577 
L 174.877219 240.639243 
L 175.712727 263.160893 
L 176.548235 294.750979 
L 177.383743 377.105755 
L 178.219251 369.778124 
L 179.054759 370.471502 
L 179.890267 372.994204 
L 180.725775 284.153908 
L 181.561283 241.598168 
L 182.396791 253.732386 
L 183.232299 345.552867 
L 184.067807 336.935898 
L 184.903316 247.586268 
L 185.738824 242.790809 
L 186.574332 243.128135 
L 187.40984 251.794438 
L 188.245348 244.397797 
L 189.080856 253.999078 
L 189.916364 300.254305 
L 190.751872 324.274869 
L 191.58738 250.060256 
L 192.422888 241.99053 
L 193.258396 258.032271 
L 194.093904 247.097871 
L 194.929412 243.671084 
L 195.76492 287.577696 
L 196.600428 262.125122 
L 197.435936 329.219299 
L 198.271444 268.057332 
L 199.106952 243.29966 
L 199.94246 258.642925 
L 200.777968 262.519076 
L 201.613476 240.530291 
L 202.448984 240.180628 
L 203.284492 240.247161 
L 204.12 254.557295 
L 205.791016 330.226687 
L 206.626524 246.179175 
L 207.462032 260.237294 
L 208.29754 245.057941 
L 209.133048 247.533202 
L 209.968556 240.171719 
L 210.804064 257.007309 
L 211.639572 353.383623 
L 212.47508 258.436371 
L 213.310588 245.586212 
L 214.146096 266.192978 
L 214.981604 246.148049 
L 215.817112 240.288805 
L 216.65262 240.303349 
L 217.488128 243.373444 
L 218.323636 247.222112 
L 219.159144 241.51973 
L 219.994652 241.961609 
L 220.83016 244.40806 
L 221.665668 240.452627 
L 222.501176 245.911404 
L 223.336684 242.435074 
L 225.007701 253.060524 
L 225.843209 271.761865 
L 226.678717 302.024356 
L 227.514225 277.434146 
L 228.349733 242.27515 
L 229.185241 242.100913 
L 230.020749 247.339975 
L 230.856257 275.789531 
L 231.691765 250.099734 
L 232.527273 250.326279 
L 233.362781 240.922439 
L 234.198289 270.654517 
L 235.033797 368.869664 
L 235.869305 357.538858 
L 236.704813 311.359149 
L 237.540321 373.029036 
L 238.375829 368.838659 
L 239.211337 335.879485 
L 240.046845 266.108772 
L 240.882353 377.48026 
L 241.717861 250.479215 
L 242.553369 268.146415 
L 243.388877 251.043862 
L 244.224385 293.222002 
L 245.059893 250.189089 
L 245.895401 240.686739 
L 246.730909 251.146763 
L 247.566417 243.829974 
L 248.401925 240.496341 
L 249.237433 240.404858 
L 250.072941 241.252812 
L 250.908449 241.21121 
L 251.743957 243.259423 
L 252.579465 240.636765 
L 253.414973 248.288897 
L 254.250481 241.735259 
L 255.085989 240.178835 
L 256.757005 240.182145 
L 257.592513 240.873372 
L 258.428021 245.714438 
L 259.263529 247.886813 
L 260.099037 259.82133 
L 260.934545 243.768374 
L 261.770053 284.877109 
L 262.605561 248.78922 
L 263.44107 255.951205 
L 264.276578 249.557054 
L 265.112086 241.911437 
L 265.947594 245.13584 
L 266.783102 266.656635 
L 267.61861 280.435225 
L 268.454118 377.095867 
L 269.289626 264.302929 
L 270.125134 316.361996 
L 270.960642 314.129095 
L 271.79615 240.309313 
L 272.631658 246.467722 
L 273.467166 345.954784 
L 274.302674 288.226987 
L 275.138182 275.32728 
L 275.97369 240.208826 
L 276.809198 240.621301 
L 277.644706 240.300617 
L 278.480214 256.541057 
L 279.315722 289.671208 
L 280.15123 247.162688 
L 280.986738 375.037461 
L 281.822246 374.498974 
L 282.657754 373.499053 
L 283.493262 251.124195 
L 284.32877 298.906222 
L 285.164278 298.50244 
L 285.999786 254.093181 
L 286.835294 240.569341 
L 287.670802 250.898766 
L 288.50631 251.046097 
L 289.341818 277.025996 
L 290.177326 275.992469 
L 291.012834 242.714667 
L 291.848342 242.266515 
L 292.68385 240.203531 
L 293.519358 254.371714 
L 294.354866 246.617417 
L 295.190374 240.230521 
L 296.025882 255.282507 
L 296.86139 240.58959 
L 297.696898 245.56784 
L 298.532406 271.58332 
L 299.367914 267.710333 
L 300.203422 273.905682 
L 301.03893 252.117318 
L 301.874439 290.307616 
L 302.709947 240.764226 
L 303.545455 245.434425 
L 304.380963 253.548604 
L 305.216471 243.304649 
L 306.051979 247.415367 
L 306.887487 246.687502 
L 307.722995 305.129273 
L 308.558503 243.446032 
L 309.394011 272.929473 
L 310.229519 249.126474 
L 311.065027 248.01927 
L 311.900535 245.904871 
L 312.736043 295.329646 
L 313.571551 247.864848 
L 314.407059 275.104287 
L 315.242567 248.576107 
L 316.078075 247.936671 
L 316.913583 331.658536 
L 317.749091 248.756062 
L 318.584599 301.484379 
L 319.420107 248.069608 
L 320.255615 244.41036 
L 321.091123 242.737638 
L 321.926631 241.659587 
L 322.762139 251.854474 
L 323.597647 253.898984 
L 324.433155 256.856284 
L 325.268663 242.632145 
L 326.104171 240.190177 
L 326.939679 243.517893 
L 327.775187 241.484793 
L 328.610695 365.659351 
L 329.446203 342.963597 
L 330.281711 259.832308 
L 331.117219 280.705298 
L 331.952727 370.508924 
L 332.788235 377.606077 
L 333.623743 333.387645 
L 334.459251 301.632882 
L 335.294759 345.48171 
L 336.130267 276.798145 
L 336.965775 253.275084 
L 337.801283 342.276032 
L 338.636791 377.119859 
L 339.472299 363.45924 
L 340.307807 251.077191 
L 341.143316 241.627946 
L 341.978824 281.208318 
L 342.814332 376.633475 
L 343.64984 243.425589 
L 344.485348 285.459744 
L 345.320856 335.565018 
L 346.156364 373.532687 
L 346.991872 327.66847 
L 347.82738 363.188021 
L 348.662888 313.105547 
L 349.498396 242.107224 
L 350.333904 242.15533 
L 351.169412 241.665494 
L 352.00492 251.790774 
L 352.840428 255.06587 
L 353.675936 311.812347 
L 354.511444 304.862729 
L 355.346952 240.594052 
L 356.18246 330.549505 
L 357.017968 277.533545 
L 357.853476 301.768007 
L 358.688984 291.87509 
L 359.524492 247.978403 
L 360.36 354.232657 
L 361.195508 241.688793 
L 362.031016 240.442654 
L 362.866524 249.707304 
L 363.702032 241.854509 
L 364.53754 247.884306 
L 365.373048 248.306827 
L 366.208556 257.349583 
L 367.044064 252.018311 
L 367.879572 245.57106 
L 368.71508 310.161942 
L 370.386096 240.685251 
L 371.221604 247.946876 
L 372.057112 240.30363 
L 372.89262 240.917589 
L 373.728128 244.851701 
L 374.563636 328.614446 
L 375.399144 247.929044 
L 376.234652 243.804585 
L 377.07016 265.664477 
L 377.905668 280.924801 
L 378.741176 309.113144 
L 379.576684 365.469857 
L 380.412193 331.33919 
L 381.247701 290.106568 
L 382.083209 275.299782 
L 382.918717 307.177838 
L 383.754225 373.515497 
L 384.589733 348.688854 
L 385.425241 266.071804 
L 386.260749 240.176692 
L 387.096257 372.928313 
L 387.931765 375.017304 
L 388.767273 367.444895 
L 389.602781 372.585319 
L 390.438289 367.352289 
L 391.273797 375.805812 
L 392.109305 377.420427 
L 392.944813 332.206996 
L 393.780321 240.319229 
L 394.615829 246.824236 
L 395.451337 301.15531 
L 396.286845 327.849882 
L 397.122353 371.065912 
L 397.957861 373.760528 
L 398.793369 243.783106 
L 399.628877 255.891624 
L 400.464385 354.307429 
L 401.299893 240.156046 
L 402.135401 248.082862 
L 402.970909 362.962406 
L 403.806417 285.382559 
L 404.641925 240.153687 
L 405.477433 344.423488 
L 406.312941 315.389495 
L 407.148449 376.34764 
L 407.983957 263.707961 
L 408.819465 368.099985 
L 409.654973 359.978385 
L 410.490481 363.222241 
L 411.325989 264.346315 
L 412.161497 282.666632 
L 412.997005 245.02166 
L 413.832513 243.930735 
L 414.668021 240.364138 
L 415.503529 245.608731 
L 416.339037 242.311484 
L 417.174545 254.397831 
L 418.010053 343.327562 
L 418.845561 347.047791 
L 419.68107 323.10368 
L 420.516578 308.944315 
L 421.352086 253.496867 
L 422.187594 245.582216 
L 423.023102 244.976057 
L 423.85861 345.504296 
L 424.694118 369.413304 
L 425.529626 261.139796 
L 426.365134 274.988672 
L 427.200642 369.964503 
L 428.03615 354.590055 
L 428.871658 252.287809 
L 429.707166 240.447027 
L 430.542674 241.47124 
L 431.378182 242.680934 
L 432.21369 241.126825 
L 433.049198 240.159204 
L 433.884706 240.167763 
L 434.720214 242.519024 
L 435.555722 252.039365 
L 436.39123 240.853653 
L 437.226738 377.568423 
L 438.062246 259.446896 
L 438.897754 241.254085 
L 439.733262 287.144219 
L 440.56877 249.0621 
L 441.404278 240.370837 
L 442.239786 240.191501 
L 443.075294 334.265995 
L 443.910802 285.46645 
L 444.74631 248.513857 
L 445.581818 354.833342 
L 446.417326 337.133812 
L 447.252834 376.75126 
L 448.92385 261.435791 
L 449.759358 376.663332 
L 450.594866 376.301637 
L 451.430374 377.405792 
L 452.265882 256.007968 
L 453.10139 267.540098 
L 453.936898 321.072815 
L 454.772406 284.630525 
L 455.607914 361.767441 
L 456.443422 315.11976 
L 457.27893 240.166989 
L 458.114439 240.197763 
L 458.949947 241.037588 
L 459.785455 242.239382 
L 460.620963 256.503414 
L 461.456471 252.541083 
L 462.291979 240.978822 
L 463.127487 240.449788 
L 463.962995 240.174348 
L 464.798503 250.821543 
L 465.634011 240.155734 
L 466.469519 240.738119 
L 467.305027 245.731712 
L 468.140535 243.339151 
L 468.976043 243.365714 
L 469.811551 240.163779 
L 470.647059 241.411109 
L 471.482567 245.156037 
L 472.318075 246.690916 
L 473.153583 242.411374 
L 473.989091 241.617673 
L 474.824599 241.263223 
L 475.660107 257.048319 
L 476.495615 243.307767 
L 477.331123 242.050313 
L 478.166631 247.891002 
L 479.002139 240.290356 
L 479.837647 240.833712 
L 480.673155 241.751934 
L 481.508663 240.380048 
L 482.344171 274.777905 
L 483.179679 347.410795 
L 484.015187 253.805921 
L 484.850695 307.762208 
L 485.686203 250.999887 
L 486.521711 362.291291 
L 487.357219 240.38168 
L 488.192727 289.002306 
L 489.028235 251.855408 
L 489.863743 254.003195 
L 490.699251 249.298725 
L 491.534759 267.598818 
L 492.370267 338.304983 
L 493.205775 328.39633 
L 494.041283 337.819359 
L 494.876791 279.949617 
L 495.712299 246.893659 
L 496.547807 252.907351 
L 497.383316 267.299971 
L 498.218824 377.607273 
L 499.054332 364.819152 
L 499.88984 368.438259 
L 500.725348 316.679405 
L 501.560856 254.376255 
L 502.396364 249.854466 
L 503.231872 273.196278 
L 504.06738 259.496047 
L 504.902888 318.975322 
L 505.738396 273.865509 
L 506.573904 242.001133 
L 507.409412 240.479794 
L 508.24492 240.874843 
L 509.080428 254.238382 
L 509.915936 375.754295 
L 510.751444 331.567617 
L 511.586952 304.114871 
L 512.42246 244.104599 
L 513.257968 287.995709 
L 514.093476 318.356259 
L 514.928984 279.977908 
L 515.764492 253.889675 
L 516.6 240.482114 
L 517.435508 240.788908 
L 518.271016 365.055425 
L 519.106524 247.873048 
L 519.942032 259.574923 
L 520.77754 368.977461 
L 521.613048 353.028301 
L 522.448556 354.578555 
L 523.284064 247.690205 
L 524.119572 241.536863 
L 524.95508 245.122432 
L 525.790588 240.35073 
L 526.626096 256.761215 
L 527.461604 372.439652 
L 528.297112 243.596294 
L 529.13262 276.954143 
L 529.968128 268.474468 
L 530.803636 329.475775 
L 531.639144 268.250489 
L 532.474652 370.239349 
L 533.31016 276.991527 
L 534.145668 279.699085 
L 534.981176 354.039832 
L 535.816684 243.252186 
L 536.652193 247.085044 
L 537.487701 240.1536 
L 538.323209 252.330318 
L 539.158717 246.036254 
L 539.994225 251.557716 
L 540.829733 245.543322 
L 541.665241 256.244949 
L 542.500749 247.088193 
L 543.336257 240.693114 
L 544.171765 252.012074 
L 545.007273 261.525628 
L 545.842781 250.575208 
L 546.678289 248.864006 
L 547.513797 241.368239 
L 548.349305 245.391756 
L 549.184813 246.63838 
L 550.020321 275.546352 
L 550.855829 355.775162 
L 551.691337 320.574373 
L 552.526845 265.410534 
L 553.362353 361.30795 
L 554.197861 326.800201 
L 555.033369 271.025729 
L 555.868877 246.042759 
L 556.704385 245.416624 
L 557.539893 240.824636 
L 558.375401 243.846889 
L 559.210909 277.205881 
L 560.046417 249.271701 
L 560.881925 240.242273 
L 561.717433 241.057126 
L 562.552941 241.245949 
L 563.388449 240.476381 
L 564.223957 250.504011 
L 565.059465 312.374556 
L 565.894973 256.102155 
L 566.730481 244.158039 
L 567.565989 241.335198 
L 568.401497 240.200001 
L 569.237005 249.256368 
L 570.072513 274.071725 
L 570.908021 268.836342 
L 571.743529 301.608701 
L 572.579037 242.127826 
L 573.414545 249.074062 
L 574.250053 241.452105 
L 575.085561 285.876373 
L 575.92107 254.461339 
L 576.756578 377.599248 
L 577.592086 275.508488 
L 578.427594 248.696983 
L 579.263102 240.255356 
L 580.09861 240.403874 
L 580.934118 240.179376 
L 581.769626 241.995389 
L 582.605134 242.206305 
L 583.440642 241.610843 
L 584.27615 270.443311 
L 585.111658 262.14555 
L 585.947166 261.894301 
L 586.782674 241.31788 
L 587.618182 242.93583 
L 588.45369 240.174081 
L 589.289198 254.140875 
L 590.124706 240.637427 
L 590.960214 256.704136 
L 591.795722 253.06361 
L 592.63123 344.0542 
L 593.466738 251.03144 
L 594.302246 318.597209 
L 595.137754 341.05677 
L 595.973262 313.571557 
L 596.80877 261.553543 
L 597.644278 260.223163 
L 598.479786 245.232545 
L 599.315294 246.640996 
L 600.150802 240.849627 
L 600.98631 377.391901 
L 601.821818 290.557246 
L 602.657326 241.462899 
L 603.492834 251.861219 
L 604.328342 277.234119 
L 605.16385 247.244451 
L 605.999358 240.161156 
L 606.834866 371.171309 
L 607.670374 290.165452 
L 608.505882 249.694108 
L 609.34139 242.07196 
L 610.176898 246.405277 
L 611.012406 240.166474 
L 611.847914 377.042664 
L 612.683422 368.9627 
L 613.51893 371.210894 
L 614.354439 375.644715 
L 615.189947 373.953061 
L 616.025455 370.766237 
L 617.696471 294.676505 
L 618.531979 278.904849 
L 619.367487 280.784337 
L 620.202995 242.068087 
L 621.038503 280.975737 
L 621.874011 359.514076 
L 622.709519 244.720405 
L 623.545027 240.314367 
L 624.380535 261.783826 
L 625.216043 246.913417 
L 626.051551 241.20408 
L 626.887059 273.580686 
L 627.722567 314.024687 
L 628.558075 302.483815 
L 629.393583 240.224057 
L 630.229091 271.103829 
L 631.064599 246.336722 
L 631.900107 249.942268 
L 632.735615 240.40298 
L 633.571123 248.666266 
L 634.406631 265.765108 
L 635.242139 267.913164 
L 636.077647 287.240805 
L 636.913155 240.227711 
L 637.748663 327.265798 
L 638.584171 244.925937 
L 639.419679 241.043561 
L 640.255187 248.274547 
L 641.090695 251.155852 
L 641.926203 316.10748 
L 642.761711 291.928691 
L 643.597219 253.189842 
L 644.432727 322.196425 
L 645.268235 333.341648 
L 646.103743 317.40104 
L 646.939251 307.92946 
L 647.774759 377.605888 
L 648.610267 343.286755 
L 649.445775 263.173661 
L 650.281283 240.261158 
L 651.116791 240.191548 
L 651.952299 317.676335 
L 652.787807 323.727786 
L 653.623316 321.431445 
L 654.458824 247.225173 
L 655.294332 241.132635 
L 656.12984 315.736027 
L 656.965348 328.745255 
L 657.800856 377.606898 
L 658.636364 377.130272 
L 659.471872 315.84204 
L 660.30738 271.420257 
L 661.142888 291.893552 
L 661.978396 241.050842 
L 662.813904 266.751525 
L 663.649412 252.635265 
L 664.48492 316.539109 
L 665.320428 297.820642 
L 666.155936 309.845294 
L 666.991444 303.654236 
L 667.826952 318.632129 
L 668.66246 267.598342 
L 669.497968 240.860587 
L 670.333476 252.832183 
L 671.168984 278.645062 
L 672.004492 244.670046 
L 672.84 268.80057 
L 673.675508 376.553875 
L 674.511016 373.759731 
L 675.346524 249.625449 
L 676.182032 263.483636 
L 677.01754 250.250926 
L 677.853048 270.060439 
L 678.688556 240.815485 
L 679.524064 287.047516 
L 680.359572 259.336356 
L 681.19508 244.604401 
L 682.030588 241.721988 
L 682.866096 377.04716 
L 683.701604 315.49329 
L 684.537112 243.524988 
L 685.37262 300.048903 
L 686.208128 376.001102 
L 687.043636 300.722168 
L 687.879144 296.46348 
L 688.714652 258.343627 
L 689.55016 251.053027 
L 691.221176 261.418343 
L 692.056684 281.654566 
L 692.892193 240.457393 
L 693.727701 240.877088 
L 694.563209 245.205098 
L 695.398717 241.854129 
L 696.234225 241.223193 
L 697.069733 253.367837 
L 697.905241 351.502974 
L 698.740749 261.251764 
L 699.576257 307.674194 
L 700.411765 241.109682 
L 701.247273 255.23944 
L 702.082781 291.206369 
L 702.918289 243.991671 
L 703.753797 240.358259 
L 704.589305 357.78425 
L 705.424813 368.243396 
L 706.260321 304.177814 
L 707.095829 252.587701 
L 707.931337 243.103204 
L 708.766845 252.241914 
L 709.602353 241.961227 
L 710.437861 307.683259 
L 711.273369 264.425322 
L 712.108877 240.828009 
L 712.944385 240.544826 
L 713.779893 250.751451 
L 714.615401 313.861978 
L 715.450909 240.162742 
L 716.286417 242.485325 
L 717.121925 240.214721 
L 717.957433 250.684662 
L 718.792941 240.253366 
L 719.628449 338.380157 
L 720.463957 373.052191 
L 721.299465 247.64491 
L 722.134973 240.642449 
L 722.970481 240.167827 
L 723.805989 240.492416 
L 724.641497 256.247061 
L 725.477005 242.30601 
L 726.312513 368.39818 
L 727.148021 377.357676 
L 728.819037 284.888259 
L 729.654545 301.31719 
L 730.490053 368.59041 
L 731.325561 240.675179 
L 732.16107 252.036237 
L 732.996578 274.428329 
L 733.832086 333.288823 
L 734.667594 377.299007 
L 735.503102 255.189936 
L 736.33861 346.180052 
L 737.174118 349.678792 
L 738.009626 240.158484 
L 738.845134 240.153947 
L 739.680642 240.613049 
L 740.51615 240.306518 
L 741.351658 244.817493 
L 742.187166 240.310525 
L 743.022674 255.841728 
L 743.858182 290.033687 
L 744.69369 243.672126 
L 745.529198 248.98369 
L 746.364706 255.713445 
L 747.200214 335.088035 
L 748.035722 327.926665 
L 748.87123 304.350012 
L 749.706738 259.8043 
L 750.542246 265.551702 
L 751.377754 244.800607 
L 752.213262 253.785397 
L 753.04877 248.211388 
L 753.884278 267.277828 
L 754.719786 369.202297 
L 755.555294 375.802207 
L 756.390802 369.935483 
L 757.22631 288.179898 
L 758.061818 260.276815 
L 758.897326 240.773939 
L 759.732834 241.313086 
L 760.568342 250.705266 
L 761.40385 243.352836 
L 762.239358 242.880117 
L 763.074866 240.656865 
L 763.910374 240.171621 
L 764.745882 246.924441 
L 765.58139 241.389638 
L 766.416898 263.172337 
L 767.252406 279.227448 
L 768.087914 240.279929 
L 768.923422 242.396126 
L 769.75893 240.204177 
L 770.594439 244.667748 
L 771.429947 240.224319 
L 772.265455 241.012621 
L 773.100963 253.417332 
L 773.936471 260.442115 
L 774.771979 244.268817 
L 775.607487 240.893084 
L 776.442995 240.156751 
L 777.278503 241.116397 
L 778.114011 245.07672 
L 778.949519 250.676615 
L 779.785027 242.647255 
L 780.620535 240.189846 
L 781.456043 247.121789 
L 782.291551 259.110412 
L 783.127059 242.942296 
L 783.962567 248.36348 
L 784.798075 255.087864 
L 785.633583 332.23597 
L 786.469091 244.528741 
L 787.304599 336.712378 
L 788.140107 340.15222 
L 788.975615 240.153717 
L 789.811123 240.571765 
L 790.646631 240.159118 
L 791.482139 240.523455 
L 792.317647 261.453772 
L 793.153155 240.494988 
L 793.988663 244.279719 
L 794.824171 251.804285 
L 795.659679 241.240909 
L 796.495187 268.457078 
L 797.330695 248.57217 
L 798.166203 280.399322 
L 799.001711 280.71625 
L 799.837219 301.71727 
L 800.672727 242.102442 
L 801.508235 250.371477 
L 802.343743 293.424855 
L 803.179251 299.186885 
L 804.014759 257.060017 
L 804.850267 262.004908 
L 805.685775 325.55612 
L 806.521283 311.345187 
L 807.356791 328.635729 
L 808.192299 247.59247 
L 809.027807 251.001196 
L 809.863316 264.481915 
L 810.698824 364.431342 
L 811.534332 376.404932 
L 812.36984 272.161951 
L 813.205348 246.959866 
L 814.040856 339.171953 
L 814.876364 254.353835 
L 815.711872 307.382842 
L 816.54738 243.16617 
L 817.382888 240.790324 
L 818.218396 287.739719 
L 819.053904 243.453905 
L 819.889412 310.439543 
L 820.72492 302.97377 
L 821.560428 330.884028 
L 822.395936 364.798166 
L 823.231444 241.773594 
L 824.066952 249.32515 
L 824.90246 285.923553 
L 825.737968 276.932691 
L 826.573476 315.558499 
L 827.408984 282.119313 
L 828.244492 297.010511 
L 829.08 342.662664 
L 829.915508 293.572983 
L 830.751016 262.695961 
L 831.586524 261.592327 
L 832.422032 298.760475 
L 833.25754 274.247517 
L 834.093048 243.786417 
L 834.928556 245.717213 
L 835.764064 248.254539 
L 836.599572 347.839596 
L 837.43508 369.117396 
L 838.270588 246.094331 
L 839.106096 240.222384 
L 839.941604 247.522501 
L 840.777112 356.22053 
L 841.61262 249.437851 
L 842.448128 243.383932 
L 843.283636 240.20007 
L 844.119144 241.943213 
L 844.954652 240.216302 
L 845.79016 244.856685 
L 846.625668 363.664829 
L 847.461176 364.3217 
L 848.296684 285.73916 
L 849.132193 262.147545 
L 849.967701 295.928986 
L 850.803209 242.698718 
L 851.638717 240.320835 
L 852.474225 242.667502 
L 853.309733 240.862471 
L 854.145241 244.939787 
L 854.980749 242.746169 
L 856.651765 343.635207 
L 857.487273 374.318139 
L 858.322781 368.619505 
L 859.158289 244.000564 
L 859.993797 240.518001 
L 860.829305 244.686513 
L 861.664813 346.105341 
L 862.500321 360.588638 
L 863.335829 362.333776 
L 864.171337 243.105844 
L 865.006845 242.27728 
L 865.842353 240.371573 
L 866.677861 245.882683 
L 867.513369 275.24142 
L 868.348877 298.258337 
L 869.184385 245.817939 
L 870.019893 242.170578 
L 870.855401 240.152727 
L 870.855401 240.152727 
" style="fill:none;stroke:#1f77b4;stroke-linecap:square;stroke-width:1.5;"/>
   </g>
   <g id="patch_8">
    <path d="M 126 384.48 
L 126 233.28 
" style="fill:none;stroke:#000000;stroke-linecap:square;stroke-linejoin:miter;stroke-width:0.8;"/>
   </g>
   <g id="patch_9">
    <path d="M 907.2 384.48 
L 907.2 233.28 
" style="fill:none;stroke:#000000;stroke-linecap:square;stroke-linejoin:miter;stroke-width:0.8;"/>
   </g>
   <g id="patch_10">
    <path d="M 126 384.48 
L 907.2 384.48 
" style="fill:none;stroke:#000000;stroke-linecap:square;stroke-linejoin:miter;stroke-width:0.8;"/>
   </g>
   <g id="patch_11">
    <path d="M 126 233.28 
L 907.2 233.28 
" style="fill:none;stroke:#000000;stroke-linecap:square;stroke-linejoin:miter;stroke-width:0.8;"/>
   </g>
  </g>
  <g id="text_20">
   <!-- Resonance data and rolling window (size = 3) correlation -->
   <g transform="translate(332.55 17.758125)scale(0.12 -0.12)">
    <defs>
     <path d="M 45.40625 46.390625 
L 45.40625 75.984375 
L 54.390625 75.984375 
L 54.390625 0 
L 45.40625 0 
L 45.40625 8.203125 
Q 42.578125 3.328125 38.25 0.953125 
Q 33.9375 -1.421875 27.875 -1.421875 
Q 17.96875 -1.421875 11.734375 6.484375 
Q 5.515625 14.40625 5.515625 27.296875 
Q 5.515625 40.1875 11.734375 48.09375 
Q 17.96875 56 27.875 56 
Q 33.9375 56 38.25 53.625 
Q 42.578125 51.265625 45.40625 46.390625 
z
M 14.796875 27.296875 
Q 14.796875 17.390625 18.875 11.75 
Q 22.953125 6.109375 30.078125 6.109375 
Q 37.203125 6.109375 41.296875 11.75 
Q 45.40625 17.390625 45.40625 27.296875 
Q 45.40625 37.203125 41.296875 42.84375 
Q 37.203125 48.484375 30.078125 48.484375 
Q 22.953125 48.484375 18.875 42.84375 
Q 14.796875 37.203125 14.796875 27.296875 
z
" id="DejaVuSans-100"/>
     <path d="M 18.3125 70.21875 
L 18.3125 54.6875 
L 36.8125 54.6875 
L 36.8125 47.703125 
L 18.3125 47.703125 
L 18.3125 18.015625 
Q 18.3125 11.328125 20.140625 9.421875 
Q 21.96875 7.515625 27.59375 7.515625 
L 36.8125 7.515625 
L 36.8125 0 
L 27.59375 0 
Q 17.1875 0 13.234375 3.875 
Q 9.28125 7.765625 9.28125 18.015625 
L 9.28125 47.703125 
L 2.6875 47.703125 
L 2.6875 54.6875 
L 9.28125 54.6875 
L 9.28125 70.21875 
z
" id="DejaVuSans-116"/>
     <path d="M 9.421875 75.984375 
L 18.40625 75.984375 
L 18.40625 0 
L 9.421875 0 
z
" id="DejaVuSans-108"/>
     <path d="M 9.421875 54.6875 
L 18.40625 54.6875 
L 18.40625 0 
L 9.421875 0 
z
M 9.421875 75.984375 
L 18.40625 75.984375 
L 18.40625 64.59375 
L 9.421875 64.59375 
z
" id="DejaVuSans-105"/>
     <path d="M 45.40625 27.984375 
Q 45.40625 37.75 41.375 43.109375 
Q 37.359375 48.484375 30.078125 48.484375 
Q 22.859375 48.484375 18.828125 43.109375 
Q 14.796875 37.75 14.796875 27.984375 
Q 14.796875 18.265625 18.828125 12.890625 
Q 22.859375 7.515625 30.078125 7.515625 
Q 37.359375 7.515625 41.375 12.890625 
Q 45.40625 18.265625 45.40625 27.984375 
z
M 54.390625 6.78125 
Q 54.390625 -7.171875 48.1875 -13.984375 
Q 42 -20.796875 29.203125 -20.796875 
Q 24.46875 -20.796875 20.265625 -20.09375 
Q 16.0625 -19.390625 12.109375 -17.921875 
L 12.109375 -9.1875 
Q 16.0625 -11.328125 19.921875 -12.34375 
Q 23.78125 -13.375 27.78125 -13.375 
Q 36.625 -13.375 41.015625 -8.765625 
Q 45.40625 -4.15625 45.40625 5.171875 
L 45.40625 9.625 
Q 42.625 4.78125 38.28125 2.390625 
Q 33.9375 0 27.875 0 
Q 17.828125 0 11.671875 7.65625 
Q 5.515625 15.328125 5.515625 27.984375 
Q 5.515625 40.671875 11.671875 48.328125 
Q 17.828125 56 27.875 56 
Q 33.9375 56 38.28125 53.609375 
Q 42.625 51.21875 45.40625 46.390625 
L 45.40625 54.6875 
L 54.390625 54.6875 
z
" id="DejaVuSans-103"/>
     <path d="M 4.203125 54.6875 
L 13.1875 54.6875 
L 24.421875 12.015625 
L 35.59375 54.6875 
L 46.1875 54.6875 
L 57.421875 12.015625 
L 68.609375 54.6875 
L 77.59375 54.6875 
L 63.28125 0 
L 52.6875 0 
L 40.921875 44.828125 
L 29.109375 0 
L 18.5 0 
z
" id="DejaVuSans-119"/>
     <path d="M 31 75.875 
Q 24.46875 64.65625 21.28125 53.65625 
Q 18.109375 42.671875 18.109375 31.390625 
Q 18.109375 20.125 21.3125 9.0625 
Q 24.515625 -2 31 -13.1875 
L 23.1875 -13.1875 
Q 15.875 -1.703125 12.234375 9.375 
Q 8.59375 20.453125 8.59375 31.390625 
Q 8.59375 42.28125 12.203125 53.3125 
Q 15.828125 64.359375 23.1875 75.875 
z
" id="DejaVuSans-40"/>
     <path d="M 5.515625 54.6875 
L 48.1875 54.6875 
L 48.1875 46.484375 
L 14.40625 7.171875 
L 48.1875 7.171875 
L 48.1875 0 
L 4.296875 0 
L 4.296875 8.203125 
L 38.09375 47.515625 
L 5.515625 47.515625 
z
" id="DejaVuSans-122"/>
     <path d="M 10.59375 45.40625 
L 73.1875 45.40625 
L 73.1875 37.203125 
L 10.59375 37.203125 
z
M 10.59375 25.484375 
L 73.1875 25.484375 
L 73.1875 17.1875 
L 10.59375 17.1875 
z
" id="DejaVuSans-61"/>
     <path d="M 40.578125 39.3125 
Q 47.65625 37.796875 51.625 33 
Q 55.609375 28.21875 55.609375 21.1875 
Q 55.609375 10.40625 48.1875 4.484375 
Q 40.765625 -1.421875 27.09375 -1.421875 
Q 22.515625 -1.421875 17.65625 -0.515625 
Q 12.796875 0.390625 7.625 2.203125 
L 7.625 11.71875 
Q 11.71875 9.328125 16.59375 8.109375 
Q 21.484375 6.890625 26.8125 6.890625 
Q 36.078125 6.890625 40.9375 10.546875 
Q 45.796875 14.203125 45.796875 21.1875 
Q 45.796875 27.640625 41.28125 31.265625 
Q 36.765625 34.90625 28.71875 34.90625 
L 20.21875 34.90625 
L 20.21875 43.015625 
L 29.109375 43.015625 
Q 36.375 43.015625 40.234375 45.921875 
Q 44.09375 48.828125 44.09375 54.296875 
Q 44.09375 59.90625 40.109375 62.90625 
Q 36.140625 65.921875 28.71875 65.921875 
Q 24.65625 65.921875 20.015625 65.03125 
Q 15.375 64.15625 9.8125 62.3125 
L 9.8125 71.09375 
Q 15.4375 72.65625 20.34375 73.4375 
Q 25.25 74.21875 29.59375 74.21875 
Q 40.828125 74.21875 47.359375 69.109375 
Q 53.90625 64.015625 53.90625 55.328125 
Q 53.90625 49.265625 50.4375 45.09375 
Q 46.96875 40.921875 40.578125 39.3125 
z
" id="DejaVuSans-51"/>
     <path d="M 8.015625 75.875 
L 15.828125 75.875 
Q 23.140625 64.359375 26.78125 53.3125 
Q 30.421875 42.28125 30.421875 31.390625 
Q 30.421875 20.453125 26.78125 9.375 
Q 23.140625 -1.703125 15.828125 -13.1875 
L 8.015625 -13.1875 
Q 14.5 -2 17.703125 9.0625 
Q 20.90625 20.125 20.90625 31.390625 
Q 20.90625 42.671875 17.703125 53.65625 
Q 14.5 64.65625 8.015625 75.875 
z
" id="DejaVuSans-41"/>
    </defs>
    <use xlink:href="#DejaVuSans-82"/>
    <use x="64.982422" xlink:href="#DejaVuSans-101"/>
    <use x="126.505859" xlink:href="#DejaVuSans-115"/>
    <use x="178.605469" xlink:href="#DejaVuSans-111"/>
    <use x="239.787109" xlink:href="#DejaVuSans-110"/>
    <use x="303.166016" xlink:href="#DejaVuSans-97"/>
    <use x="364.445312" xlink:href="#DejaVuSans-110"/>
    <use x="427.824219" xlink:href="#DejaVuSans-99"/>
    <use x="482.804688" xlink:href="#DejaVuSans-101"/>
    <use x="544.328125" xlink:href="#DejaVuSans-32"/>
    <use x="576.115234" xlink:href="#DejaVuSans-100"/>
    <use x="639.591797" xlink:href="#DejaVuSans-97"/>
    <use x="700.871094" xlink:href="#DejaVuSans-116"/>
    <use x="740.080078" xlink:href="#DejaVuSans-97"/>
    <use x="801.359375" xlink:href="#DejaVuSans-32"/>
    <use x="833.146484" xlink:href="#DejaVuSans-97"/>
    <use x="894.425781" xlink:href="#DejaVuSans-110"/>
    <use x="957.804688" xlink:href="#DejaVuSans-100"/>
    <use x="1021.28125" xlink:href="#DejaVuSans-32"/>
    <use x="1053.068359" xlink:href="#DejaVuSans-114"/>
    <use x="1091.931641" xlink:href="#DejaVuSans-111"/>
    <use x="1153.113281" xlink:href="#DejaVuSans-108"/>
    <use x="1180.896484" xlink:href="#DejaVuSans-108"/>
    <use x="1208.679688" xlink:href="#DejaVuSans-105"/>
    <use x="1236.462891" xlink:href="#DejaVuSans-110"/>
    <use x="1299.841797" xlink:href="#DejaVuSans-103"/>
    <use x="1363.318359" xlink:href="#DejaVuSans-32"/>
    <use x="1395.105469" xlink:href="#DejaVuSans-119"/>
    <use x="1476.892578" xlink:href="#DejaVuSans-105"/>
    <use x="1504.675781" xlink:href="#DejaVuSans-110"/>
    <use x="1568.054688" xlink:href="#DejaVuSans-100"/>
    <use x="1631.53125" xlink:href="#DejaVuSans-111"/>
    <use x="1692.712891" xlink:href="#DejaVuSans-119"/>
    <use x="1774.5" xlink:href="#DejaVuSans-32"/>
    <use x="1806.287109" xlink:href="#DejaVuSans-40"/>
    <use x="1845.300781" xlink:href="#DejaVuSans-115"/>
    <use x="1897.400391" xlink:href="#DejaVuSans-105"/>
    <use x="1925.183594" xlink:href="#DejaVuSans-122"/>
    <use x="1977.673828" xlink:href="#DejaVuSans-101"/>
    <use x="2039.197266" xlink:href="#DejaVuSans-32"/>
    <use x="2070.984375" xlink:href="#DejaVuSans-61"/>
    <use x="2154.773438" xlink:href="#DejaVuSans-32"/>
    <use x="2186.560547" xlink:href="#DejaVuSans-51"/>
    <use x="2250.183594" xlink:href="#DejaVuSans-41"/>
    <use x="2289.197266" xlink:href="#DejaVuSans-32"/>
    <use x="2320.984375" xlink:href="#DejaVuSans-99"/>
    <use x="2375.964844" xlink:href="#DejaVuSans-111"/>
    <use x="2437.146484" xlink:href="#DejaVuSans-114"/>
    <use x="2476.509766" xlink:href="#DejaVuSans-114"/>
    <use x="2515.373047" xlink:href="#DejaVuSans-101"/>
    <use x="2576.896484" xlink:href="#DejaVuSans-108"/>
    <use x="2604.679688" xlink:href="#DejaVuSans-97"/>
    <use x="2665.958984" xlink:href="#DejaVuSans-116"/>
    <use x="2705.167969" xlink:href="#DejaVuSans-105"/>
    <use x="2732.951172" xlink:href="#DejaVuSans-111"/>
    <use x="2794.132812" xlink:href="#DejaVuSans-110"/>
   </g>
  </g>
 </g>
 <defs>
  <clipPath id="pfa92bae0cf">
   <rect height="151.2" width="781.2" x="126" y="51.84"/>
  </clipPath>
  <clipPath id="pe42c204dc3">
   <rect height="151.2" width="781.2" x="126" y="233.28"/>
  </clipPath>
 </defs>
</svg>
