<?xml version="1.0" encoding="utf-8" standalone="no"?>
<!DOCTYPE svg PUBLIC "-//W3C//DTD SVG 1.1//EN"
  "http://www.w3.org/Graphics/SVG/1.1/DTD/svg11.dtd">
<!-- Created with matplotlib (https://matplotlib.org/) -->
<svg height="576pt" version="1.1" viewBox="0 0 864 576" width="864pt" xmlns="http://www.w3.org/2000/svg" xmlns:xlink="http://www.w3.org/1999/xlink">
 <metadata>
  <rdf:RDF xmlns:cc="http://creativecommons.org/ns#" xmlns:dc="http://purl.org/dc/elements/1.1/" xmlns:rdf="http://www.w3.org/1999/02/22-rdf-syntax-ns#">
   <cc:Work>
    <dc:type rdf:resource="http://purl.org/dc/dcmitype/StillImage"/>
    <dc:date>2021-12-15T14:25:19.161051</dc:date>
    <dc:format>image/svg+xml</dc:format>
    <dc:creator>
     <cc:Agent>
      <dc:title>Matplotlib v3.3.3, https://matplotlib.org/</dc:title>
     </cc:Agent>
    </dc:creator>
   </cc:Work>
  </rdf:RDF>
 </metadata>
 <defs>
  <style type="text/css">*{stroke-linecap:butt;stroke-linejoin:round;}</style>
 </defs>
 <g id="figure_1">
  <g id="patch_1">
   <path d="M 0 576 
L 864 576 
L 864 0 
L 0 0 
z
" style="fill:#ffffff;"/>
  </g>
  <g id="axes_1">
   <g id="patch_2">
    <path d="M 108 504 
L 777.6 504 
L 777.6 69.12 
L 108 69.12 
z
" style="fill:#ffffff;"/>
   </g>
   <g id="matplotlib.axis_1">
    <g id="xtick_1">
     <g id="line2d_1">
      <path clip-path="url(#pb7ef36f2a9)" d="M 138.436364 504 
L 138.436364 69.12 
" style="fill:none;stroke:#d3d3d3;stroke-linecap:round;"/>
     </g>
     <g id="text_1">
      <!-- Jan-2019 -->
      <g transform="translate(109.528629 523.377969)scale(0.13 -0.13)">
       <defs>
        <path d="M 9.8125 72.90625 
L 19.671875 72.90625 
L 19.671875 5.078125 
Q 19.671875 -8.109375 14.671875 -14.0625 
Q 9.671875 -20.015625 -1.421875 -20.015625 
L -5.171875 -20.015625 
L -5.171875 -11.71875 
L -2.09375 -11.71875 
Q 4.4375 -11.71875 7.125 -8.046875 
Q 9.8125 -4.390625 9.8125 5.078125 
z
" id="DejaVuSans-74"/>
        <path d="M 34.28125 27.484375 
Q 23.390625 27.484375 19.1875 25 
Q 14.984375 22.515625 14.984375 16.5 
Q 14.984375 11.71875 18.140625 8.90625 
Q 21.296875 6.109375 26.703125 6.109375 
Q 34.1875 6.109375 38.703125 11.40625 
Q 43.21875 16.703125 43.21875 25.484375 
L 43.21875 27.484375 
z
M 52.203125 31.203125 
L 52.203125 0 
L 43.21875 0 
L 43.21875 8.296875 
Q 40.140625 3.328125 35.546875 0.953125 
Q 30.953125 -1.421875 24.3125 -1.421875 
Q 15.921875 -1.421875 10.953125 3.296875 
Q 6 8.015625 6 15.921875 
Q 6 25.140625 12.171875 29.828125 
Q 18.359375 34.515625 30.609375 34.515625 
L 43.21875 34.515625 
L 43.21875 35.40625 
Q 43.21875 41.609375 39.140625 45 
Q 35.0625 48.390625 27.6875 48.390625 
Q 23 48.390625 18.546875 47.265625 
Q 14.109375 46.140625 10.015625 43.890625 
L 10.015625 52.203125 
Q 14.9375 54.109375 19.578125 55.046875 
Q 24.21875 56 28.609375 56 
Q 40.484375 56 46.34375 49.84375 
Q 52.203125 43.703125 52.203125 31.203125 
z
" id="DejaVuSans-97"/>
        <path d="M 54.890625 33.015625 
L 54.890625 0 
L 45.90625 0 
L 45.90625 32.71875 
Q 45.90625 40.484375 42.875 44.328125 
Q 39.84375 48.1875 33.796875 48.1875 
Q 26.515625 48.1875 22.3125 43.546875 
Q 18.109375 38.921875 18.109375 30.90625 
L 18.109375 0 
L 9.078125 0 
L 9.078125 54.6875 
L 18.109375 54.6875 
L 18.109375 46.1875 
Q 21.34375 51.125 25.703125 53.5625 
Q 30.078125 56 35.796875 56 
Q 45.21875 56 50.046875 50.171875 
Q 54.890625 44.34375 54.890625 33.015625 
z
" id="DejaVuSans-110"/>
        <path d="M 4.890625 31.390625 
L 31.203125 31.390625 
L 31.203125 23.390625 
L 4.890625 23.390625 
z
" id="DejaVuSans-45"/>
        <path d="M 19.1875 8.296875 
L 53.609375 8.296875 
L 53.609375 0 
L 7.328125 0 
L 7.328125 8.296875 
Q 12.9375 14.109375 22.625 23.890625 
Q 32.328125 33.6875 34.8125 36.53125 
Q 39.546875 41.84375 41.421875 45.53125 
Q 43.3125 49.21875 43.3125 52.78125 
Q 43.3125 58.59375 39.234375 62.25 
Q 35.15625 65.921875 28.609375 65.921875 
Q 23.96875 65.921875 18.8125 64.3125 
Q 13.671875 62.703125 7.8125 59.421875 
L 7.8125 69.390625 
Q 13.765625 71.78125 18.9375 73 
Q 24.125 74.21875 28.421875 74.21875 
Q 39.75 74.21875 46.484375 68.546875 
Q 53.21875 62.890625 53.21875 53.421875 
Q 53.21875 48.921875 51.53125 44.890625 
Q 49.859375 40.875 45.40625 35.40625 
Q 44.1875 33.984375 37.640625 27.21875 
Q 31.109375 20.453125 19.1875 8.296875 
z
" id="DejaVuSans-50"/>
        <path d="M 31.78125 66.40625 
Q 24.171875 66.40625 20.328125 58.90625 
Q 16.5 51.421875 16.5 36.375 
Q 16.5 21.390625 20.328125 13.890625 
Q 24.171875 6.390625 31.78125 6.390625 
Q 39.453125 6.390625 43.28125 13.890625 
Q 47.125 21.390625 47.125 36.375 
Q 47.125 51.421875 43.28125 58.90625 
Q 39.453125 66.40625 31.78125 66.40625 
z
M 31.78125 74.21875 
Q 44.046875 74.21875 50.515625 64.515625 
Q 56.984375 54.828125 56.984375 36.375 
Q 56.984375 17.96875 50.515625 8.265625 
Q 44.046875 -1.421875 31.78125 -1.421875 
Q 19.53125 -1.421875 13.0625 8.265625 
Q 6.59375 17.96875 6.59375 36.375 
Q 6.59375 54.828125 13.0625 64.515625 
Q 19.53125 74.21875 31.78125 74.21875 
z
" id="DejaVuSans-48"/>
        <path d="M 12.40625 8.296875 
L 28.515625 8.296875 
L 28.515625 63.921875 
L 10.984375 60.40625 
L 10.984375 69.390625 
L 28.421875 72.90625 
L 38.28125 72.90625 
L 38.28125 8.296875 
L 54.390625 8.296875 
L 54.390625 0 
L 12.40625 0 
z
" id="DejaVuSans-49"/>
        <path d="M 10.984375 1.515625 
L 10.984375 10.5 
Q 14.703125 8.734375 18.5 7.8125 
Q 22.3125 6.890625 25.984375 6.890625 
Q 35.75 6.890625 40.890625 13.453125 
Q 46.046875 20.015625 46.78125 33.40625 
Q 43.953125 29.203125 39.59375 26.953125 
Q 35.25 24.703125 29.984375 24.703125 
Q 19.046875 24.703125 12.671875 31.3125 
Q 6.296875 37.9375 6.296875 49.421875 
Q 6.296875 60.640625 12.9375 67.421875 
Q 19.578125 74.21875 30.609375 74.21875 
Q 43.265625 74.21875 49.921875 64.515625 
Q 56.59375 54.828125 56.59375 36.375 
Q 56.59375 19.140625 48.40625 8.859375 
Q 40.234375 -1.421875 26.421875 -1.421875 
Q 22.703125 -1.421875 18.890625 -0.6875 
Q 15.09375 0.046875 10.984375 1.515625 
z
M 30.609375 32.421875 
Q 37.25 32.421875 41.125 36.953125 
Q 45.015625 41.5 45.015625 49.421875 
Q 45.015625 57.28125 41.125 61.84375 
Q 37.25 66.40625 30.609375 66.40625 
Q 23.96875 66.40625 20.09375 61.84375 
Q 16.21875 57.28125 16.21875 49.421875 
Q 16.21875 41.5 20.09375 36.953125 
Q 23.96875 32.421875 30.609375 32.421875 
z
" id="DejaVuSans-57"/>
       </defs>
       <use xlink:href="#DejaVuSans-74"/>
       <use x="29.492188" xlink:href="#DejaVuSans-97"/>
       <use x="90.771484" xlink:href="#DejaVuSans-110"/>
       <use x="154.150391" xlink:href="#DejaVuSans-45"/>
       <use x="190.234375" xlink:href="#DejaVuSans-50"/>
       <use x="253.857422" xlink:href="#DejaVuSans-48"/>
       <use x="317.480469" xlink:href="#DejaVuSans-49"/>
       <use x="381.103516" xlink:href="#DejaVuSans-57"/>
      </g>
     </g>
    </g>
    <g id="xtick_2">
     <g id="line2d_2">
      <path clip-path="url(#pb7ef36f2a9)" d="M 202.88984 504 
L 202.88984 69.12 
" style="fill:none;stroke:#d3d3d3;stroke-linecap:round;"/>
     </g>
     <g id="text_2">
      <!-- Apr-2019 -->
      <g transform="translate(173.171636 523.377969)scale(0.13 -0.13)">
       <defs>
        <path d="M 34.1875 63.1875 
L 20.796875 26.90625 
L 47.609375 26.90625 
z
M 28.609375 72.90625 
L 39.796875 72.90625 
L 67.578125 0 
L 57.328125 0 
L 50.6875 18.703125 
L 17.828125 18.703125 
L 11.1875 0 
L 0.78125 0 
z
" id="DejaVuSans-65"/>
        <path d="M 18.109375 8.203125 
L 18.109375 -20.796875 
L 9.078125 -20.796875 
L 9.078125 54.6875 
L 18.109375 54.6875 
L 18.109375 46.390625 
Q 20.953125 51.265625 25.265625 53.625 
Q 29.59375 56 35.59375 56 
Q 45.5625 56 51.78125 48.09375 
Q 58.015625 40.1875 58.015625 27.296875 
Q 58.015625 14.40625 51.78125 6.484375 
Q 45.5625 -1.421875 35.59375 -1.421875 
Q 29.59375 -1.421875 25.265625 0.953125 
Q 20.953125 3.328125 18.109375 8.203125 
z
M 48.6875 27.296875 
Q 48.6875 37.203125 44.609375 42.84375 
Q 40.53125 48.484375 33.40625 48.484375 
Q 26.265625 48.484375 22.1875 42.84375 
Q 18.109375 37.203125 18.109375 27.296875 
Q 18.109375 17.390625 22.1875 11.75 
Q 26.265625 6.109375 33.40625 6.109375 
Q 40.53125 6.109375 44.609375 11.75 
Q 48.6875 17.390625 48.6875 27.296875 
z
" id="DejaVuSans-112"/>
        <path d="M 41.109375 46.296875 
Q 39.59375 47.171875 37.8125 47.578125 
Q 36.03125 48 33.890625 48 
Q 26.265625 48 22.1875 43.046875 
Q 18.109375 38.09375 18.109375 28.8125 
L 18.109375 0 
L 9.078125 0 
L 9.078125 54.6875 
L 18.109375 54.6875 
L 18.109375 46.1875 
Q 20.953125 51.171875 25.484375 53.578125 
Q 30.03125 56 36.53125 56 
Q 37.453125 56 38.578125 55.875 
Q 39.703125 55.765625 41.0625 55.515625 
z
" id="DejaVuSans-114"/>
       </defs>
       <use xlink:href="#DejaVuSans-65"/>
       <use x="68.408203" xlink:href="#DejaVuSans-112"/>
       <use x="131.884766" xlink:href="#DejaVuSans-114"/>
       <use x="166.623047" xlink:href="#DejaVuSans-45"/>
       <use x="202.707031" xlink:href="#DejaVuSans-50"/>
       <use x="266.330078" xlink:href="#DejaVuSans-48"/>
       <use x="329.953125" xlink:href="#DejaVuSans-49"/>
       <use x="393.576172" xlink:href="#DejaVuSans-57"/>
      </g>
     </g>
    </g>
    <g id="xtick_3">
     <g id="line2d_3">
      <path clip-path="url(#pb7ef36f2a9)" d="M 268.059465 504 
L 268.059465 69.12 
" style="fill:none;stroke:#d3d3d3;stroke-linecap:round;"/>
     </g>
     <g id="text_3">
      <!-- Jul-2019 -->
      <g transform="translate(241.329231 523.377969)scale(0.13 -0.13)">
       <defs>
        <path d="M 8.5 21.578125 
L 8.5 54.6875 
L 17.484375 54.6875 
L 17.484375 21.921875 
Q 17.484375 14.15625 20.5 10.265625 
Q 23.53125 6.390625 29.59375 6.390625 
Q 36.859375 6.390625 41.078125 11.03125 
Q 45.3125 15.671875 45.3125 23.6875 
L 45.3125 54.6875 
L 54.296875 54.6875 
L 54.296875 0 
L 45.3125 0 
L 45.3125 8.40625 
Q 42.046875 3.421875 37.71875 1 
Q 33.40625 -1.421875 27.6875 -1.421875 
Q 18.265625 -1.421875 13.375 4.4375 
Q 8.5 10.296875 8.5 21.578125 
z
M 31.109375 56 
z
" id="DejaVuSans-117"/>
        <path d="M 9.421875 75.984375 
L 18.40625 75.984375 
L 18.40625 0 
L 9.421875 0 
z
" id="DejaVuSans-108"/>
       </defs>
       <use xlink:href="#DejaVuSans-74"/>
       <use x="29.492188" xlink:href="#DejaVuSans-117"/>
       <use x="92.871094" xlink:href="#DejaVuSans-108"/>
       <use x="120.654297" xlink:href="#DejaVuSans-45"/>
       <use x="156.738281" xlink:href="#DejaVuSans-50"/>
       <use x="220.361328" xlink:href="#DejaVuSans-48"/>
       <use x="283.984375" xlink:href="#DejaVuSans-49"/>
       <use x="347.607422" xlink:href="#DejaVuSans-57"/>
      </g>
     </g>
    </g>
    <g id="xtick_4">
     <g id="line2d_4">
      <path clip-path="url(#pb7ef36f2a9)" d="M 333.945241 504 
L 333.945241 69.12 
" style="fill:none;stroke:#d3d3d3;stroke-linecap:round;"/>
     </g>
     <g id="text_4">
      <!-- Oct-2019 -->
      <g transform="translate(303.818756 523.377969)scale(0.13 -0.13)">
       <defs>
        <path d="M 39.40625 66.21875 
Q 28.65625 66.21875 22.328125 58.203125 
Q 16.015625 50.203125 16.015625 36.375 
Q 16.015625 22.609375 22.328125 14.59375 
Q 28.65625 6.59375 39.40625 6.59375 
Q 50.140625 6.59375 56.421875 14.59375 
Q 62.703125 22.609375 62.703125 36.375 
Q 62.703125 50.203125 56.421875 58.203125 
Q 50.140625 66.21875 39.40625 66.21875 
z
M 39.40625 74.21875 
Q 54.734375 74.21875 63.90625 63.9375 
Q 73.09375 53.65625 73.09375 36.375 
Q 73.09375 19.140625 63.90625 8.859375 
Q 54.734375 -1.421875 39.40625 -1.421875 
Q 24.03125 -1.421875 14.8125 8.828125 
Q 5.609375 19.09375 5.609375 36.375 
Q 5.609375 53.65625 14.8125 63.9375 
Q 24.03125 74.21875 39.40625 74.21875 
z
" id="DejaVuSans-79"/>
        <path d="M 48.78125 52.59375 
L 48.78125 44.1875 
Q 44.96875 46.296875 41.140625 47.34375 
Q 37.3125 48.390625 33.40625 48.390625 
Q 24.65625 48.390625 19.8125 42.84375 
Q 14.984375 37.3125 14.984375 27.296875 
Q 14.984375 17.28125 19.8125 11.734375 
Q 24.65625 6.203125 33.40625 6.203125 
Q 37.3125 6.203125 41.140625 7.25 
Q 44.96875 8.296875 48.78125 10.40625 
L 48.78125 2.09375 
Q 45.015625 0.34375 40.984375 -0.53125 
Q 36.96875 -1.421875 32.421875 -1.421875 
Q 20.0625 -1.421875 12.78125 6.34375 
Q 5.515625 14.109375 5.515625 27.296875 
Q 5.515625 40.671875 12.859375 48.328125 
Q 20.21875 56 33.015625 56 
Q 37.15625 56 41.109375 55.140625 
Q 45.0625 54.296875 48.78125 52.59375 
z
" id="DejaVuSans-99"/>
        <path d="M 18.3125 70.21875 
L 18.3125 54.6875 
L 36.8125 54.6875 
L 36.8125 47.703125 
L 18.3125 47.703125 
L 18.3125 18.015625 
Q 18.3125 11.328125 20.140625 9.421875 
Q 21.96875 7.515625 27.59375 7.515625 
L 36.8125 7.515625 
L 36.8125 0 
L 27.59375 0 
Q 17.1875 0 13.234375 3.875 
Q 9.28125 7.765625 9.28125 18.015625 
L 9.28125 47.703125 
L 2.6875 47.703125 
L 2.6875 54.6875 
L 9.28125 54.6875 
L 9.28125 70.21875 
z
" id="DejaVuSans-116"/>
       </defs>
       <use xlink:href="#DejaVuSans-79"/>
       <use x="78.710938" xlink:href="#DejaVuSans-99"/>
       <use x="133.691406" xlink:href="#DejaVuSans-116"/>
       <use x="172.900391" xlink:href="#DejaVuSans-45"/>
       <use x="208.984375" xlink:href="#DejaVuSans-50"/>
       <use x="272.607422" xlink:href="#DejaVuSans-48"/>
       <use x="336.230469" xlink:href="#DejaVuSans-49"/>
       <use x="399.853516" xlink:href="#DejaVuSans-57"/>
      </g>
     </g>
    </g>
    <g id="xtick_5">
     <g id="line2d_5">
      <path clip-path="url(#pb7ef36f2a9)" d="M 399.831016 504 
L 399.831016 69.12 
" style="fill:none;stroke:#d3d3d3;stroke-linecap:round;"/>
     </g>
     <g id="text_5">
      <!-- Jan-2020 -->
      <g transform="translate(370.923282 523.377969)scale(0.13 -0.13)">
       <use xlink:href="#DejaVuSans-74"/>
       <use x="29.492188" xlink:href="#DejaVuSans-97"/>
       <use x="90.771484" xlink:href="#DejaVuSans-110"/>
       <use x="154.150391" xlink:href="#DejaVuSans-45"/>
       <use x="190.234375" xlink:href="#DejaVuSans-50"/>
       <use x="253.857422" xlink:href="#DejaVuSans-48"/>
       <use x="317.480469" xlink:href="#DejaVuSans-50"/>
       <use x="381.103516" xlink:href="#DejaVuSans-48"/>
      </g>
     </g>
    </g>
    <g id="xtick_6">
     <g id="line2d_6">
      <path clip-path="url(#pb7ef36f2a9)" d="M 465.000642 504 
L 465.000642 69.12 
" style="fill:none;stroke:#d3d3d3;stroke-linecap:round;"/>
     </g>
     <g id="text_6">
      <!-- Apr-2020 -->
      <g transform="translate(435.282439 523.377969)scale(0.13 -0.13)">
       <use xlink:href="#DejaVuSans-65"/>
       <use x="68.408203" xlink:href="#DejaVuSans-112"/>
       <use x="131.884766" xlink:href="#DejaVuSans-114"/>
       <use x="166.623047" xlink:href="#DejaVuSans-45"/>
       <use x="202.707031" xlink:href="#DejaVuSans-50"/>
       <use x="266.330078" xlink:href="#DejaVuSans-48"/>
       <use x="329.953125" xlink:href="#DejaVuSans-50"/>
       <use x="393.576172" xlink:href="#DejaVuSans-48"/>
      </g>
     </g>
    </g>
    <g id="xtick_7">
     <g id="line2d_7">
      <path clip-path="url(#pb7ef36f2a9)" d="M 530.170267 504 
L 530.170267 69.12 
" style="fill:none;stroke:#d3d3d3;stroke-linecap:round;"/>
     </g>
     <g id="text_7">
      <!-- Jul-2020 -->
      <g transform="translate(503.440033 523.377969)scale(0.13 -0.13)">
       <use xlink:href="#DejaVuSans-74"/>
       <use x="29.492188" xlink:href="#DejaVuSans-117"/>
       <use x="92.871094" xlink:href="#DejaVuSans-108"/>
       <use x="120.654297" xlink:href="#DejaVuSans-45"/>
       <use x="156.738281" xlink:href="#DejaVuSans-50"/>
       <use x="220.361328" xlink:href="#DejaVuSans-48"/>
       <use x="283.984375" xlink:href="#DejaVuSans-50"/>
       <use x="347.607422" xlink:href="#DejaVuSans-48"/>
      </g>
     </g>
    </g>
    <g id="xtick_8">
     <g id="line2d_8">
      <path clip-path="url(#pb7ef36f2a9)" d="M 596.056043 504 
L 596.056043 69.12 
" style="fill:none;stroke:#d3d3d3;stroke-linecap:round;"/>
     </g>
     <g id="text_8">
      <!-- Oct-2020 -->
      <g transform="translate(565.929558 523.377969)scale(0.13 -0.13)">
       <use xlink:href="#DejaVuSans-79"/>
       <use x="78.710938" xlink:href="#DejaVuSans-99"/>
       <use x="133.691406" xlink:href="#DejaVuSans-116"/>
       <use x="172.900391" xlink:href="#DejaVuSans-45"/>
       <use x="208.984375" xlink:href="#DejaVuSans-50"/>
       <use x="272.607422" xlink:href="#DejaVuSans-48"/>
       <use x="336.230469" xlink:href="#DejaVuSans-50"/>
       <use x="399.853516" xlink:href="#DejaVuSans-48"/>
      </g>
     </g>
    </g>
    <g id="xtick_9">
     <g id="line2d_9">
      <path clip-path="url(#pb7ef36f2a9)" d="M 661.941818 504 
L 661.941818 69.12 
" style="fill:none;stroke:#d3d3d3;stroke-linecap:round;"/>
     </g>
     <g id="text_9">
      <!-- Jan-2021 -->
      <g transform="translate(633.034084 523.377969)scale(0.13 -0.13)">
       <use xlink:href="#DejaVuSans-74"/>
       <use x="29.492188" xlink:href="#DejaVuSans-97"/>
       <use x="90.771484" xlink:href="#DejaVuSans-110"/>
       <use x="154.150391" xlink:href="#DejaVuSans-45"/>
       <use x="190.234375" xlink:href="#DejaVuSans-50"/>
       <use x="253.857422" xlink:href="#DejaVuSans-48"/>
       <use x="317.480469" xlink:href="#DejaVuSans-50"/>
       <use x="381.103516" xlink:href="#DejaVuSans-49"/>
      </g>
     </g>
    </g>
    <g id="xtick_10">
     <g id="line2d_10">
      <path clip-path="url(#pb7ef36f2a9)" d="M 726.395294 504 
L 726.395294 69.12 
" style="fill:none;stroke:#d3d3d3;stroke-linecap:round;"/>
     </g>
     <g id="text_10">
      <!-- Apr-2021 -->
      <g transform="translate(696.677091 523.377969)scale(0.13 -0.13)">
       <use xlink:href="#DejaVuSans-65"/>
       <use x="68.408203" xlink:href="#DejaVuSans-112"/>
       <use x="131.884766" xlink:href="#DejaVuSans-114"/>
       <use x="166.623047" xlink:href="#DejaVuSans-45"/>
       <use x="202.707031" xlink:href="#DejaVuSans-50"/>
       <use x="266.330078" xlink:href="#DejaVuSans-48"/>
       <use x="329.953125" xlink:href="#DejaVuSans-50"/>
       <use x="393.576172" xlink:href="#DejaVuSans-49"/>
      </g>
     </g>
    </g>
   </g>
   <g id="matplotlib.axis_2">
    <g id="ytick_1">
     <g id="line2d_11">
      <path clip-path="url(#pb7ef36f2a9)" d="M 108 493.359121 
L 777.6 493.359121 
" style="fill:none;stroke:#d3d3d3;stroke-linecap:round;"/>
     </g>
     <g id="text_11">
      <!-- -0.010 -->
      <g transform="translate(56.593281 498.298105)scale(0.13 -0.13)">
       <defs>
        <path d="M 10.6875 12.40625 
L 21 12.40625 
L 21 0 
L 10.6875 0 
z
" id="DejaVuSans-46"/>
       </defs>
       <use xlink:href="#DejaVuSans-45"/>
       <use x="36.083984" xlink:href="#DejaVuSans-48"/>
       <use x="99.707031" xlink:href="#DejaVuSans-46"/>
       <use x="131.494141" xlink:href="#DejaVuSans-48"/>
       <use x="195.117188" xlink:href="#DejaVuSans-49"/>
       <use x="258.740234" xlink:href="#DejaVuSans-48"/>
      </g>
     </g>
    </g>
    <g id="ytick_2">
     <g id="line2d_12">
      <path clip-path="url(#pb7ef36f2a9)" d="M 108 401.786075 
L 777.6 401.786075 
" style="fill:none;stroke:#d3d3d3;stroke-linecap:round;"/>
     </g>
     <g id="text_12">
      <!-- -0.005 -->
      <g transform="translate(56.593281 406.725059)scale(0.13 -0.13)">
       <defs>
        <path d="M 10.796875 72.90625 
L 49.515625 72.90625 
L 49.515625 64.59375 
L 19.828125 64.59375 
L 19.828125 46.734375 
Q 21.96875 47.46875 24.109375 47.828125 
Q 26.265625 48.1875 28.421875 48.1875 
Q 40.625 48.1875 47.75 41.5 
Q 54.890625 34.8125 54.890625 23.390625 
Q 54.890625 11.625 47.5625 5.09375 
Q 40.234375 -1.421875 26.90625 -1.421875 
Q 22.3125 -1.421875 17.546875 -0.640625 
Q 12.796875 0.140625 7.71875 1.703125 
L 7.71875 11.625 
Q 12.109375 9.234375 16.796875 8.0625 
Q 21.484375 6.890625 26.703125 6.890625 
Q 35.15625 6.890625 40.078125 11.328125 
Q 45.015625 15.765625 45.015625 23.390625 
Q 45.015625 31 40.078125 35.4375 
Q 35.15625 39.890625 26.703125 39.890625 
Q 22.75 39.890625 18.8125 39.015625 
Q 14.890625 38.140625 10.796875 36.28125 
z
" id="DejaVuSans-53"/>
       </defs>
       <use xlink:href="#DejaVuSans-45"/>
       <use x="36.083984" xlink:href="#DejaVuSans-48"/>
       <use x="99.707031" xlink:href="#DejaVuSans-46"/>
       <use x="131.494141" xlink:href="#DejaVuSans-48"/>
       <use x="195.117188" xlink:href="#DejaVuSans-48"/>
       <use x="258.740234" xlink:href="#DejaVuSans-53"/>
      </g>
     </g>
    </g>
    <g id="ytick_3">
     <g id="line2d_13">
      <path clip-path="url(#pb7ef36f2a9)" d="M 108 310.213029 
L 777.6 310.213029 
" style="fill:none;stroke:#d3d3d3;stroke-linecap:round;"/>
     </g>
     <g id="text_13">
      <!-- 0.000 -->
      <g transform="translate(61.283437 315.152013)scale(0.13 -0.13)">
       <use xlink:href="#DejaVuSans-48"/>
       <use x="63.623047" xlink:href="#DejaVuSans-46"/>
       <use x="95.410156" xlink:href="#DejaVuSans-48"/>
       <use x="159.033203" xlink:href="#DejaVuSans-48"/>
       <use x="222.65625" xlink:href="#DejaVuSans-48"/>
      </g>
     </g>
    </g>
    <g id="ytick_4">
     <g id="line2d_14">
      <path clip-path="url(#pb7ef36f2a9)" d="M 108 218.639983 
L 777.6 218.639983 
" style="fill:none;stroke:#d3d3d3;stroke-linecap:round;"/>
     </g>
     <g id="text_14">
      <!-- 0.005 -->
      <g transform="translate(61.283437 223.578967)scale(0.13 -0.13)">
       <use xlink:href="#DejaVuSans-48"/>
       <use x="63.623047" xlink:href="#DejaVuSans-46"/>
       <use x="95.410156" xlink:href="#DejaVuSans-48"/>
       <use x="159.033203" xlink:href="#DejaVuSans-48"/>
       <use x="222.65625" xlink:href="#DejaVuSans-53"/>
      </g>
     </g>
    </g>
    <g id="ytick_5">
     <g id="line2d_15">
      <path clip-path="url(#pb7ef36f2a9)" d="M 108 127.066937 
L 777.6 127.066937 
" style="fill:none;stroke:#d3d3d3;stroke-linecap:round;"/>
     </g>
     <g id="text_15">
      <!-- 0.010 -->
      <g transform="translate(61.283437 132.005921)scale(0.13 -0.13)">
       <use xlink:href="#DejaVuSans-48"/>
       <use x="63.623047" xlink:href="#DejaVuSans-46"/>
       <use x="95.410156" xlink:href="#DejaVuSans-48"/>
       <use x="159.033203" xlink:href="#DejaVuSans-49"/>
       <use x="222.65625" xlink:href="#DejaVuSans-48"/>
      </g>
     </g>
    </g>
    <g id="text_16">
     <!-- Resonance -->
     <g transform="translate(49.265781 330.1075)rotate(-90)scale(0.16 -0.16)">
      <defs>
       <path d="M 44.390625 34.1875 
Q 47.5625 33.109375 50.5625 29.59375 
Q 53.5625 26.078125 56.59375 19.921875 
L 66.609375 0 
L 56 0 
L 46.6875 18.703125 
Q 43.0625 26.03125 39.671875 28.421875 
Q 36.28125 30.8125 30.421875 30.8125 
L 19.671875 30.8125 
L 19.671875 0 
L 9.8125 0 
L 9.8125 72.90625 
L 32.078125 72.90625 
Q 44.578125 72.90625 50.734375 67.671875 
Q 56.890625 62.453125 56.890625 51.90625 
Q 56.890625 45.015625 53.6875 40.46875 
Q 50.484375 35.9375 44.390625 34.1875 
z
M 19.671875 64.796875 
L 19.671875 38.921875 
L 32.078125 38.921875 
Q 39.203125 38.921875 42.84375 42.21875 
Q 46.484375 45.515625 46.484375 51.90625 
Q 46.484375 58.296875 42.84375 61.546875 
Q 39.203125 64.796875 32.078125 64.796875 
z
" id="DejaVuSans-82"/>
       <path d="M 56.203125 29.59375 
L 56.203125 25.203125 
L 14.890625 25.203125 
Q 15.484375 15.921875 20.484375 11.0625 
Q 25.484375 6.203125 34.421875 6.203125 
Q 39.59375 6.203125 44.453125 7.46875 
Q 49.3125 8.734375 54.109375 11.28125 
L 54.109375 2.78125 
Q 49.265625 0.734375 44.1875 -0.34375 
Q 39.109375 -1.421875 33.890625 -1.421875 
Q 20.796875 -1.421875 13.15625 6.1875 
Q 5.515625 13.8125 5.515625 26.8125 
Q 5.515625 40.234375 12.765625 48.109375 
Q 20.015625 56 32.328125 56 
Q 43.359375 56 49.78125 48.890625 
Q 56.203125 41.796875 56.203125 29.59375 
z
M 47.21875 32.234375 
Q 47.125 39.59375 43.09375 43.984375 
Q 39.0625 48.390625 32.421875 48.390625 
Q 24.90625 48.390625 20.390625 44.140625 
Q 15.875 39.890625 15.1875 32.171875 
z
" id="DejaVuSans-101"/>
       <path d="M 44.28125 53.078125 
L 44.28125 44.578125 
Q 40.484375 46.53125 36.375 47.5 
Q 32.28125 48.484375 27.875 48.484375 
Q 21.1875 48.484375 17.84375 46.4375 
Q 14.5 44.390625 14.5 40.28125 
Q 14.5 37.15625 16.890625 35.375 
Q 19.28125 33.59375 26.515625 31.984375 
L 29.59375 31.296875 
Q 39.15625 29.25 43.1875 25.515625 
Q 47.21875 21.78125 47.21875 15.09375 
Q 47.21875 7.46875 41.1875 3.015625 
Q 35.15625 -1.421875 24.609375 -1.421875 
Q 20.21875 -1.421875 15.453125 -0.5625 
Q 10.6875 0.296875 5.421875 2 
L 5.421875 11.28125 
Q 10.40625 8.6875 15.234375 7.390625 
Q 20.0625 6.109375 24.8125 6.109375 
Q 31.15625 6.109375 34.5625 8.28125 
Q 37.984375 10.453125 37.984375 14.40625 
Q 37.984375 18.0625 35.515625 20.015625 
Q 33.0625 21.96875 24.703125 23.78125 
L 21.578125 24.515625 
Q 13.234375 26.265625 9.515625 29.90625 
Q 5.8125 33.546875 5.8125 39.890625 
Q 5.8125 47.609375 11.28125 51.796875 
Q 16.75 56 26.8125 56 
Q 31.78125 56 36.171875 55.265625 
Q 40.578125 54.546875 44.28125 53.078125 
z
" id="DejaVuSans-115"/>
       <path d="M 30.609375 48.390625 
Q 23.390625 48.390625 19.1875 42.75 
Q 14.984375 37.109375 14.984375 27.296875 
Q 14.984375 17.484375 19.15625 11.84375 
Q 23.34375 6.203125 30.609375 6.203125 
Q 37.796875 6.203125 41.984375 11.859375 
Q 46.1875 17.53125 46.1875 27.296875 
Q 46.1875 37.015625 41.984375 42.703125 
Q 37.796875 48.390625 30.609375 48.390625 
z
M 30.609375 56 
Q 42.328125 56 49.015625 48.375 
Q 55.71875 40.765625 55.71875 27.296875 
Q 55.71875 13.875 49.015625 6.21875 
Q 42.328125 -1.421875 30.609375 -1.421875 
Q 18.84375 -1.421875 12.171875 6.21875 
Q 5.515625 13.875 5.515625 27.296875 
Q 5.515625 40.765625 12.171875 48.375 
Q 18.84375 56 30.609375 56 
z
" id="DejaVuSans-111"/>
      </defs>
      <use xlink:href="#DejaVuSans-82"/>
      <use x="64.982422" xlink:href="#DejaVuSans-101"/>
      <use x="126.505859" xlink:href="#DejaVuSans-115"/>
      <use x="178.605469" xlink:href="#DejaVuSans-111"/>
      <use x="239.787109" xlink:href="#DejaVuSans-110"/>
      <use x="303.166016" xlink:href="#DejaVuSans-97"/>
      <use x="364.445312" xlink:href="#DejaVuSans-110"/>
      <use x="427.824219" xlink:href="#DejaVuSans-99"/>
      <use x="482.804688" xlink:href="#DejaVuSans-101"/>
     </g>
    </g>
   </g>
   <g id="line2d_16">
    <path clip-path="url(#pb7ef36f2a9)" d="M 138.436364 310.213029 
L 139.868663 310.213029 
L 140.584813 266.693731 
L 141.300963 287.387485 
L 142.017112 330.008712 
L 142.733262 283.022415 
L 143.449412 292.987334 
L 144.165561 310.323783 
L 144.881711 337.501334 
L 145.597861 329.018016 
L 146.314011 299.291707 
L 147.03016 335.390112 
L 147.74631 299.619305 
L 148.46246 291.822528 
L 149.894759 335.0454 
L 150.610909 298.330931 
L 151.327059 291.71479 
L 152.043209 329.289543 
L 152.759358 306.055253 
L 153.475508 287.365116 
L 154.191658 300.765764 
L 154.907807 342.41688 
L 156.340107 305.855065 
L 157.056257 310.403942 
L 157.772406 313.717675 
L 158.488556 271.651444 
L 159.204706 294.611006 
L 159.920856 332.129478 
L 161.353155 306.534875 
L 162.069305 315.450933 
L 162.785455 298.329653 
L 163.501604 288.728889 
L 164.217754 313.333175 
L 164.933904 333.539341 
L 165.650053 332.51664 
L 166.366203 289.91067 
L 167.082353 296.453945 
L 167.798503 308.155297 
L 168.514652 303.255708 
L 169.230802 301.615666 
L 169.946952 316.227995 
L 170.663102 314.827588 
L 171.379251 319.89302 
L 172.095401 315.035815 
L 172.811551 293.591898 
L 173.527701 300.969734 
L 174.96 330.41269 
L 175.67615 317.060274 
L 176.392299 312.490544 
L 177.108449 343.476257 
L 177.824599 309.415961 
L 178.540749 268.835262 
L 179.973048 322.353885 
L 180.689198 314.924831 
L 181.405348 299.603415 
L 182.121497 316.441673 
L 182.837647 298.404323 
L 183.553797 294.239744 
L 184.986096 346.09537 
L 186.418396 307.625699 
L 187.134545 336.068137 
L 187.850695 272.543792 
L 188.566845 274.205661 
L 189.282995 307.315154 
L 189.999144 333.923789 
L 190.715294 312.196918 
L 191.431444 293.92961 
L 192.147594 314.464612 
L 192.863743 298.101703 
L 193.579893 302.548732 
L 195.012193 336.745507 
L 195.728342 313.187892 
L 196.444492 302.354229 
L 197.160642 322.472595 
L 197.876791 294.762055 
L 198.592941 288.275997 
L 199.309091 310.344993 
L 200.025241 323.322977 
L 200.74139 321.72512 
L 201.45754 312.85854 
L 202.17369 322.054659 
L 202.88984 300.566244 
L 203.605989 284.286667 
L 204.322139 300.922727 
L 205.038289 331.409001 
L 205.754439 315.063089 
L 206.470588 309.317713 
L 207.186738 323.976958 
L 207.902888 304.703783 
L 208.619037 297.005948 
L 209.335187 298.994466 
L 210.051337 357.510145 
L 210.767487 361.438926 
L 211.483636 318.330074 
L 212.199786 246.369152 
L 212.915936 311.621477 
L 213.632086 324.961841 
L 214.348235 272.880535 
L 215.064385 287.713354 
L 216.496684 334.805377 
L 217.212834 347.434376 
L 217.928984 351.972154 
L 218.645134 257.860686 
L 220.077433 318.7332 
L 220.793583 342.592528 
L 221.509733 288.075617 
L 222.225882 307.419379 
L 222.942032 306.203579 
L 223.658182 287.65869 
L 224.374332 316.15699 
L 225.090481 331.420169 
L 225.806631 296.098465 
L 226.522781 303.852677 
L 227.23893 309.943285 
L 227.95508 310.86349 
L 228.67123 290.608471 
L 229.38738 305.1747 
L 230.103529 310.610826 
L 230.819679 314.724009 
L 231.535829 306.951544 
L 232.251979 310.931364 
L 232.968128 315.592395 
L 233.684278 304.901835 
L 234.400428 336.976042 
L 235.116578 340.495861 
L 235.832727 311.688256 
L 236.548877 306.525265 
L 237.265027 328.751242 
L 238.697326 253.73907 
L 239.413476 297.654638 
L 240.129626 316.587492 
L 240.845775 320.557778 
L 241.561925 305.06934 
L 242.278075 301.738249 
L 242.994225 311.730879 
L 243.710374 309.473488 
L 244.426524 313.070527 
L 245.142674 315.089202 
L 245.858824 333.346633 
L 246.574973 331.819519 
L 247.291123 313.403017 
L 248.007273 306.856317 
L 248.723422 316.459345 
L 249.439572 283.588791 
L 250.155722 298.028095 
L 250.871872 328.880828 
L 251.588021 301.200425 
L 252.304171 323.399832 
L 253.020321 390.100194 
L 253.736471 338.827777 
L 254.45262 305.321558 
L 255.16877 265.602923 
L 255.88492 354.799117 
L 256.60107 316.37887 
L 257.317219 224.379086 
L 258.033369 255.69636 
L 258.749519 296.653934 
L 259.465668 315.729053 
L 260.181818 340.13651 
L 260.897968 329.52804 
L 261.614118 289.830167 
L 262.330267 318.479515 
L 263.046417 323.776827 
L 263.762567 315.062222 
L 264.478717 293.808775 
L 265.194866 333.230316 
L 265.911016 321.391692 
L 266.627166 278.901204 
L 268.059465 297.854527 
L 268.775615 299.083068 
L 269.491765 303.474508 
L 270.207914 320.909594 
L 270.924064 319.035087 
L 271.640214 307.859716 
L 272.356364 305.049862 
L 273.072513 307.261356 
L 273.788663 319.325422 
L 274.504813 343.168553 
L 275.937112 292.219679 
L 276.653262 291.67351 
L 277.369412 317.365615 
L 278.085561 294.466298 
L 278.801711 300.953831 
L 279.517861 302.618055 
L 280.234011 310.103188 
L 280.95016 309.39163 
L 281.66631 315.418129 
L 282.38246 311.784676 
L 283.09861 318.352363 
L 283.814759 316.464342 
L 284.530909 319.567866 
L 285.247059 310.301734 
L 285.963209 310.581593 
L 286.679358 302.200451 
L 287.395508 301.717634 
L 288.111658 308.42742 
L 288.827807 308.136897 
L 289.543957 308.665341 
L 290.260107 314.049939 
L 290.976257 313.794497 
L 291.692406 316.507048 
L 292.408556 311.515798 
L 293.124706 299.693565 
L 293.840856 296.33949 
L 294.557005 312.120864 
L 295.273155 321.523408 
L 295.989305 315.785072 
L 296.705455 302.820275 
L 297.421604 306.008627 
L 298.137754 305.705033 
L 298.853904 308.442482 
L 299.570053 313.932194 
L 300.286203 316.438725 
L 301.002353 317.86446 
L 301.718503 313.786768 
L 302.434652 329.665503 
L 303.150802 309.689756 
L 303.866952 300.635056 
L 304.583102 317.489766 
L 305.299251 321.941702 
L 306.015401 307.818049 
L 306.731551 289.416267 
L 307.447701 310.376635 
L 308.16385 303.709516 
L 308.88 294.243974 
L 309.59615 330.64856 
L 310.312299 350.786534 
L 311.028449 347.096736 
L 311.744599 299.765246 
L 312.460749 321.617585 
L 313.176898 275.428195 
L 313.893048 275.209739 
L 314.609198 314.685818 
L 315.325348 323.993403 
L 316.041497 343.75916 
L 316.757647 308.299561 
L 317.473797 344.915012 
L 318.189947 273.304922 
L 318.906096 249.630831 
L 319.622246 296.383104 
L 320.338396 324.553448 
L 321.054545 319.470007 
L 321.770695 308.67088 
L 322.486845 332.829807 
L 323.202995 299.699572 
L 323.919144 299.94095 
L 324.635294 309.444329 
L 325.351444 313.672546 
L 326.067594 314.308816 
L 326.783743 294.87562 
L 327.499893 315.036967 
L 328.216043 302.82455 
L 328.932193 293.287683 
L 329.648342 306.364907 
L 330.364492 321.774997 
L 331.080642 324.455385 
L 331.796791 314.265244 
L 332.512941 329.834458 
L 333.229091 298.534791 
L 333.945241 296.287267 
L 334.66139 318.433519 
L 335.37754 327.158447 
L 336.09369 306.988641 
L 336.80984 295.718922 
L 337.525989 329.668851 
L 338.242139 305.343422 
L 338.958289 298.079037 
L 339.674439 324.489917 
L 340.390588 332.87219 
L 341.106738 325.739566 
L 341.822888 280.996078 
L 343.255187 288.559863 
L 344.687487 313.550882 
L 345.403636 319.241303 
L 346.119786 323.740978 
L 346.835936 331.226128 
L 347.552086 342.740128 
L 348.268235 292.698835 
L 348.984385 286.676665 
L 349.700535 307.50011 
L 350.416684 341.146949 
L 351.132834 314.152801 
L 351.848984 306.370528 
L 352.565134 336.953492 
L 353.281283 306.818404 
L 353.997433 251.304469 
L 354.713583 305.755773 
L 355.429733 323.261641 
L 356.145882 324.004982 
L 356.862032 300.92638 
L 357.578182 318.611158 
L 358.294332 293.306245 
L 359.010481 307.823127 
L 359.726631 309.552662 
L 360.442781 339.198702 
L 361.15893 328.592362 
L 361.87508 294.315055 
L 362.59123 309.589861 
L 363.30738 287.665234 
L 364.023529 284.06061 
L 364.739679 305.560822 
L 365.455829 330.431481 
L 366.171979 320.93393 
L 366.888128 316.35612 
L 367.604278 326.766636 
L 368.320428 282.00675 
L 369.036578 281.698247 
L 369.752727 317.16335 
L 370.468877 339.295209 
L 371.185027 337.175222 
L 371.901176 285.89104 
L 372.617326 316.565188 
L 373.333476 288.596598 
L 374.049626 290.241512 
L 374.765775 302.835881 
L 375.481925 325.433278 
L 376.198075 317.60838 
L 376.914225 322.485962 
L 377.630374 335.991745 
L 378.346524 280.32053 
L 379.062674 282.693895 
L 380.494973 321.210117 
L 381.211123 326.114576 
L 381.927273 308.32758 
L 382.643422 314.742471 
L 383.359572 311.708096 
L 384.075722 299.748663 
L 384.791872 308.271979 
L 385.508021 336.778567 
L 386.224171 307.192839 
L 386.940321 297.576113 
L 387.656471 319.309893 
L 388.37262 311.571565 
L 389.08877 291.69924 
L 389.80492 302.557087 
L 390.52107 322.802286 
L 391.237219 314.246846 
L 391.953369 444.165566 
L 392.669519 484.232727 
L 393.385668 401.572231 
L 394.101818 258.63679 
L 394.817968 344.929837 
L 395.534118 183.305 
L 396.250267 88.887273 
L 396.966417 343.845833 
L 397.682567 427.065939 
L 398.398717 373.168417 
L 399.114866 280.488169 
L 399.831016 303.546063 
L 400.547166 198.005323 
L 401.263316 195.814513 
L 401.979465 299.799223 
L 402.695615 318.750687 
L 403.411765 301.741714 
L 404.127914 308.566375 
L 404.844064 319.417006 
L 405.560214 327.042256 
L 406.276364 330.061323 
L 406.992513 312.454342 
L 407.708663 329.482173 
L 409.140963 272.220357 
L 409.857112 302.371531 
L 410.573262 309.482749 
L 411.289412 331.098304 
L 412.721711 311.336638 
L 413.437861 295.328429 
L 414.154011 297.723912 
L 414.87016 295.783631 
L 415.58631 317.776565 
L 416.30246 315.123248 
L 417.01861 313.159875 
L 417.734759 306.530433 
L 418.450909 316.720374 
L 419.167059 323.525578 
L 419.883209 318.699551 
L 420.599358 315.23954 
L 421.315508 297.218433 
L 422.031658 299.496814 
L 422.747807 306.50445 
L 423.463957 298.824328 
L 424.180107 299.920331 
L 424.896257 307.830236 
L 425.612406 320.061363 
L 426.328556 317.703001 
L 427.044706 310.184867 
L 427.760856 315.81968 
L 428.477005 318.675503 
L 429.193155 312.068343 
L 429.909305 307.010028 
L 430.625455 304.462966 
L 431.341604 307.492281 
L 432.057754 314.216078 
L 432.773904 311.542738 
L 433.490053 310.543791 
L 434.206203 322.137622 
L 434.922353 314.856911 
L 435.638503 309.504456 
L 436.354652 305.680392 
L 437.070802 300.809292 
L 437.786952 302.705657 
L 438.503102 307.081505 
L 439.219251 308.993934 
L 439.935401 314.48639 
L 440.651551 303.259265 
L 441.367701 314.249367 
L 442.08385 306.421938 
L 442.8 308.895084 
L 443.51615 309.092734 
L 444.232299 307.036319 
L 444.948449 318.617072 
L 445.664599 319.98257 
L 446.380749 303.761349 
L 447.096898 314.559665 
L 447.813048 332.835359 
L 448.529198 321.004404 
L 449.245348 289.056987 
L 449.961497 292.513485 
L 450.677647 300.920914 
L 451.393797 312.679379 
L 452.109947 316.449775 
L 452.826096 305.054632 
L 453.542246 308.144939 
L 454.258396 316.519764 
L 454.974545 313.542705 
L 455.690695 312.082351 
L 456.406845 307.133743 
L 457.122995 294.795716 
L 457.839144 304.944062 
L 459.271444 310.10787 
L 459.987594 314.839519 
L 460.703743 329.881184 
L 461.419893 325.092404 
L 462.136043 306.524881 
L 462.852193 308.949564 
L 463.568342 294.381444 
L 464.284492 304.693975 
L 465.000642 302.743774 
L 465.716791 321.796984 
L 466.432941 323.504511 
L 467.149091 310.110915 
L 467.865241 317.539363 
L 468.58139 303.518673 
L 469.29754 320.783817 
L 470.01369 322.114981 
L 470.72984 288.660868 
L 471.445989 293.604814 
L 472.878289 324.444268 
L 473.594439 316.979575 
L 474.310588 304.091318 
L 475.026738 314.095908 
L 475.742888 300.824993 
L 476.459037 302.417146 
L 477.175187 308.679095 
L 477.891337 310.771813 
L 478.607487 304.918348 
L 479.323636 310.304902 
L 480.039786 317.136397 
L 480.755936 343.434952 
L 481.472086 359.977295 
L 482.188235 314.609849 
L 482.904385 295.005842 
L 483.620535 282.359388 
L 484.336684 291.081175 
L 485.052834 296.81137 
L 485.768984 330.081447 
L 486.485134 315.611325 
L 487.201283 294.574561 
L 487.917433 316.345436 
L 488.633583 312.536658 
L 489.349733 297.542575 
L 490.065882 314.367085 
L 490.782032 352.700765 
L 491.498182 296.964538 
L 492.214332 284.851492 
L 492.930481 307.294767 
L 493.646631 304.131604 
L 494.362781 297.150102 
L 495.07893 325.871394 
L 495.79508 336.211118 
L 496.51123 310.829235 
L 497.22738 294.795657 
L 497.943529 324.509018 
L 498.659679 285.901933 
L 499.375829 300.313714 
L 500.091979 328.298104 
L 501.524278 294.29217 
L 502.240428 307.436878 
L 502.956578 340.006484 
L 503.672727 307.89946 
L 504.388877 284.262017 
L 505.105027 307.347586 
L 505.821176 345.511051 
L 507.253476 280.556184 
L 507.969626 303.562621 
L 508.685775 313.709607 
L 509.401925 302.256641 
L 510.118075 306.366069 
L 510.834225 320.005685 
L 512.266524 305.20435 
L 512.982674 322.262004 
L 513.698824 300.090538 
L 514.414973 298.670799 
L 515.131123 307.969007 
L 515.847273 327.810317 
L 516.563422 324.253096 
L 517.279572 306.140073 
L 517.995722 321.569875 
L 518.711872 297.225297 
L 519.428021 293.006512 
L 520.144171 312.030297 
L 520.860321 317.995619 
L 521.576471 316.687067 
L 522.29262 293.911306 
L 523.00877 314.872105 
L 523.72492 314.200022 
L 525.157219 304.468739 
L 525.873369 315.400236 
L 526.589519 310.668226 
L 527.305668 313.42271 
L 528.021818 310.476311 
L 528.737968 294.203938 
L 529.454118 300.820728 
L 530.170267 316.413781 
L 530.886417 321.242381 
L 531.602567 312.620636 
L 532.318717 299.439979 
L 533.034866 306.402938 
L 533.751016 315.229558 
L 534.467166 304.000933 
L 535.183316 319.172886 
L 535.899465 300.168578 
L 536.615615 315.848817 
L 537.331765 304.95088 
L 538.047914 319.935146 
L 538.764064 314.524492 
L 539.480214 306.733909 
L 540.196364 310.648506 
L 540.912513 323.861213 
L 541.628663 313.706986 
L 543.060963 297.399399 
L 543.777112 307.09154 
L 544.493262 306.171452 
L 545.209412 311.701163 
L 545.925561 314.136169 
L 546.641711 310.906864 
L 547.357861 324.050932 
L 548.074011 304.798699 
L 548.79016 303.457736 
L 549.50631 311.233707 
L 550.22246 315.782783 
L 550.93861 308.642837 
L 551.654759 312.386476 
L 552.370909 306.55361 
L 553.087059 319.051854 
L 553.803209 306.344551 
L 554.519358 304.395569 
L 555.951658 319.206896 
L 556.667807 306.309146 
L 557.383957 301.604767 
L 558.100107 316.264924 
L 558.816257 303.740752 
L 559.532406 300.822785 
L 560.248556 307.415255 
L 560.964706 322.312889 
L 561.680856 320.095362 
L 562.397005 307.431295 
L 563.113155 317.209195 
L 563.829305 303.511481 
L 564.545455 308.183281 
L 565.261604 304.861525 
L 565.977754 307.034803 
L 566.693904 312.100761 
L 567.410053 318.07608 
L 568.126203 336.03265 
L 568.842353 288.231414 
L 569.558503 296.257891 
L 570.274652 313.127568 
L 570.990802 321.592818 
L 571.706952 326.076775 
L 572.423102 310.420367 
L 573.139251 333.555701 
L 573.855401 285.478771 
L 574.571551 283.05824 
L 576.00385 328.57377 
L 576.72 322.632739 
L 577.43615 313.917735 
L 578.152299 319.628922 
L 578.868449 293.42859 
L 579.584599 300.998191 
L 580.300749 326.246743 
L 581.016898 302.467599 
L 581.733048 309.755254 
L 582.449198 304.020608 
L 583.165348 326.616658 
L 583.881497 293.752315 
L 584.597647 297.194106 
L 586.029947 319.300915 
L 586.746096 311.652613 
L 587.462246 299.338826 
L 588.178396 310.909302 
L 588.894545 310.967696 
L 589.610695 313.469677 
L 590.326845 315.486947 
L 591.042995 330.734811 
L 591.759144 318.240956 
L 592.475294 311.224361 
L 593.191444 322.181908 
L 594.623743 270.095567 
L 595.339893 309.185592 
L 596.056043 318.481407 
L 596.772193 316.910644 
L 597.488342 316.797035 
L 598.204492 328.070402 
L 598.920642 332.953511 
L 599.636791 316.923497 
L 600.352941 289.246824 
L 601.069091 296.554081 
L 601.785241 300.725009 
L 602.50139 303.142638 
L 603.21754 297.473987 
L 603.93369 310.290461 
L 604.64984 312.682254 
L 605.365989 310.391274 
L 606.082139 316.854831 
L 606.798289 329.919393 
L 607.514439 313.490908 
L 608.230588 321.537756 
L 608.946738 314.784164 
L 609.662888 288.493083 
L 610.379037 290.528229 
L 611.095187 299.672403 
L 611.811337 311.471561 
L 612.527487 309.069272 
L 613.243636 321.016531 
L 613.959786 306.054842 
L 614.675936 299.027087 
L 615.392086 316.890161 
L 616.108235 320.599376 
L 616.824385 314.666331 
L 617.540535 311.480144 
L 618.256684 341.339645 
L 618.972834 303.176236 
L 619.688984 299.060792 
L 620.405134 283.322156 
L 621.121283 322.53829 
L 622.553583 304.817446 
L 623.269733 313.452134 
L 623.985882 316.419703 
L 624.702032 294.106176 
L 625.418182 311.28606 
L 626.134332 317.964831 
L 626.850481 319.352236 
L 627.566631 300.91569 
L 628.282781 311.247331 
L 628.99893 299.289424 
L 629.71508 300.457528 
L 631.14738 319.972424 
L 631.863529 323.672546 
L 632.579679 331.754463 
L 633.295829 343.61504 
L 634.011979 278.521539 
L 634.728128 272.744941 
L 635.444278 304.794591 
L 636.160428 322.106898 
L 636.876578 308.59694 
L 637.592727 316.741385 
L 638.308877 344.807908 
L 639.025027 311.836308 
L 639.741176 307.516953 
L 640.457326 286.892367 
L 641.173476 309.097338 
L 641.889626 299.051481 
L 642.605775 306.40982 
L 643.321925 307.72334 
L 644.038075 304.513033 
L 644.754225 308.62882 
L 646.186524 324.859027 
L 646.902674 311.071419 
L 647.618824 305.422969 
L 648.334973 315.437954 
L 649.051123 317.919624 
L 649.767273 304.549367 
L 650.483422 302.590556 
L 651.199572 293.783955 
L 651.915722 311.898264 
L 652.631872 306.210813 
L 653.348021 324.258352 
L 654.064171 408.299808 
L 654.780321 469.624602 
L 655.496471 324.317663 
L 656.21262 242.729855 
L 656.92877 318.398267 
L 657.64492 261.918264 
L 658.36107 183.844092 
L 659.077219 348.124993 
L 659.793369 409.783507 
L 660.509519 402.114028 
L 661.225668 251.020043 
L 661.941818 279.048393 
L 662.657968 230.676556 
L 663.374118 259.232602 
L 664.090267 341.054911 
L 664.806417 322.067138 
L 665.522567 258.686871 
L 666.954866 306.688408 
L 667.671016 318.498715 
L 668.387166 333.949794 
L 669.103316 281.755078 
L 669.819465 288.236977 
L 670.535615 306.655445 
L 671.251765 342.205269 
L 671.967914 308.104256 
L 672.684064 289.622894 
L 673.400214 306.475792 
L 674.116364 308.416032 
L 674.832513 304.476882 
L 675.548663 306.264677 
L 676.264813 338.695995 
L 676.980963 345.326059 
L 677.697112 317.017982 
L 678.413262 294.179396 
L 679.129412 300.5007 
L 679.845561 302.459514 
L 680.561711 286.215938 
L 681.277861 320.910665 
L 681.994011 313.402517 
L 682.71016 316.833274 
L 683.42631 316.27286 
L 684.14246 291.36825 
L 684.85861 292.375203 
L 686.290909 320.655953 
L 687.723209 306.664855 
L 688.439358 320.218664 
L 689.155508 303.228082 
L 689.871658 306.431276 
L 690.587807 314.086037 
L 691.303957 317.398697 
L 692.020107 312.805623 
L 692.736257 295.750114 
L 693.452406 314.746916 
L 694.168556 303.134823 
L 694.884706 304.334893 
L 695.600856 305.230993 
L 696.317005 316.702823 
L 697.033155 315.142133 
L 698.465455 320.342607 
L 699.181604 302.134812 
L 699.897754 299.551556 
L 700.613904 321.48365 
L 702.762353 304.315594 
L 703.478503 314.270192 
L 704.194652 302.89877 
L 704.910802 297.031213 
L 706.343102 325.129423 
L 707.059251 313.811691 
L 707.775401 309.812316 
L 708.491551 322.048046 
L 709.207701 303.90707 
L 709.92385 312.425179 
L 710.64 336.875693 
L 711.35615 326.773619 
L 712.072299 298.110321 
L 712.788449 286.058305 
L 713.504599 308.363513 
L 714.220749 290.781194 
L 714.936898 298.078899 
L 715.653048 314.280141 
L 716.369198 323.901351 
L 717.085348 314.631092 
L 717.801497 316.493259 
L 718.517647 327.030478 
L 719.233797 302.068866 
L 719.949947 291.333345 
L 720.666096 304.14979 
L 722.098396 343.425035 
L 723.530695 371.009171 
L 724.246845 277.040882 
L 724.962995 285.775411 
L 725.679144 287.068451 
L 726.395294 247.117984 
L 727.111444 300.56552 
L 728.543743 320.221863 
L 729.259893 324.613665 
L 729.976043 296.38564 
L 730.692193 296.59695 
L 731.408342 318.871502 
L 732.124492 324.531152 
L 732.840642 303.17608 
L 733.556791 329.587609 
L 734.272941 324.947547 
L 734.989091 297.937351 
L 735.705241 305.834502 
L 736.42139 329.111819 
L 737.13754 304.69351 
L 737.85369 291.20235 
L 738.56984 313.632229 
L 739.285989 287.765101 
L 740.002139 293.209877 
L 740.718289 305.588133 
L 741.434439 307.856536 
L 742.150588 315.886783 
L 742.866738 314.137144 
L 743.582888 321.757122 
L 744.299037 314.540663 
L 745.015187 299.485925 
L 745.731337 310.213029 
L 747.163636 310.213029 
L 747.163636 310.213029 
" style="fill:none;stroke:#0072b2;stroke-linecap:round;stroke-opacity:0.7;stroke-width:1.5;"/>
   </g>
   <g id="line2d_17">
    <path clip-path="url(#pb7ef36f2a9)" d="M 138.436364 310.213029 
L 139.868663 310.213029 
L 140.584813 283.62679 
L 141.300963 315.895281 
L 142.017112 319.242116 
L 142.733262 306.529564 
L 143.449412 296.023872 
L 144.165561 307.814356 
L 144.881711 312.91822 
L 145.597861 316.695158 
L 146.314011 306.706656 
L 147.03016 309.97306 
L 147.74631 306.537547 
L 148.46246 308.601872 
L 149.17861 310.284081 
L 149.894759 312.849578 
L 150.610909 311.340065 
L 151.327059 313.191308 
L 152.043209 306.83026 
L 152.759358 308.023475 
L 153.475508 315.56522 
L 154.191658 307.18985 
L 154.907807 316.378173 
L 155.623957 310.631984 
L 156.340107 311.414487 
L 157.056257 313.334333 
L 157.772406 309.577102 
L 158.488556 303.727261 
L 159.204706 305.491959 
L 159.920856 321.511864 
L 160.637005 307.281548 
L 161.353155 304.528517 
L 162.069305 308.877317 
L 162.785455 308.392526 
L 163.501604 309.175633 
L 164.217754 313.392314 
L 164.933904 321.337009 
L 165.650053 335.970837 
L 166.366203 301.230376 
L 167.082353 293.162766 
L 167.798503 302.811391 
L 168.514652 308.874633 
L 169.230802 302.951354 
L 169.946952 308.941976 
L 171.379251 312.71869 
L 172.095401 312.331645 
L 172.811551 307.71333 
L 173.527701 309.183971 
L 174.24385 312.84159 
L 174.96 312.31188 
L 175.67615 310.453309 
L 176.392299 314.666952 
L 177.108449 325.021509 
L 177.824599 321.46836 
L 178.540749 290.292266 
L 179.973048 305.873086 
L 180.689198 311.124495 
L 181.405348 310.306779 
L 182.121497 313.896784 
L 182.837647 307.432262 
L 183.553797 311.797398 
L 184.986096 334.830656 
L 185.702246 325.680381 
L 186.418396 297.800692 
L 187.134545 322.499953 
L 187.850695 282.765581 
L 188.566845 293.082973 
L 189.999144 327.314602 
L 190.715294 303.384133 
L 191.431444 296.469235 
L 192.147594 311.767608 
L 192.863743 308.110967 
L 193.579893 312.845848 
L 194.296043 310.053953 
L 195.012193 315.038866 
L 196.444492 304.662677 
L 197.160642 310.217267 
L 197.876791 308.805233 
L 198.592941 305.857411 
L 199.309091 309.614959 
L 200.025241 310.760065 
L 200.74139 315.657772 
L 201.45754 318.765116 
L 202.17369 305.792119 
L 202.88984 307.468339 
L 203.605989 312.669115 
L 204.322139 302.160259 
L 205.038289 306.975692 
L 205.754439 309.385869 
L 206.470588 310.501307 
L 207.186738 316.092118 
L 207.902888 314.185289 
L 208.619037 314.74573 
L 209.335187 302.993632 
L 210.051337 326.715669 
L 211.483636 322.881196 
L 212.199786 289.685105 
L 212.915936 316.422852 
L 213.632086 318.800154 
L 214.348235 288.233752 
L 215.064385 301.718743 
L 215.780535 309.150269 
L 216.496684 313.80907 
L 217.212834 331.505385 
L 217.928984 332.404808 
L 218.645134 280.708329 
L 220.793583 333.613476 
L 221.509733 308.366006 
L 222.225882 328.063164 
L 222.942032 312.780501 
L 223.658182 287.355124 
L 224.374332 292.299974 
L 225.090481 312.125249 
L 225.806631 294.262043 
L 226.522781 306.589575 
L 227.95508 313.954677 
L 228.67123 309.968735 
L 229.38738 307.645215 
L 230.103529 307.221956 
L 230.819679 308.802558 
L 231.535829 309.088652 
L 232.968128 314.082489 
L 233.684278 311.1688 
L 234.400428 309.424897 
L 235.116578 315.040739 
L 235.832727 310.189117 
L 236.548877 309.036255 
L 237.265027 318.911497 
L 237.981176 300.941804 
L 238.697326 304.145847 
L 239.413476 310.002887 
L 240.129626 309.018557 
L 240.845775 309.138114 
L 242.278075 312.885451 
L 242.994225 318.505351 
L 243.710374 305.675603 
L 244.426524 305.754433 
L 245.142674 307.597066 
L 246.574973 320.71233 
L 247.291123 307.847257 
L 248.007273 317.84369 
L 248.723422 337.2126 
L 249.439572 300.888501 
L 250.155722 308.672728 
L 250.871872 328.322224 
L 251.588021 286.276729 
L 252.304171 303.584179 
L 253.020321 345.187524 
L 254.45262 332.16187 
L 255.16877 261.337834 
L 256.60107 340.745409 
L 257.317219 287.545324 
L 258.033369 268.45686 
L 258.749519 292.511354 
L 259.465668 311.096134 
L 260.181818 316.013811 
L 260.897968 317.217766 
L 261.614118 306.493227 
L 262.330267 319.910977 
L 263.046417 336.535544 
L 263.762567 337.92358 
L 264.478717 287.669747 
L 265.194866 312.001288 
L 265.911016 319.206448 
L 266.627166 293.440489 
L 267.343316 287.220515 
L 268.059465 295.403387 
L 268.775615 305.691347 
L 269.491765 303.345748 
L 270.207914 310.883289 
L 270.924064 315.44362 
L 271.640214 313.982841 
L 272.356364 311.251826 
L 273.072513 307.431463 
L 273.788663 318.685809 
L 274.504813 324.861712 
L 275.220963 316.196712 
L 275.937112 294.589611 
L 276.653262 306.351125 
L 277.369412 314.590859 
L 278.085561 295.085673 
L 278.801711 305.247845 
L 280.234011 311.956247 
L 282.38246 308.998786 
L 283.09861 309.528317 
L 283.814759 311.758778 
L 284.530909 309.676478 
L 285.247059 316.06446 
L 285.963209 308.123561 
L 286.679358 311.15952 
L 287.395508 308.412917 
L 288.111658 310.85166 
L 288.827807 313.924464 
L 289.543957 312.584319 
L 290.260107 307.537096 
L 291.692406 314.555111 
L 292.408556 304.248652 
L 293.124706 308.314756 
L 293.840856 308.52298 
L 294.557005 310.1018 
L 295.273155 308.857675 
L 295.989305 313.341905 
L 296.705455 316.205285 
L 297.421604 310.838065 
L 298.137754 304.45781 
L 299.570053 308.670068 
L 300.286203 310.810451 
L 301.002353 313.382398 
L 301.718503 310.477158 
L 302.434652 313.841138 
L 303.150802 315.788933 
L 303.866952 313.092137 
L 304.583102 319.236555 
L 305.299251 303.65629 
L 306.015401 297.910419 
L 306.731551 302.566691 
L 307.447701 310.170447 
L 308.16385 311.791352 
L 308.88 311.410301 
L 309.59615 319.558249 
L 310.312299 325.880643 
L 311.028449 329.400596 
L 311.744599 308.521339 
L 312.460749 308.533248 
L 313.176898 287.152479 
L 313.893048 301.507206 
L 314.609198 312.832305 
L 315.325348 326.63202 
L 316.041497 315.538752 
L 316.757647 301.436925 
L 317.473797 314.041576 
L 318.189947 300.997488 
L 318.906096 295.147732 
L 319.622246 310.696572 
L 320.338396 310.867173 
L 321.054545 308.412036 
L 321.770695 307.570652 
L 322.486845 313.35482 
L 323.202995 310.977091 
L 323.919144 313.681949 
L 324.635294 312.270728 
L 325.351444 304.201296 
L 326.067594 312.952678 
L 326.783743 306.658972 
L 327.499893 306.793708 
L 328.216043 307.518349 
L 328.932193 309.638507 
L 329.648342 308.883508 
L 330.364492 310.717216 
L 331.080642 310.970171 
L 331.796791 312.745286 
L 332.512941 308.457654 
L 333.229091 312.62696 
L 333.945241 311.269816 
L 335.37754 307.987734 
L 336.09369 311.196544 
L 336.80984 308.611214 
L 337.525989 318.242665 
L 338.242139 315.111488 
L 338.958289 319.023025 
L 339.674439 317.032845 
L 340.390588 313.641313 
L 341.106738 315.480325 
L 341.822888 306.675968 
L 342.539037 294.47069 
L 343.255187 298.231722 
L 343.971337 310.580509 
L 344.687487 310.445189 
L 345.403636 308.184437 
L 346.119786 311.995058 
L 346.835936 318.461942 
L 347.552086 307.474417 
L 348.268235 311.756702 
L 349.700535 315.061938 
L 350.416684 305.190402 
L 351.132834 306.544556 
L 351.848984 312.560817 
L 352.565134 316.873523 
L 353.281283 317.667909 
L 353.997433 289.205093 
L 354.713583 307.763046 
L 355.429733 316.323187 
L 356.145882 322.648563 
L 356.862032 300.410124 
L 357.578182 304.341414 
L 358.294332 313.520031 
L 359.010481 318.889579 
L 359.726631 305.570482 
L 360.442781 312.785652 
L 361.15893 315.566689 
L 361.87508 300.322026 
L 362.59123 301.73581 
L 363.30738 305.596969 
L 364.023529 311.093927 
L 364.739679 314.663679 
L 365.455829 312.984053 
L 366.171979 312.803509 
L 366.888128 314.185173 
L 367.604278 321.452232 
L 368.320428 298.614235 
L 369.036578 303.184493 
L 369.752727 315.512 
L 370.468877 319.209883 
L 371.185027 318.80246 
L 371.901176 294.058892 
L 372.617326 314.890006 
L 373.333476 307.258214 
L 374.049626 306.414178 
L 374.765775 301.662334 
L 375.481925 313.582016 
L 376.198075 311.44818 
L 376.914225 322.651597 
L 377.630374 326.979614 
L 378.346524 300.828478 
L 379.062674 302.899709 
L 379.778824 300.949863 
L 380.494973 304.13591 
L 381.927273 315.619584 
L 382.643422 306.016887 
L 383.359572 311.88057 
L 384.075722 308.536286 
L 384.791872 308.36008 
L 385.508021 305.698519 
L 386.224171 309.181607 
L 386.940321 309.90017 
L 388.37262 314.720895 
L 389.08877 313.208337 
L 389.80492 310.984382 
L 390.52107 310.975692 
L 391.237219 306.680853 
L 391.953369 405.311168 
L 392.669519 430.128827 
L 393.385668 357.973283 
L 394.101818 306.074049 
L 394.817968 302.250798 
L 396.250267 164.404218 
L 396.966417 406.921188 
L 397.682567 476.248018 
L 398.398717 387.471709 
L 399.114866 240.130749 
L 399.831016 294.292508 
L 400.547166 200.809444 
L 401.263316 155.932842 
L 401.979465 293.554671 
L 402.695615 315.220572 
L 403.411765 299.822681 
L 404.127914 311.217583 
L 404.844064 314.498745 
L 406.276364 325.292215 
L 406.992513 310.468993 
L 407.708663 314.986137 
L 408.424813 299.388832 
L 409.140963 294.018653 
L 409.857112 306.014321 
L 410.573262 307.767666 
L 411.289412 322.168897 
L 412.005561 312.640242 
L 412.721711 305.955693 
L 413.437861 308.478595 
L 414.154011 317.433497 
L 414.87016 301.268116 
L 415.58631 308.460931 
L 416.30246 314.199499 
L 417.01861 312.761484 
L 417.734759 304.523013 
L 418.450909 305.606117 
L 419.167059 325.48575 
L 419.883209 323.009249 
L 420.599358 302.137082 
L 421.315508 302.844213 
L 422.031658 319.900034 
L 422.747807 302.80615 
L 423.463957 302.610484 
L 424.180107 298.788637 
L 424.896257 310.211853 
L 425.612406 310.584255 
L 426.328556 311.408641 
L 427.044706 313.930588 
L 427.760856 313.440885 
L 428.477005 311.454507 
L 429.193155 311.855014 
L 429.909305 305.342844 
L 430.625455 306.723582 
L 431.341604 315.446556 
L 432.057754 315.147823 
L 432.773904 306.589676 
L 433.490053 312.733044 
L 434.206203 343.794195 
L 434.922353 321.557631 
L 435.638503 294.425325 
L 436.354652 300.732417 
L 437.070802 304.236629 
L 437.786952 296.413165 
L 438.503102 302.94199 
L 439.219251 312.856786 
L 439.935401 308.39253 
L 440.651551 309.112474 
L 441.367701 317.509445 
L 442.08385 304.449339 
L 442.8 307.389508 
L 444.232299 308.963439 
L 444.948449 310.678168 
L 445.664599 317.965694 
L 446.380749 328.060219 
L 447.096898 307.329437 
L 447.813048 311.117548 
L 448.529198 310.253365 
L 449.245348 298.86743 
L 449.961497 304.143575 
L 450.677647 313.531748 
L 451.393797 312.594226 
L 452.109947 312.74979 
L 452.826096 302.185806 
L 453.542246 317.458898 
L 454.258396 314.876165 
L 454.974545 300.176587 
L 455.690695 308.622807 
L 456.406845 313.326081 
L 457.122995 307.070913 
L 457.839144 304.88469 
L 458.555294 306.212998 
L 459.271444 309.707102 
L 459.987594 310.978004 
L 460.703743 315.126114 
L 461.419893 316.834631 
L 462.136043 309.408886 
L 462.852193 314.299843 
L 463.568342 305.017262 
L 464.284492 305.647225 
L 465.000642 305.891476 
L 465.716791 312.309944 
L 466.432941 323.147938 
L 467.149091 310.700351 
L 467.865241 311.105726 
L 468.58139 303.752446 
L 469.29754 315.285948 
L 470.01369 311.490153 
L 470.72984 305.672833 
L 471.445989 312.639969 
L 472.162139 299.801005 
L 472.878289 309.884767 
L 473.594439 316.692434 
L 474.310588 316.48421 
L 475.026738 312.585357 
L 475.742888 295.843682 
L 476.459037 304.265336 
L 477.175187 311.021867 
L 477.891337 311.880698 
L 478.607487 310.549917 
L 479.323636 310.357153 
L 480.039786 312.995419 
L 481.472086 343.203345 
L 482.188235 312.586194 
L 482.904385 293.129356 
L 483.620535 296.374321 
L 484.336684 305.047902 
L 485.052834 302.494185 
L 485.768984 314.322776 
L 486.485134 311.141937 
L 487.201283 305.838205 
L 487.917433 316.959197 
L 488.633583 303.60031 
L 490.065882 306.40192 
L 490.782032 325.515428 
L 491.498182 310.501075 
L 492.214332 302.068702 
L 493.646631 307.13543 
L 494.362781 312.365615 
L 495.07893 313.904808 
L 495.79508 317.6861 
L 496.51123 309.37575 
L 497.22738 305.628367 
L 497.943529 312.898273 
L 498.659679 299.927974 
L 500.091979 314.550164 
L 500.808128 317.435201 
L 501.524278 306.731177 
L 502.240428 307.494829 
L 502.956578 313.796819 
L 503.672727 309.392918 
L 504.388877 305.851212 
L 505.821176 323.891177 
L 506.537326 301.793565 
L 507.253476 304.846955 
L 507.969626 305.822061 
L 509.401925 315.081965 
L 510.118075 306.98551 
L 510.834225 312.127126 
L 511.550374 313.475331 
L 512.266524 307.657734 
L 512.982674 315.439036 
L 513.698824 309.407235 
L 514.414973 309.997315 
L 515.131123 301.549967 
L 515.847273 310.645867 
L 516.563422 310.930141 
L 517.279572 310.263272 
L 517.995722 316.815865 
L 518.711872 310.898313 
L 519.428021 309.742463 
L 520.144171 305.917661 
L 520.860321 314.217754 
L 521.576471 318.194279 
L 522.29262 298.158448 
L 523.00877 308.557967 
L 523.72492 308.459814 
L 524.44107 312.043521 
L 525.157219 311.942196 
L 525.873369 304.199028 
L 526.589519 309.168864 
L 527.305668 307.705983 
L 528.021818 310.556119 
L 528.737968 309.658514 
L 529.454118 312.488231 
L 530.170267 311.461214 
L 530.886417 314.566086 
L 531.602567 305.786534 
L 532.318717 310.064962 
L 533.034866 311.110301 
L 533.751016 320.740915 
L 534.467166 307.393861 
L 535.183316 313.615554 
L 535.899465 298.04273 
L 536.615615 308.338586 
L 537.331765 312.555329 
L 538.047914 313.556413 
L 538.764064 309.692317 
L 539.480214 304.96162 
L 540.196364 313.592517 
L 540.912513 319.164252 
L 541.628663 310.98491 
L 542.344813 306.445767 
L 543.060963 306.169229 
L 543.777112 311.085515 
L 544.493262 306.330756 
L 545.209412 309.391334 
L 546.641711 311.703138 
L 547.357861 318.767792 
L 548.074011 305.697933 
L 548.79016 311.202846 
L 549.50631 319.368886 
L 550.22246 308.30433 
L 550.93861 300.991597 
L 551.654759 309.504399 
L 552.370909 314.182128 
L 553.087059 312.337002 
L 553.803209 311.210192 
L 554.519358 313.030464 
L 555.235508 306.471148 
L 555.951658 309.68739 
L 556.667807 307.781263 
L 557.383957 307.261555 
L 558.100107 308.741986 
L 558.816257 312.821024 
L 559.532406 308.0923 
L 560.248556 307.40074 
L 560.964706 311.615584 
L 561.680856 311.767652 
L 562.397005 311.686527 
L 563.113155 305.464652 
L 563.829305 314.084229 
L 564.545455 312.080803 
L 565.261604 308.184953 
L 565.977754 306.530984 
L 566.693904 308.229528 
L 567.410053 311.906175 
L 568.126203 311.48066 
L 568.842353 310.128206 
L 569.558503 315.306629 
L 570.274652 311.995098 
L 570.990802 316.060579 
L 571.706952 311.497504 
L 572.423102 313.22449 
L 573.139251 319.680558 
L 573.855401 309.029542 
L 574.571551 291.755345 
L 575.287701 306.007699 
L 576.00385 308.854005 
L 576.72 314.082254 
L 577.43615 318.226916 
L 578.152299 314.129081 
L 578.868449 305.557123 
L 579.584599 315.033591 
L 580.300749 318.741663 
L 581.016898 292.036265 
L 581.733048 303.514618 
L 583.165348 318.67951 
L 583.881497 311.480508 
L 584.597647 310.415954 
L 585.313797 302.706903 
L 586.029947 309.367102 
L 586.746096 306.812519 
L 587.462246 308.679777 
L 588.178396 307.328099 
L 588.894545 310.704871 
L 589.610695 309.493515 
L 590.326845 316.632556 
L 591.042995 320.740143 
L 591.759144 312.466605 
L 592.475294 316.043263 
L 593.191444 320.21594 
L 593.907594 307.649251 
L 594.623743 287.129669 
L 595.339893 306.669796 
L 596.056043 319.523872 
L 596.772193 315.218952 
L 597.488342 307.354352 
L 598.204492 305.804715 
L 598.920642 330.08257 
L 599.636791 324.08412 
L 600.352941 301.957315 
L 601.069091 286.707001 
L 601.785241 312.421797 
L 602.50139 313.493433 
L 603.21754 310.503657 
L 603.93369 304.238408 
L 605.365989 308.708579 
L 606.082139 314.706483 
L 606.798289 318.907988 
L 607.514439 302.555685 
L 608.230588 307.241085 
L 608.946738 314.746711 
L 609.662888 302.835174 
L 610.379037 305.444649 
L 611.095187 312.040367 
L 611.811337 312.303838 
L 612.527487 311.30469 
L 613.243636 316.72221 
L 613.959786 307.070575 
L 614.675936 301.696344 
L 615.392086 307.627483 
L 616.108235 309.344638 
L 616.824385 311.487375 
L 617.540535 315.841152 
L 618.256684 323.272157 
L 618.972834 312.209994 
L 619.688984 310.712806 
L 620.405134 298.298974 
L 621.121283 309.861421 
L 621.837433 310.129321 
L 622.553583 316.835091 
L 623.269733 309.163212 
L 623.985882 316.285065 
L 624.702032 311.254963 
L 625.418182 303.813399 
L 626.134332 305.679118 
L 626.850481 306.438565 
L 627.566631 305.21922 
L 628.282781 307.984761 
L 628.99893 314.739175 
L 629.71508 313.429846 
L 630.43123 315.80199 
L 631.14738 310.102672 
L 631.863529 313.566564 
L 632.579679 320.73652 
L 633.295829 331.033836 
L 634.011979 295.748897 
L 634.728128 289.480665 
L 635.444278 301.661566 
L 636.160428 310.145682 
L 636.876578 308.805592 
L 638.308877 324.197516 
L 639.025027 319.462831 
L 639.741176 306.08831 
L 640.457326 319.939924 
L 641.173476 323.171189 
L 641.889626 298.516023 
L 642.605775 298.809001 
L 643.321925 313.124033 
L 644.038075 293.657286 
L 644.754225 304.97556 
L 645.470374 308.123833 
L 646.186524 306.975459 
L 646.902674 313.767373 
L 647.618824 314.226277 
L 648.334973 310.708987 
L 649.051123 319.547288 
L 649.767273 309.776728 
L 650.483422 309.965372 
L 651.199572 296.66943 
L 651.915722 309.632907 
L 652.631872 309.548554 
L 653.348021 311.974806 
L 654.064171 357.222595 
L 654.780321 393.107217 
L 656.21262 301.340191 
L 656.92877 308.540205 
L 658.36107 223.565656 
L 659.077219 405.360057 
L 659.793369 461.733637 
L 660.509519 435.732855 
L 661.225668 194.942369 
L 661.941818 275.235261 
L 662.657968 211.737341 
L 663.374118 198.585859 
L 664.090267 323.477115 
L 664.806417 312.873385 
L 665.522567 279.435821 
L 666.238717 298.005103 
L 666.954866 300.177693 
L 667.671016 312.88902 
L 668.387166 319.163559 
L 669.103316 295.551927 
L 669.819465 308.274438 
L 670.535615 308.763221 
L 671.251765 316.009233 
L 671.967914 303.001828 
L 672.684064 307.157098 
L 673.400214 308.640352 
L 674.116364 309.798964 
L 674.832513 310.570476 
L 675.548663 311.684388 
L 676.264813 329.736299 
L 676.980963 336.594298 
L 677.697112 305.595374 
L 678.413262 288.512867 
L 679.129412 306.266447 
L 679.845561 314.953345 
L 680.561711 295.386787 
L 681.277861 314.275345 
L 681.994011 307.107497 
L 682.71016 318.391673 
L 683.42631 311.477679 
L 684.14246 312.346271 
L 684.85861 300.468912 
L 685.574759 308.114139 
L 686.290909 311.295449 
L 687.007059 307.917274 
L 687.723209 310.614068 
L 688.439358 311.032514 
L 689.155508 308.215082 
L 689.871658 310.878549 
L 690.587807 308.175913 
L 692.020107 315.139853 
L 692.736257 301.969862 
L 693.452406 309.092052 
L 694.168556 311.170504 
L 694.884706 309.766196 
L 695.600856 307.742296 
L 696.317005 310.028584 
L 697.033155 311.12427 
L 697.749305 310.710996 
L 698.465455 314.72425 
L 699.181604 313.071873 
L 699.897754 313.390883 
L 700.613904 322.972731 
L 701.330053 305.806691 
L 702.046203 300.745035 
L 702.762353 305.859198 
L 703.478503 307.202177 
L 704.194652 310.133152 
L 704.910802 309.300748 
L 705.626952 313.098503 
L 706.343102 313.096955 
L 707.059251 310.960233 
L 707.775401 312.6199 
L 708.491551 312.125037 
L 709.207701 311.481689 
L 709.92385 307.80466 
L 710.64 308.788109 
L 711.35615 315.09185 
L 712.072299 303.607519 
L 712.788449 309.311193 
L 713.504599 310.773504 
L 714.220749 304.006446 
L 714.936898 308.75511 
L 715.653048 311.132503 
L 716.369198 310.840303 
L 717.085348 313.251838 
L 717.801497 311.687986 
L 718.517647 317.194619 
L 719.233797 305.257775 
L 719.949947 307.409197 
L 720.666096 306.587547 
L 721.382246 312.524798 
L 722.098396 331.857595 
L 722.814545 344.201518 
L 723.530695 349.177906 
L 724.246845 299.081998 
L 724.962995 278.419568 
L 725.679144 288.85646 
L 726.395294 296.741729 
L 727.111444 307.87029 
L 727.827594 300.826364 
L 728.543743 309.735557 
L 729.259893 310.130457 
L 729.976043 305.389023 
L 730.692193 306.72986 
L 731.408342 313.639263 
L 732.124492 321.707818 
L 732.840642 305.862783 
L 733.556791 302.678229 
L 734.272941 306.511282 
L 734.989091 311.52165 
L 735.705241 313.079276 
L 736.42139 314.349045 
L 737.13754 312.846253 
L 737.85369 309.712728 
L 738.56984 304.030192 
L 740.002139 308.63568 
L 740.718289 310.280322 
L 741.434439 311.317897 
L 742.150588 313.799436 
L 742.866738 312.351046 
L 743.582888 313.450232 
L 744.299037 314.20155 
L 745.015187 306.255537 
L 745.731337 310.213029 
L 747.163636 310.213029 
L 747.163636 310.213029 
" style="fill:none;stroke:#ffa500;stroke-linecap:round;stroke-opacity:0.7;stroke-width:1.5;"/>
   </g>
   <g id="patch_3">
    <path d="M 108 504 
L 108 69.12 
" style="fill:none;stroke:#d3d3d3;stroke-linecap:square;stroke-linejoin:miter;stroke-width:1.25;"/>
   </g>
   <g id="patch_4">
    <path d="M 777.6 504 
L 777.6 69.12 
" style="fill:none;stroke:#d3d3d3;stroke-linecap:square;stroke-linejoin:miter;stroke-width:1.25;"/>
   </g>
   <g id="patch_5">
    <path d="M 108 504 
L 777.6 504 
" style="fill:none;stroke:#d3d3d3;stroke-linecap:square;stroke-linejoin:miter;stroke-width:1.25;"/>
   </g>
   <g id="patch_6">
    <path d="M 108 69.12 
L 777.6 69.12 
" style="fill:none;stroke:#d3d3d3;stroke-linecap:square;stroke-linejoin:miter;stroke-width:1.25;"/>
   </g>
  </g>
 </g>
 <defs>
  <clipPath id="pb7ef36f2a9">
   <rect height="434.88" width="669.6" x="108" y="69.12"/>
  </clipPath>
 </defs>
</svg>
